G04 #@! TF.GenerationSoftware,KiCad,Pcbnew,7.0.9*
G04 #@! TF.CreationDate,2024-01-25T19:57:45+09:00*
G04 #@! TF.ProjectId,withTK,77697468-544b-42e6-9b69-6361645f7063,rev?*
G04 #@! TF.SameCoordinates,Original*
G04 #@! TF.FileFunction,Soldermask,Bot*
G04 #@! TF.FilePolarity,Negative*
%FSLAX46Y46*%
G04 Gerber Fmt 4.6, Leading zero omitted, Abs format (unit mm)*
G04 Created by KiCad (PCBNEW 7.0.9) date 2024-01-25 19:57:45*
%MOMM*%
%LPD*%
G01*
G04 APERTURE LIST*
G04 Aperture macros list*
%AMRoundRect*
0 Rectangle with rounded corners*
0 $1 Rounding radius*
0 $2 $3 $4 $5 $6 $7 $8 $9 X,Y pos of 4 corners*
0 Add a 4 corners polygon primitive as box body*
4,1,4,$2,$3,$4,$5,$6,$7,$8,$9,$2,$3,0*
0 Add four circle primitives for the rounded corners*
1,1,$1+$1,$2,$3*
1,1,$1+$1,$4,$5*
1,1,$1+$1,$6,$7*
1,1,$1+$1,$8,$9*
0 Add four rect primitives between the rounded corners*
20,1,$1+$1,$2,$3,$4,$5,0*
20,1,$1+$1,$4,$5,$6,$7,0*
20,1,$1+$1,$6,$7,$8,$9,0*
20,1,$1+$1,$8,$9,$2,$3,0*%
%AMFreePoly0*
4,1,22,1.150000,1.217000,1.242000,1.125000,1.275000,1.000000,1.275000,-0.378000,1.255000,-0.477000,1.196000,-0.560000,1.110000,-0.613000,0.807000,-0.752000,0.530000,-0.939000,0.287000,-1.167000,0.203000,-1.228000,0.102000,-1.250000,-1.025000,-1.250000,-1.150000,-1.217000,-1.242000,-1.125000,-1.275000,-1.000000,-1.275000,1.000000,-1.242000,1.125000,-1.150000,1.217000,-1.025000,1.250000,
1.025000,1.250000,1.150000,1.217000,1.150000,1.217000,$1*%
G04 Aperture macros list end*
%ADD10C,2.000000*%
%ADD11C,3.000000*%
%ADD12C,4.000000*%
%ADD13R,3.300000X3.000000*%
%ADD14R,0.950000X1.300000*%
%ADD15R,2.200000X0.820000*%
%ADD16O,1.600000X1.300000*%
%ADD17RoundRect,0.249600X-0.550400X-0.900400X0.550400X-0.900400X0.550400X0.900400X-0.550400X0.900400X0*%
%ADD18C,3.100000*%
%ADD19RoundRect,0.249600X-0.550400X-1.300400X0.550400X-1.300400X0.550400X1.300400X-0.550400X1.300400X0*%
%ADD20RoundRect,0.250000X-1.025000X-1.000000X1.025000X-1.000000X1.025000X1.000000X-1.025000X1.000000X0*%
%ADD21FreePoly0,0.000000*%
%ADD22R,1.300000X0.950000*%
%ADD23C,1.250000*%
G04 APERTURE END LIST*
D10*
X62147100Y-28621100D03*
D11*
X63417100Y-26081100D03*
D12*
X67227100Y-28621100D03*
D11*
X69767100Y-23541100D03*
D10*
X72307100Y-28621100D03*
D13*
X59777100Y-26041100D03*
X73377100Y-23501100D03*
D10*
X81197100Y-28621100D03*
D11*
X82467100Y-26081100D03*
D12*
X86277100Y-28621100D03*
D11*
X88817100Y-23541100D03*
D10*
X91357100Y-28621100D03*
D13*
X78827100Y-26041100D03*
X92427100Y-23501100D03*
D10*
X100247100Y-28621100D03*
D11*
X101517100Y-26081100D03*
D12*
X105327100Y-28621100D03*
D11*
X107867100Y-23541100D03*
D10*
X110407100Y-28621100D03*
D13*
X97877100Y-26041100D03*
X111477100Y-23501100D03*
D14*
X113246100Y-49446100D03*
X113246100Y-45896100D03*
D10*
X100247100Y-85771100D03*
D11*
X101517100Y-83231100D03*
D12*
X105327100Y-85771100D03*
D11*
X107867100Y-80691100D03*
D10*
X110407100Y-85771100D03*
D13*
X97877100Y-83191100D03*
X111477100Y-80651100D03*
D10*
X81197100Y-66721100D03*
D11*
X82467100Y-64181100D03*
D12*
X86277100Y-66721100D03*
D11*
X88817100Y-61641100D03*
D10*
X91357100Y-66721100D03*
D13*
X78827100Y-64141100D03*
X92427100Y-61601100D03*
D14*
X37037600Y-75639900D03*
X37037600Y-72089900D03*
D10*
X100247100Y-47671100D03*
D11*
X101517100Y-45131100D03*
D12*
X105327100Y-47671100D03*
D11*
X107867100Y-42591100D03*
D10*
X110407100Y-47671100D03*
D13*
X97877100Y-45091100D03*
X111477100Y-42551100D03*
D15*
X32077100Y-77877400D03*
X26177100Y-77877400D03*
X26177100Y-79377400D03*
X32077100Y-79377400D03*
D10*
X81197100Y-85771100D03*
D11*
X82467100Y-83231100D03*
D12*
X86277100Y-85771100D03*
D11*
X88817100Y-80691100D03*
D10*
X91357100Y-85771100D03*
D13*
X78827100Y-83191100D03*
X92427100Y-80651100D03*
D14*
X75134000Y-68496100D03*
X75134000Y-64946100D03*
D15*
X83327100Y-91283600D03*
X89227100Y-91283600D03*
X89227100Y-89783600D03*
X83327100Y-89783600D03*
X89227100Y-108833600D03*
X83327100Y-108833600D03*
X83327100Y-110333600D03*
X89227100Y-110333600D03*
X26019300Y-59946100D03*
X31919300Y-59946100D03*
X31919300Y-58446100D03*
X26019300Y-58446100D03*
X64277100Y-53183600D03*
X70177100Y-53183600D03*
X70177100Y-51683600D03*
X64277100Y-51683600D03*
X108136600Y-32633600D03*
X102236600Y-32633600D03*
X102236600Y-34133600D03*
X108136600Y-34133600D03*
D14*
X56094200Y-56589900D03*
X56094200Y-53039900D03*
X94190600Y-49446100D03*
X94190600Y-45896100D03*
D10*
X62147100Y-85771100D03*
D11*
X63417100Y-83231100D03*
D12*
X67227100Y-85771100D03*
D11*
X69767100Y-80691100D03*
D10*
X72307100Y-85771100D03*
D13*
X59777100Y-83191100D03*
X73377100Y-80651100D03*
D10*
X81197100Y-47671100D03*
D11*
X82467100Y-45131100D03*
D12*
X86277100Y-47671100D03*
D11*
X88817100Y-42591100D03*
D10*
X91357100Y-47671100D03*
D13*
X78827100Y-45091100D03*
X92427100Y-42551100D03*
D11*
X25317100Y-52274900D03*
D12*
X29127100Y-54814900D03*
D11*
X31667100Y-49734900D03*
D16*
X31627100Y-47314900D03*
X26627100Y-47314900D03*
X29127100Y-47314900D03*
D17*
X22777100Y-55214900D03*
D18*
X23577100Y-54814900D03*
X34677100Y-54814900D03*
D19*
X35477100Y-54814900D03*
D16*
X31627100Y-61814900D03*
D20*
X35217100Y-49734900D03*
D21*
X21767100Y-52274900D03*
D16*
X26627100Y-61814900D03*
D14*
X56082500Y-75639900D03*
X56082500Y-72089900D03*
D15*
X70177100Y-108833600D03*
X64277100Y-108833600D03*
X64277100Y-110333600D03*
X70177100Y-110333600D03*
D10*
X81197100Y-104821100D03*
D11*
X82467100Y-102281100D03*
D12*
X86277100Y-104821100D03*
D11*
X88817100Y-99741100D03*
D10*
X91357100Y-104821100D03*
D13*
X78827100Y-102241100D03*
X92427100Y-99701100D03*
D14*
X75134000Y-49446100D03*
X75134000Y-45896100D03*
D15*
X70177100Y-70733600D03*
X64277100Y-70733600D03*
X64277100Y-72233600D03*
X70177100Y-72233600D03*
D10*
X43097100Y-73864900D03*
D11*
X44367100Y-71324900D03*
D12*
X48177100Y-73864900D03*
D11*
X50717100Y-68784900D03*
D10*
X53257100Y-73864900D03*
D13*
X40727100Y-71284900D03*
X54327100Y-68744900D03*
D11*
X44367100Y-52274900D03*
D12*
X48177100Y-54814900D03*
D11*
X50717100Y-49734900D03*
D16*
X50677100Y-47314900D03*
X45677100Y-47314900D03*
X48177100Y-47314900D03*
D17*
X41827100Y-55214900D03*
D18*
X42627100Y-54814900D03*
X53727100Y-54814900D03*
D19*
X54527100Y-54814900D03*
D16*
X50677100Y-61814900D03*
D20*
X54267100Y-49734900D03*
D21*
X40817100Y-52274900D03*
D16*
X45677100Y-61814900D03*
D14*
X75135100Y-30396100D03*
X75135100Y-26846100D03*
D15*
X108277100Y-70733600D03*
X102377100Y-70733600D03*
X102377100Y-72233600D03*
X108277100Y-72233600D03*
X83327100Y-53183600D03*
X89227100Y-53183600D03*
X89227100Y-51683600D03*
X83327100Y-51683600D03*
X45069600Y-59946100D03*
X50969600Y-59946100D03*
X50969600Y-58446100D03*
X45069600Y-58446100D03*
X89072900Y-32633600D03*
X83172900Y-32633600D03*
X83172900Y-34133600D03*
X89072900Y-34133600D03*
D14*
X113235700Y-106596100D03*
X113235700Y-103046100D03*
D11*
X34842100Y-97518600D03*
D12*
X38652100Y-100058600D03*
D11*
X41192100Y-94978600D03*
D16*
X41152100Y-92558600D03*
X36152100Y-92558600D03*
X38652100Y-92558600D03*
D17*
X32302100Y-100458600D03*
D18*
X33102100Y-100058600D03*
X44202100Y-100058600D03*
D19*
X45002100Y-100058600D03*
D16*
X41152100Y-107058600D03*
D20*
X44742100Y-94978600D03*
D21*
X31292100Y-97518600D03*
D16*
X36152100Y-107058600D03*
D14*
X37029800Y-56589900D03*
X37029800Y-53039900D03*
D22*
X57737400Y-18858700D03*
X54187400Y-18858700D03*
D10*
X100247100Y-66721100D03*
D11*
X101517100Y-64181100D03*
D12*
X105327100Y-66721100D03*
D11*
X107867100Y-61641100D03*
D10*
X110407100Y-66721100D03*
D13*
X97877100Y-64141100D03*
X111477100Y-61601100D03*
D14*
X75136000Y-106596100D03*
X75136000Y-103046100D03*
D15*
X70021200Y-32633600D03*
X64121200Y-32633600D03*
X64121200Y-34133600D03*
X70021200Y-34133600D03*
D10*
X62147100Y-104821100D03*
D11*
X63417100Y-102281100D03*
D12*
X67227100Y-104821100D03*
D11*
X69767100Y-99741100D03*
D10*
X72307100Y-104821100D03*
D13*
X59777100Y-102241100D03*
X73377100Y-99701100D03*
D15*
X102377100Y-91283600D03*
X108277100Y-91283600D03*
X108277100Y-89783600D03*
X102377100Y-89783600D03*
D14*
X94181200Y-30396100D03*
X94181200Y-26846100D03*
D10*
X62147100Y-66721100D03*
D11*
X63417100Y-64181100D03*
D12*
X67227100Y-66721100D03*
D11*
X69767100Y-61641100D03*
D10*
X72307100Y-66721100D03*
D13*
X59777100Y-64141100D03*
X73377100Y-61601100D03*
D14*
X46558700Y-106130300D03*
X46558700Y-102580300D03*
D15*
X89227100Y-70733600D03*
X83327100Y-70733600D03*
X83327100Y-72233600D03*
X89227100Y-72233600D03*
X102377100Y-53183600D03*
X108277100Y-53183600D03*
X108277100Y-51683600D03*
X102377100Y-51683600D03*
D10*
X24047100Y-73864900D03*
D11*
X25317100Y-71324900D03*
D12*
X29127100Y-73864900D03*
D11*
X31667100Y-68784900D03*
D10*
X34207100Y-73864900D03*
D13*
X21677100Y-71284900D03*
X35277100Y-68744900D03*
D14*
X75135600Y-87546100D03*
X75135600Y-83996100D03*
D10*
X100247100Y-104821100D03*
D11*
X101517100Y-102281100D03*
D12*
X105327100Y-104821100D03*
D11*
X107867100Y-99741100D03*
D10*
X110407100Y-104821100D03*
D13*
X97877100Y-102241100D03*
X111477100Y-99701100D03*
D14*
X94182400Y-68496100D03*
X94182400Y-64946100D03*
X113232100Y-30396100D03*
X113232100Y-26846100D03*
D15*
X41602100Y-103746100D03*
X35702100Y-103746100D03*
X35702100Y-105246100D03*
X41602100Y-105246100D03*
D14*
X94182900Y-106596100D03*
X94182900Y-103046100D03*
X113233600Y-68496100D03*
X113233600Y-64946100D03*
X113237600Y-87546100D03*
X113237600Y-83996100D03*
X94192000Y-87546100D03*
X94192000Y-83996100D03*
D10*
X62147100Y-47671100D03*
D11*
X63417100Y-45131100D03*
D12*
X67227100Y-47671100D03*
D11*
X69767100Y-42591100D03*
D10*
X72307100Y-47671100D03*
D13*
X59777100Y-45091100D03*
X73377100Y-42551100D03*
D15*
X108277100Y-108833600D03*
X102377100Y-108833600D03*
X102377100Y-110333600D03*
X108277100Y-110333600D03*
X64277100Y-91283600D03*
X70177100Y-91283600D03*
X70177100Y-89783600D03*
X64277100Y-89783600D03*
X51127100Y-77877400D03*
X45227100Y-77877400D03*
X45227100Y-79377400D03*
X51127100Y-79377400D03*
D23*
X30902066Y-18839159D03*
X30902066Y-21359159D03*
X30902066Y-23899159D03*
X30902066Y-26429159D03*
X30902066Y-28979159D03*
X30902066Y-31519159D03*
X30902066Y-34059159D03*
X30902066Y-36599159D03*
X30902066Y-39139159D03*
X33442066Y-39139159D03*
X35992066Y-39139159D03*
X38522400Y-39139159D03*
X41072400Y-39139159D03*
X43602066Y-39139159D03*
X46142066Y-39123500D03*
X46142066Y-36599159D03*
X46142066Y-34059159D03*
X46142066Y-31519159D03*
X46142066Y-28979159D03*
X46142066Y-26429159D03*
X46142066Y-23899159D03*
X46142066Y-21359159D03*
X46142066Y-18839159D03*
M02*
