G04 #@! TF.GenerationSoftware,KiCad,Pcbnew,7.0.9*
G04 #@! TF.CreationDate,2024-01-25T19:57:45+09:00*
G04 #@! TF.ProjectId,withTK,77697468-544b-42e6-9b69-6361645f7063,rev?*
G04 #@! TF.SameCoordinates,Original*
G04 #@! TF.FileFunction,Soldermask,Top*
G04 #@! TF.FilePolarity,Negative*
%FSLAX46Y46*%
G04 Gerber Fmt 4.6, Leading zero omitted, Abs format (unit mm)*
G04 Created by KiCad (PCBNEW 7.0.9) date 2024-01-25 19:57:45*
%MOMM*%
%LPD*%
G01*
G04 APERTURE LIST*
%ADD10C,2.000000*%
%ADD11C,3.000000*%
%ADD12C,4.000000*%
%ADD13O,1.600000X1.300000*%
%ADD14C,3.100000*%
%ADD15C,1.250000*%
%ADD16O,3.500000X1.500000*%
%ADD17O,1.500000X3.500000*%
G04 APERTURE END LIST*
D10*
X62147100Y-28621100D03*
D11*
X63417100Y-26081100D03*
D12*
X67227100Y-28621100D03*
D11*
X69767100Y-23541100D03*
D10*
X72307100Y-28621100D03*
X81197100Y-28621100D03*
D11*
X82467100Y-26081100D03*
D12*
X86277100Y-28621100D03*
D11*
X88817100Y-23541100D03*
D10*
X91357100Y-28621100D03*
X100247100Y-28621100D03*
D11*
X101517100Y-26081100D03*
D12*
X105327100Y-28621100D03*
D11*
X107867100Y-23541100D03*
D10*
X110407100Y-28621100D03*
X100247100Y-85771100D03*
D11*
X101517100Y-83231100D03*
D12*
X105327100Y-85771100D03*
D11*
X107867100Y-80691100D03*
D10*
X110407100Y-85771100D03*
X81197100Y-66721100D03*
D11*
X82467100Y-64181100D03*
D12*
X86277100Y-66721100D03*
D11*
X88817100Y-61641100D03*
D10*
X91357100Y-66721100D03*
X100247100Y-47671100D03*
D11*
X101517100Y-45131100D03*
D12*
X105327100Y-47671100D03*
D11*
X107867100Y-42591100D03*
D10*
X110407100Y-47671100D03*
X81197100Y-85771100D03*
D11*
X82467100Y-83231100D03*
D12*
X86277100Y-85771100D03*
D11*
X88817100Y-80691100D03*
D10*
X91357100Y-85771100D03*
X62147100Y-85771100D03*
D11*
X63417100Y-83231100D03*
D12*
X67227100Y-85771100D03*
D11*
X69767100Y-80691100D03*
D10*
X72307100Y-85771100D03*
X81197100Y-47671100D03*
D11*
X82467100Y-45131100D03*
D12*
X86277100Y-47671100D03*
D11*
X88817100Y-42591100D03*
D10*
X91357100Y-47671100D03*
D11*
X25317100Y-52274900D03*
D12*
X29127100Y-54814900D03*
D11*
X31667100Y-49734900D03*
D13*
X31627100Y-47314900D03*
X26627100Y-47314900D03*
X29127100Y-47314900D03*
D14*
X23577100Y-54814900D03*
X34677100Y-54814900D03*
D13*
X31627100Y-61814900D03*
X26627100Y-61814900D03*
D10*
X81197100Y-104821100D03*
D11*
X82467100Y-102281100D03*
D12*
X86277100Y-104821100D03*
D11*
X88817100Y-99741100D03*
D10*
X91357100Y-104821100D03*
X43097100Y-73864900D03*
D11*
X44367100Y-71324900D03*
D12*
X48177100Y-73864900D03*
D11*
X50717100Y-68784900D03*
D10*
X53257100Y-73864900D03*
D11*
X44367100Y-52274900D03*
D12*
X48177100Y-54814900D03*
D11*
X50717100Y-49734900D03*
D13*
X50677100Y-47314900D03*
X45677100Y-47314900D03*
X48177100Y-47314900D03*
D14*
X42627100Y-54814900D03*
X53727100Y-54814900D03*
D13*
X50677100Y-61814900D03*
X45677100Y-61814900D03*
D11*
X34842100Y-97518600D03*
D12*
X38652100Y-100058600D03*
D11*
X41192100Y-94978600D03*
D13*
X41152100Y-92558600D03*
X36152100Y-92558600D03*
X38652100Y-92558600D03*
D14*
X33102100Y-100058600D03*
X44202100Y-100058600D03*
D13*
X41152100Y-107058600D03*
X36152100Y-107058600D03*
D10*
X100247100Y-66721100D03*
D11*
X101517100Y-64181100D03*
D12*
X105327100Y-66721100D03*
D11*
X107867100Y-61641100D03*
D10*
X110407100Y-66721100D03*
X62147100Y-104821100D03*
D11*
X63417100Y-102281100D03*
D12*
X67227100Y-104821100D03*
D11*
X69767100Y-99741100D03*
D10*
X72307100Y-104821100D03*
X62147100Y-66721100D03*
D11*
X63417100Y-64181100D03*
D12*
X67227100Y-66721100D03*
D11*
X69767100Y-61641100D03*
D10*
X72307100Y-66721100D03*
X24047100Y-73864900D03*
D11*
X25317100Y-71324900D03*
D12*
X29127100Y-73864900D03*
D11*
X31667100Y-68784900D03*
D10*
X34207100Y-73864900D03*
X100247100Y-104821100D03*
D11*
X101517100Y-102281100D03*
D12*
X105327100Y-104821100D03*
D11*
X107867100Y-99741100D03*
D10*
X110407100Y-104821100D03*
X62147100Y-47671100D03*
D11*
X63417100Y-45131100D03*
D12*
X67227100Y-47671100D03*
D11*
X69767100Y-42591100D03*
D10*
X72307100Y-47671100D03*
D15*
X30902066Y-18839159D03*
D16*
X29902066Y-18839159D03*
D15*
X30902066Y-21359159D03*
D16*
X29902066Y-21359159D03*
D15*
X30902066Y-23899159D03*
D16*
X29902066Y-23899159D03*
D15*
X30902066Y-26429159D03*
D16*
X29902066Y-26429159D03*
D15*
X30902066Y-28979159D03*
D16*
X29902066Y-28979159D03*
D15*
X30902066Y-31519159D03*
D16*
X29902066Y-31519159D03*
D15*
X30902066Y-34059159D03*
D16*
X29902066Y-34059159D03*
D15*
X30902066Y-36599159D03*
D16*
X29902066Y-36599159D03*
D15*
X30902066Y-39139159D03*
D16*
X29902066Y-39139159D03*
D15*
X33442066Y-39139159D03*
D17*
X33442066Y-40139159D03*
D15*
X35992066Y-39139159D03*
D17*
X35992066Y-40139159D03*
D15*
X38522400Y-39139159D03*
D17*
X38522400Y-40139159D03*
D15*
X41072400Y-39139159D03*
D17*
X41072400Y-40139159D03*
D15*
X43602066Y-39139159D03*
D17*
X43602066Y-40139159D03*
D15*
X46142066Y-39123500D03*
D16*
X47142066Y-39123500D03*
D15*
X46142066Y-36599159D03*
D16*
X47142066Y-36599159D03*
D15*
X46142066Y-34059159D03*
D16*
X47142066Y-34059159D03*
D15*
X46142066Y-31519159D03*
D16*
X47142066Y-31519159D03*
D15*
X46142066Y-28979159D03*
D16*
X47142066Y-28979159D03*
D15*
X46142066Y-26429159D03*
D16*
X47142066Y-26429159D03*
D15*
X46142066Y-23899159D03*
D16*
X47142066Y-23899159D03*
D15*
X46142066Y-21359159D03*
D16*
X47142066Y-21359159D03*
D15*
X46142066Y-18839159D03*
D16*
X47142066Y-18839159D03*
M02*
