G04 #@! TF.GenerationSoftware,KiCad,Pcbnew,7.0.9*
G04 #@! TF.CreationDate,2024-01-25T19:57:45+09:00*
G04 #@! TF.ProjectId,withTK,77697468-544b-42e6-9b69-6361645f7063,rev?*
G04 #@! TF.SameCoordinates,Original*
G04 #@! TF.FileFunction,Profile,NP*
%FSLAX46Y46*%
G04 Gerber Fmt 4.6, Leading zero omitted, Abs format (unit mm)*
G04 Created by KiCad (PCBNEW 7.0.9) date 2024-01-25 19:57:45*
%MOMM*%
%LPD*%
G01*
G04 APERTURE LIST*
G04 #@! TA.AperFunction,Profile*
%ADD10C,0.100000*%
G04 #@! TD*
G04 #@! TA.AperFunction,Profile*
%ADD11C,0.120000*%
G04 #@! TD*
G04 APERTURE END LIST*
D10*
X19275000Y-113050000D02*
G75*
G03*
X22275000Y-116050000I3000000J0D01*
G01*
X22275000Y-17250000D02*
G75*
G03*
X19275000Y-20250000I0J-3000000D01*
G01*
X112275000Y-116050000D02*
G75*
G03*
X115275000Y-113050000I0J3000000D01*
G01*
X115275000Y-20250000D02*
G75*
G03*
X112275000Y-17250000I-3000000J0D01*
G01*
X22275000Y-116050000D02*
X112275000Y-116050000D01*
X19275000Y-20250000D02*
X19275000Y-113050000D01*
X115275000Y-20250000D02*
X115275000Y-113050000D01*
X22275000Y-17250000D02*
X29521100Y-17246314D01*
X47506100Y-17246314D02*
X112275000Y-17250000D01*
D11*
X27377100Y-77027400D02*
X30877100Y-77027400D01*
X27377100Y-80227400D02*
X27377100Y-77027400D01*
X30877100Y-77027400D02*
X30877100Y-80227400D01*
X30877100Y-80227400D02*
X27377100Y-80227400D01*
X88027100Y-92133600D02*
X84527100Y-92133600D01*
X88027100Y-88933600D02*
X88027100Y-92133600D01*
X84527100Y-92133600D02*
X84527100Y-88933600D01*
X84527100Y-88933600D02*
X88027100Y-88933600D01*
X84527100Y-107983600D02*
X88027100Y-107983600D01*
X84527100Y-111183600D02*
X84527100Y-107983600D01*
X88027100Y-107983600D02*
X88027100Y-111183600D01*
X88027100Y-111183600D02*
X84527100Y-111183600D01*
X30719300Y-60796100D02*
X27219300Y-60796100D01*
X30719300Y-57596100D02*
X30719300Y-60796100D01*
X27219300Y-60796100D02*
X27219300Y-57596100D01*
X27219300Y-57596100D02*
X30719300Y-57596100D01*
X68977100Y-54033600D02*
X65477100Y-54033600D01*
X68977100Y-50833600D02*
X68977100Y-54033600D01*
X65477100Y-54033600D02*
X65477100Y-50833600D01*
X65477100Y-50833600D02*
X68977100Y-50833600D01*
X103436600Y-31783600D02*
X106936600Y-31783600D01*
X103436600Y-34983600D02*
X103436600Y-31783600D01*
X106936600Y-31783600D02*
X106936600Y-34983600D01*
X106936600Y-34983600D02*
X103436600Y-34983600D01*
X65477100Y-107983600D02*
X68977100Y-107983600D01*
X65477100Y-111183600D02*
X65477100Y-107983600D01*
X68977100Y-107983600D02*
X68977100Y-111183600D01*
X68977100Y-111183600D02*
X65477100Y-111183600D01*
X65477100Y-69883600D02*
X68977100Y-69883600D01*
X65477100Y-73083600D02*
X65477100Y-69883600D01*
X68977100Y-69883600D02*
X68977100Y-73083600D01*
X68977100Y-73083600D02*
X65477100Y-73083600D01*
X103577100Y-69883600D02*
X107077100Y-69883600D01*
X103577100Y-73083600D02*
X103577100Y-69883600D01*
X107077100Y-69883600D02*
X107077100Y-73083600D01*
X107077100Y-73083600D02*
X103577100Y-73083600D01*
X88027100Y-54033600D02*
X84527100Y-54033600D01*
X88027100Y-50833600D02*
X88027100Y-54033600D01*
X84527100Y-54033600D02*
X84527100Y-50833600D01*
X84527100Y-50833600D02*
X88027100Y-50833600D01*
X49769600Y-60796100D02*
X46269600Y-60796100D01*
X49769600Y-57596100D02*
X49769600Y-60796100D01*
X46269600Y-60796100D02*
X46269600Y-57596100D01*
X46269600Y-57596100D02*
X49769600Y-57596100D01*
X84372900Y-31783600D02*
X87872900Y-31783600D01*
X84372900Y-34983600D02*
X84372900Y-31783600D01*
X87872900Y-31783600D02*
X87872900Y-34983600D01*
X87872900Y-34983600D02*
X84372900Y-34983600D01*
X65321200Y-31783600D02*
X68821200Y-31783600D01*
X65321200Y-34983600D02*
X65321200Y-31783600D01*
X68821200Y-31783600D02*
X68821200Y-34983600D01*
X68821200Y-34983600D02*
X65321200Y-34983600D01*
X107077100Y-92133600D02*
X103577100Y-92133600D01*
X107077100Y-88933600D02*
X107077100Y-92133600D01*
X103577100Y-92133600D02*
X103577100Y-88933600D01*
X103577100Y-88933600D02*
X107077100Y-88933600D01*
X84527100Y-69883600D02*
X88027100Y-69883600D01*
X84527100Y-73083600D02*
X84527100Y-69883600D01*
X88027100Y-69883600D02*
X88027100Y-73083600D01*
X88027100Y-73083600D02*
X84527100Y-73083600D01*
X107077100Y-54033600D02*
X103577100Y-54033600D01*
X107077100Y-50833600D02*
X107077100Y-54033600D01*
X103577100Y-54033600D02*
X103577100Y-50833600D01*
X103577100Y-50833600D02*
X107077100Y-50833600D01*
X36902100Y-102896100D02*
X40402100Y-102896100D01*
X36902100Y-106096100D02*
X36902100Y-102896100D01*
X40402100Y-102896100D02*
X40402100Y-106096100D01*
X40402100Y-106096100D02*
X36902100Y-106096100D01*
X103577100Y-107983600D02*
X107077100Y-107983600D01*
X103577100Y-111183600D02*
X103577100Y-107983600D01*
X107077100Y-107983600D02*
X107077100Y-111183600D01*
X107077100Y-111183600D02*
X103577100Y-111183600D01*
X68977100Y-92133600D02*
X65477100Y-92133600D01*
X68977100Y-88933600D02*
X68977100Y-92133600D01*
X65477100Y-92133600D02*
X65477100Y-88933600D01*
X65477100Y-88933600D02*
X68977100Y-88933600D01*
X46427100Y-77027400D02*
X49927100Y-77027400D01*
X46427100Y-80227400D02*
X46427100Y-77027400D01*
X49927100Y-77027400D02*
X49927100Y-80227400D01*
X49927100Y-80227400D02*
X46427100Y-80227400D01*
X30781666Y-17246353D02*
X29521066Y-17246353D01*
X31781666Y-18246353D02*
X31781666Y-37246353D01*
X32781666Y-38246353D02*
X43084666Y-38246353D01*
X43084666Y-38246353D02*
X44269066Y-38246353D01*
X45269066Y-37246353D02*
X45269066Y-18246353D01*
X46269066Y-17246353D02*
X47506066Y-17246353D01*
X31781666Y-18246353D02*
G75*
G03*
X30781666Y-17246353I-1000003J-3D01*
G01*
X31781666Y-37246353D02*
G75*
G03*
X32781666Y-38246353I1000003J3D01*
G01*
X46269066Y-17246346D02*
G75*
G03*
X45269066Y-18246353I14J-1000014D01*
G01*
X44269066Y-38246346D02*
G75*
G03*
X45269066Y-37246353I14J999986D01*
G01*
M02*
