G04 #@! TF.GenerationSoftware,KiCad,Pcbnew,7.0.9*
G04 #@! TF.CreationDate,2024-01-25T20:04:26+09:00*
G04 #@! TF.ProjectId,withTK,77697468-544b-42e6-9b69-6361645f7063,rev?*
G04 #@! TF.SameCoordinates,Original*
G04 #@! TF.FileFunction,Copper,L1,Top*
G04 #@! TF.FilePolarity,Positive*
%FSLAX46Y46*%
G04 Gerber Fmt 4.6, Leading zero omitted, Abs format (unit mm)*
G04 Created by KiCad (PCBNEW 7.0.9) date 2024-01-25 20:04:26*
%MOMM*%
%LPD*%
G01*
G04 APERTURE LIST*
G04 APERTURE END LIST*
G04 #@! TA.AperFunction,NonConductor*
G36*
X20433782Y-18044769D02*
G01*
X20488143Y-18090435D01*
X20509185Y-18158242D01*
X20509200Y-18160170D01*
X20509200Y-18974133D01*
X20489198Y-19042254D01*
X20435542Y-19088747D01*
X20383200Y-19100133D01*
X19759415Y-19100133D01*
X19691294Y-19080131D01*
X19644801Y-19026475D01*
X19634697Y-18956201D01*
X19649137Y-18913185D01*
X19720196Y-18784611D01*
X19775876Y-18683865D01*
X19779634Y-18677887D01*
X19966940Y-18413903D01*
X19971349Y-18408375D01*
X20187030Y-18167029D01*
X20192029Y-18162030D01*
X20299240Y-18066220D01*
X20363362Y-18035742D01*
X20433782Y-18044769D01*
G37*
G04 #@! TD.AperFunction*
G04 #@! TA.AperFunction,NonConductor*
G36*
X112656260Y-17327714D02*
G01*
X112927844Y-17373858D01*
X112934726Y-17375430D01*
X113245756Y-17465036D01*
X113252425Y-17467369D01*
X113399416Y-17528255D01*
X113551468Y-17591237D01*
X113557838Y-17594305D01*
X113841126Y-17750872D01*
X113847112Y-17754634D01*
X114111096Y-17941940D01*
X114116624Y-17946349D01*
X114357970Y-18162030D01*
X114362969Y-18167029D01*
X114578650Y-18408375D01*
X114583059Y-18413903D01*
X114770365Y-18677887D01*
X114774127Y-18683873D01*
X114900863Y-18913184D01*
X114916308Y-18982481D01*
X114891837Y-19049126D01*
X114835219Y-19091963D01*
X114790585Y-19100133D01*
X114509200Y-19100133D01*
X114509200Y-20974133D01*
X114489198Y-21042254D01*
X114435542Y-21088747D01*
X114383200Y-21100133D01*
X112509200Y-21100133D01*
X112509200Y-21390439D01*
X112489198Y-21458560D01*
X112435542Y-21505053D01*
X112383200Y-21516439D01*
X112362909Y-21516439D01*
X112341991Y-21520600D01*
X108635200Y-21520600D01*
X108567079Y-21500598D01*
X108520586Y-21446942D01*
X108509200Y-21394600D01*
X108509200Y-21226133D01*
X108529202Y-21158012D01*
X108582858Y-21111519D01*
X108635200Y-21100133D01*
X110509200Y-21100133D01*
X110509200Y-19226133D01*
X110529202Y-19158012D01*
X110582858Y-19111519D01*
X110635200Y-19100133D01*
X112509200Y-19100133D01*
X112509200Y-17451942D01*
X112529202Y-17383821D01*
X112582858Y-17337328D01*
X112653132Y-17327224D01*
X112656260Y-17327714D01*
G37*
G04 #@! TD.AperFunction*
G04 #@! TA.AperFunction,NonConductor*
G36*
X108451321Y-17320502D02*
G01*
X108497814Y-17374158D01*
X108509200Y-17426500D01*
X108509200Y-18974133D01*
X108489198Y-19042254D01*
X108435542Y-19088747D01*
X108383200Y-19100133D01*
X106509200Y-19100133D01*
X106509200Y-20974133D01*
X106489198Y-21042254D01*
X106435542Y-21088747D01*
X106383200Y-21100133D01*
X104509200Y-21100133D01*
X104509200Y-21394600D01*
X104489198Y-21462721D01*
X104435542Y-21509214D01*
X104383200Y-21520600D01*
X100635200Y-21520600D01*
X100567079Y-21500598D01*
X100520586Y-21446942D01*
X100509200Y-21394600D01*
X100509200Y-21226133D01*
X100529202Y-21158012D01*
X100582858Y-21111519D01*
X100635200Y-21100133D01*
X102509200Y-21100133D01*
X102509200Y-19226133D01*
X102529202Y-19158012D01*
X102582858Y-19111519D01*
X102635200Y-19100133D01*
X104509200Y-19100133D01*
X104509200Y-17426500D01*
X104529202Y-17358379D01*
X104582858Y-17311886D01*
X104635200Y-17300500D01*
X108383200Y-17300500D01*
X108451321Y-17320502D01*
G37*
G04 #@! TD.AperFunction*
G04 #@! TA.AperFunction,NonConductor*
G36*
X92451321Y-17320502D02*
G01*
X92497814Y-17374158D01*
X92509200Y-17426500D01*
X92509200Y-18974133D01*
X92489198Y-19042254D01*
X92435542Y-19088747D01*
X92383200Y-19100133D01*
X90509200Y-19100133D01*
X90509200Y-20974133D01*
X90489198Y-21042254D01*
X90435542Y-21088747D01*
X90383200Y-21100133D01*
X88509200Y-21100133D01*
X88509200Y-21394600D01*
X88489198Y-21462721D01*
X88435542Y-21509214D01*
X88383200Y-21520600D01*
X84635200Y-21520600D01*
X84567079Y-21500598D01*
X84520586Y-21446942D01*
X84509200Y-21394600D01*
X84509200Y-21226133D01*
X84529202Y-21158012D01*
X84582858Y-21111519D01*
X84635200Y-21100133D01*
X86509200Y-21100133D01*
X86509200Y-19226133D01*
X86529202Y-19158012D01*
X86582858Y-19111519D01*
X86635200Y-19100133D01*
X88509200Y-19100133D01*
X88509200Y-17426500D01*
X88529202Y-17358379D01*
X88582858Y-17311886D01*
X88635200Y-17300500D01*
X92383200Y-17300500D01*
X92451321Y-17320502D01*
G37*
G04 #@! TD.AperFunction*
G04 #@! TA.AperFunction,NonConductor*
G36*
X76451321Y-17320502D02*
G01*
X76497814Y-17374158D01*
X76509200Y-17426500D01*
X76509200Y-18974133D01*
X76489198Y-19042254D01*
X76435542Y-19088747D01*
X76383200Y-19100133D01*
X74509200Y-19100133D01*
X74509200Y-20974133D01*
X74489198Y-21042254D01*
X74435542Y-21088747D01*
X74383200Y-21100133D01*
X72509200Y-21100133D01*
X72509200Y-21394600D01*
X72489198Y-21462721D01*
X72435542Y-21509214D01*
X72383200Y-21520600D01*
X68635200Y-21520600D01*
X68567079Y-21500598D01*
X68520586Y-21446942D01*
X68509200Y-21394600D01*
X68509200Y-21226133D01*
X68529202Y-21158012D01*
X68582858Y-21111519D01*
X68635200Y-21100133D01*
X70509200Y-21100133D01*
X70509200Y-19226133D01*
X70529202Y-19158012D01*
X70582858Y-19111519D01*
X70635200Y-19100133D01*
X72509200Y-19100133D01*
X72509200Y-17426500D01*
X72529202Y-17358379D01*
X72582858Y-17311886D01*
X72635200Y-17300500D01*
X76383200Y-17300500D01*
X76451321Y-17320502D01*
G37*
G04 #@! TD.AperFunction*
G04 #@! TA.AperFunction,NonConductor*
G36*
X68451321Y-17320502D02*
G01*
X68497814Y-17374158D01*
X68509200Y-17426500D01*
X68509200Y-18974133D01*
X68489198Y-19042254D01*
X68435542Y-19088747D01*
X68383200Y-19100133D01*
X66509200Y-19100133D01*
X66509200Y-20974133D01*
X66489198Y-21042254D01*
X66435542Y-21088747D01*
X66383200Y-21100133D01*
X64509200Y-21100133D01*
X64509200Y-21394600D01*
X64489198Y-21462721D01*
X64435542Y-21509214D01*
X64383200Y-21520600D01*
X60635200Y-21520600D01*
X60567079Y-21500598D01*
X60520586Y-21446942D01*
X60509200Y-21394600D01*
X60509200Y-21226133D01*
X60529202Y-21158012D01*
X60582858Y-21111519D01*
X60635200Y-21100133D01*
X62509200Y-21100133D01*
X62509200Y-19226133D01*
X62529202Y-19158012D01*
X62582858Y-19111519D01*
X62635200Y-19100133D01*
X64509200Y-19100133D01*
X64509200Y-17426500D01*
X64529202Y-17358379D01*
X64582858Y-17311886D01*
X64635200Y-17300500D01*
X68383200Y-17300500D01*
X68451321Y-17320502D01*
G37*
G04 #@! TD.AperFunction*
G04 #@! TA.AperFunction,NonConductor*
G36*
X100451321Y-17320502D02*
G01*
X100497814Y-17374158D01*
X100509200Y-17426500D01*
X100509200Y-18974133D01*
X100489198Y-19042254D01*
X100435542Y-19088747D01*
X100383200Y-19100133D01*
X98509200Y-19100133D01*
X98509200Y-20974133D01*
X98489198Y-21042254D01*
X98435542Y-21088747D01*
X98383200Y-21100133D01*
X96509200Y-21100133D01*
X96509200Y-22974133D01*
X96489198Y-23042254D01*
X96435542Y-23088747D01*
X96383200Y-23100133D01*
X94509200Y-23100133D01*
X94509200Y-24974133D01*
X94489198Y-25042254D01*
X94435542Y-25088747D01*
X94383200Y-25100133D01*
X93503600Y-25100133D01*
X93435479Y-25080131D01*
X93388986Y-25026475D01*
X93377600Y-24974133D01*
X93377600Y-21606209D01*
X93381761Y-21585293D01*
X93381761Y-21571101D01*
X93381761Y-21571100D01*
X93365751Y-21532449D01*
X93337145Y-21520600D01*
X93327100Y-21516439D01*
X93312909Y-21516439D01*
X93291991Y-21520600D01*
X92635200Y-21520600D01*
X92567079Y-21500598D01*
X92520586Y-21446942D01*
X92509200Y-21394600D01*
X92509200Y-21226133D01*
X92529202Y-21158012D01*
X92582858Y-21111519D01*
X92635200Y-21100133D01*
X94509200Y-21100133D01*
X94509200Y-19226133D01*
X94529202Y-19158012D01*
X94582858Y-19111519D01*
X94635200Y-19100133D01*
X96509200Y-19100133D01*
X96509200Y-17426500D01*
X96529202Y-17358379D01*
X96582858Y-17311886D01*
X96635200Y-17300500D01*
X100383200Y-17300500D01*
X100451321Y-17320502D01*
G37*
G04 #@! TD.AperFunction*
G04 #@! TA.AperFunction,NonConductor*
G36*
X28451321Y-17320502D02*
G01*
X28497814Y-17374158D01*
X28509200Y-17426500D01*
X28509200Y-18974133D01*
X28489198Y-19042254D01*
X28435542Y-19088747D01*
X28383200Y-19100133D01*
X26509200Y-19100133D01*
X26509200Y-20974133D01*
X26489198Y-21042254D01*
X26435542Y-21088747D01*
X26383200Y-21100133D01*
X24509200Y-21100133D01*
X24509200Y-22974133D01*
X24489198Y-23042254D01*
X24435542Y-23088747D01*
X24383200Y-23100133D01*
X22509200Y-23100133D01*
X22509200Y-24974133D01*
X22489198Y-25042254D01*
X22435542Y-25088747D01*
X22383200Y-25100133D01*
X20509200Y-25100133D01*
X20509200Y-26974133D01*
X20489198Y-27042254D01*
X20435542Y-27088747D01*
X20383200Y-27100133D01*
X19451500Y-27100133D01*
X19383379Y-27080131D01*
X19336886Y-27026475D01*
X19325500Y-26974133D01*
X19325500Y-23226133D01*
X19345502Y-23158012D01*
X19399158Y-23111519D01*
X19451500Y-23100133D01*
X20509200Y-23100133D01*
X20509200Y-21226133D01*
X20529202Y-21158012D01*
X20582858Y-21111519D01*
X20635200Y-21100133D01*
X22509200Y-21100133D01*
X22509200Y-19226133D01*
X22529202Y-19158012D01*
X22582858Y-19111519D01*
X22635200Y-19100133D01*
X24509200Y-19100133D01*
X24509200Y-17426500D01*
X24529202Y-17358379D01*
X24582858Y-17311886D01*
X24635200Y-17300500D01*
X28383200Y-17300500D01*
X28451321Y-17320502D01*
G37*
G04 #@! TD.AperFunction*
G04 #@! TA.AperFunction,NonConductor*
G36*
X84451321Y-17320502D02*
G01*
X84497814Y-17374158D01*
X84509200Y-17426500D01*
X84509200Y-18974133D01*
X84489198Y-19042254D01*
X84435542Y-19088747D01*
X84383200Y-19100133D01*
X82509200Y-19100133D01*
X82509200Y-20974133D01*
X82489198Y-21042254D01*
X82435542Y-21088747D01*
X82383200Y-21100133D01*
X80509200Y-21100133D01*
X80509200Y-21394600D01*
X80489198Y-21462721D01*
X80435542Y-21509214D01*
X80383200Y-21520600D01*
X79262209Y-21520600D01*
X79241291Y-21516439D01*
X79227100Y-21516439D01*
X79217055Y-21520600D01*
X79188450Y-21532448D01*
X79188449Y-21532448D01*
X79188449Y-21532449D01*
X79172439Y-21571100D01*
X79172439Y-21571101D01*
X79172439Y-21585293D01*
X79176600Y-21606209D01*
X79176600Y-22974133D01*
X79156598Y-23042254D01*
X79102942Y-23088747D01*
X79050600Y-23100133D01*
X78509200Y-23100133D01*
X78509200Y-24974133D01*
X78489198Y-25042254D01*
X78435542Y-25088747D01*
X78383200Y-25100133D01*
X76509200Y-25100133D01*
X76509200Y-26974133D01*
X76489198Y-27042254D01*
X76435542Y-27088747D01*
X76383200Y-27100133D01*
X74481354Y-27100133D01*
X74480383Y-27100663D01*
X74472973Y-27100133D01*
X74457009Y-27100133D01*
X74457009Y-27098991D01*
X74409568Y-27095598D01*
X74352732Y-27053051D01*
X74327921Y-26986531D01*
X74327600Y-26977542D01*
X74327600Y-25226133D01*
X74347602Y-25158012D01*
X74401258Y-25111519D01*
X74453600Y-25100133D01*
X74509200Y-25100133D01*
X74509200Y-23226133D01*
X74529202Y-23158012D01*
X74582858Y-23111519D01*
X74635200Y-23100133D01*
X76509200Y-23100133D01*
X76509200Y-21226133D01*
X76529202Y-21158012D01*
X76582858Y-21111519D01*
X76635200Y-21100133D01*
X78509200Y-21100133D01*
X78509200Y-19226133D01*
X78529202Y-19158012D01*
X78582858Y-19111519D01*
X78635200Y-19100133D01*
X80509200Y-19100133D01*
X80509200Y-17426500D01*
X80529202Y-17358379D01*
X80582858Y-17311886D01*
X80635200Y-17300500D01*
X84383200Y-17300500D01*
X84451321Y-17320502D01*
G37*
G04 #@! TD.AperFunction*
G04 #@! TA.AperFunction,NonConductor*
G36*
X115166621Y-23120135D02*
G01*
X115213114Y-23173791D01*
X115224500Y-23226133D01*
X115224500Y-26974133D01*
X115204498Y-27042254D01*
X115150842Y-27088747D01*
X115098500Y-27100133D01*
X114509200Y-27100133D01*
X114509200Y-28974133D01*
X114489198Y-29042254D01*
X114435542Y-29088747D01*
X114383200Y-29100133D01*
X112553600Y-29100133D01*
X112485479Y-29080131D01*
X112438986Y-29026475D01*
X112427600Y-28974133D01*
X112427600Y-27226133D01*
X112447602Y-27158012D01*
X112475467Y-27133866D01*
X112509200Y-27100134D01*
X112509200Y-25226133D01*
X112529202Y-25158012D01*
X112582858Y-25111519D01*
X112635200Y-25100133D01*
X114509200Y-25100133D01*
X114509200Y-23226133D01*
X114529202Y-23158012D01*
X114582858Y-23111519D01*
X114635200Y-23100133D01*
X115098500Y-23100133D01*
X115166621Y-23120135D01*
G37*
G04 #@! TD.AperFunction*
G04 #@! TA.AperFunction,NonConductor*
G36*
X98168721Y-25120135D02*
G01*
X98215214Y-25173791D01*
X98226600Y-25226133D01*
X98226600Y-28974133D01*
X98206598Y-29042254D01*
X98152942Y-29088747D01*
X98100600Y-29100133D01*
X96509200Y-29100133D01*
X96509200Y-30974133D01*
X96489198Y-31042254D01*
X96435542Y-31088747D01*
X96383200Y-31100133D01*
X94509200Y-31100133D01*
X94509200Y-32974133D01*
X94489198Y-33042254D01*
X94435542Y-33088747D01*
X94383200Y-33100133D01*
X93503600Y-33100133D01*
X93435479Y-33080131D01*
X93388986Y-33026475D01*
X93377600Y-32974133D01*
X93377600Y-29226133D01*
X93397602Y-29158012D01*
X93451258Y-29111519D01*
X93503600Y-29100133D01*
X94509200Y-29100133D01*
X94509200Y-27226133D01*
X94529202Y-27158012D01*
X94582858Y-27111519D01*
X94635200Y-27100133D01*
X96509200Y-27100133D01*
X96509200Y-25226133D01*
X96529202Y-25158012D01*
X96582858Y-25111519D01*
X96635200Y-25100133D01*
X98100600Y-25100133D01*
X98168721Y-25120135D01*
G37*
G04 #@! TD.AperFunction*
G04 #@! TA.AperFunction,NonConductor*
G36*
X36451321Y-17320502D02*
G01*
X36497814Y-17374158D01*
X36509200Y-17426500D01*
X36509200Y-18974133D01*
X36489198Y-19042254D01*
X36435542Y-19088747D01*
X36383200Y-19100133D01*
X34509200Y-19100133D01*
X34509200Y-20974133D01*
X34489198Y-21042254D01*
X34435542Y-21088747D01*
X34383200Y-21100133D01*
X32509200Y-21100133D01*
X32509200Y-22974133D01*
X32489198Y-23042254D01*
X32435542Y-23088747D01*
X32383200Y-23100133D01*
X30509200Y-23100133D01*
X30509200Y-24974133D01*
X30489198Y-25042254D01*
X30435542Y-25088747D01*
X30383200Y-25100133D01*
X28509200Y-25100133D01*
X28509200Y-26974133D01*
X28489198Y-27042254D01*
X28435542Y-27088747D01*
X28383200Y-27100133D01*
X26509200Y-27100133D01*
X26509200Y-28974133D01*
X26489198Y-29042254D01*
X26435542Y-29088747D01*
X26383200Y-29100133D01*
X24509200Y-29100133D01*
X24509200Y-30974133D01*
X24489198Y-31042254D01*
X24435542Y-31088747D01*
X24383200Y-31100133D01*
X22509200Y-31100133D01*
X22509200Y-32974133D01*
X22489198Y-33042254D01*
X22435542Y-33088747D01*
X22383200Y-33100133D01*
X20509200Y-33100133D01*
X20509200Y-34974133D01*
X20489198Y-35042254D01*
X20435542Y-35088747D01*
X20383200Y-35100133D01*
X19451500Y-35100133D01*
X19383379Y-35080131D01*
X19336886Y-35026475D01*
X19325500Y-34974133D01*
X19325500Y-31226133D01*
X19345502Y-31158012D01*
X19399158Y-31111519D01*
X19451500Y-31100133D01*
X20509200Y-31100133D01*
X20509200Y-29226133D01*
X20529202Y-29158012D01*
X20582858Y-29111519D01*
X20635200Y-29100133D01*
X22509200Y-29100133D01*
X22509200Y-27226133D01*
X22529202Y-27158012D01*
X22582858Y-27111519D01*
X22635200Y-27100133D01*
X24509200Y-27100133D01*
X24509200Y-25226133D01*
X24529202Y-25158012D01*
X24582858Y-25111519D01*
X24635200Y-25100133D01*
X26509200Y-25100133D01*
X26509200Y-23226133D01*
X26529202Y-23158012D01*
X26582858Y-23111519D01*
X26635200Y-23100133D01*
X28509200Y-23100133D01*
X28509200Y-21226133D01*
X28529202Y-21158012D01*
X28582858Y-21111519D01*
X28635200Y-21100133D01*
X30509200Y-21100133D01*
X30509200Y-19226133D01*
X30529202Y-19158012D01*
X30582858Y-19111519D01*
X30635200Y-19100133D01*
X32509200Y-19100133D01*
X32509200Y-17426500D01*
X32529202Y-17358379D01*
X32582858Y-17311886D01*
X32635200Y-17300500D01*
X36383200Y-17300500D01*
X36451321Y-17320502D01*
G37*
G04 #@! TD.AperFunction*
G04 #@! TA.AperFunction,NonConductor*
G36*
X79118721Y-27120135D02*
G01*
X79165214Y-27173791D01*
X79176600Y-27226133D01*
X79176600Y-30974133D01*
X79156598Y-31042254D01*
X79102942Y-31088747D01*
X79050600Y-31100133D01*
X78509200Y-31100133D01*
X78509200Y-32974133D01*
X78489198Y-33042254D01*
X78435542Y-33088747D01*
X78383200Y-33100133D01*
X76509200Y-33100133D01*
X76509200Y-34974133D01*
X76489198Y-35042254D01*
X76435542Y-35088747D01*
X76383200Y-35100133D01*
X74481354Y-35100133D01*
X74480383Y-35100663D01*
X74472973Y-35100133D01*
X74457009Y-35100133D01*
X74457009Y-35098991D01*
X74409568Y-35095598D01*
X74352732Y-35053051D01*
X74327921Y-34986531D01*
X74327600Y-34977542D01*
X74327600Y-33226133D01*
X74347602Y-33158012D01*
X74401258Y-33111519D01*
X74453600Y-33100133D01*
X74509200Y-33100133D01*
X74509200Y-31226133D01*
X74529202Y-31158012D01*
X74582858Y-31111519D01*
X74635200Y-31100133D01*
X76509200Y-31100133D01*
X76509200Y-29226133D01*
X76529202Y-29158012D01*
X76582858Y-29111519D01*
X76635200Y-29100133D01*
X78509200Y-29100133D01*
X78509200Y-27226133D01*
X78529202Y-27158012D01*
X78582858Y-27111519D01*
X78635200Y-27100133D01*
X79050600Y-27100133D01*
X79118721Y-27120135D01*
G37*
G04 #@! TD.AperFunction*
G04 #@! TA.AperFunction,NonConductor*
G36*
X115166621Y-31120135D02*
G01*
X115213114Y-31173791D01*
X115224500Y-31226133D01*
X115224500Y-34974133D01*
X115204498Y-35042254D01*
X115150842Y-35088747D01*
X115098500Y-35100133D01*
X114509200Y-35100133D01*
X114509200Y-36974133D01*
X114489198Y-37042254D01*
X114435542Y-37088747D01*
X114383200Y-37100133D01*
X112509200Y-37100133D01*
X112509200Y-38974133D01*
X112489198Y-39042254D01*
X112435542Y-39088747D01*
X112383200Y-39100133D01*
X110509200Y-39100133D01*
X110509200Y-40444600D01*
X110489198Y-40512721D01*
X110435542Y-40559214D01*
X110383200Y-40570600D01*
X106635200Y-40570600D01*
X106567079Y-40550598D01*
X106520586Y-40496942D01*
X106509200Y-40444600D01*
X106509200Y-39226133D01*
X106529202Y-39158012D01*
X106582858Y-39111519D01*
X106635200Y-39100133D01*
X108509200Y-39100133D01*
X108509200Y-37226133D01*
X108529202Y-37158012D01*
X108582858Y-37111519D01*
X108635200Y-37100133D01*
X110509200Y-37100133D01*
X110509200Y-35847600D01*
X110529202Y-35779479D01*
X110582858Y-35732986D01*
X110635200Y-35721600D01*
X112341990Y-35721600D01*
X112362908Y-35725761D01*
X112377098Y-35725761D01*
X112377099Y-35725760D01*
X112377100Y-35725761D01*
X112415751Y-35709751D01*
X112427600Y-35681145D01*
X112431761Y-35671100D01*
X112431761Y-35671099D01*
X112431761Y-35656912D01*
X112427600Y-35635992D01*
X112427600Y-35226133D01*
X112447602Y-35158012D01*
X112475467Y-35133866D01*
X112509200Y-35100134D01*
X112509200Y-33226133D01*
X112529202Y-33158012D01*
X112582858Y-33111519D01*
X112635200Y-33100133D01*
X114509200Y-33100133D01*
X114509200Y-31226133D01*
X114529202Y-31158012D01*
X114582858Y-31111519D01*
X114635200Y-31100133D01*
X115098500Y-31100133D01*
X115166621Y-31120135D01*
G37*
G04 #@! TD.AperFunction*
G04 #@! TA.AperFunction,NonConductor*
G36*
X106451321Y-35741602D02*
G01*
X106497814Y-35795258D01*
X106509200Y-35847600D01*
X106509200Y-36974133D01*
X106489198Y-37042254D01*
X106435542Y-37088747D01*
X106383200Y-37100133D01*
X104509200Y-37100133D01*
X104509200Y-38974133D01*
X104489198Y-39042254D01*
X104435542Y-39088747D01*
X104383200Y-39100133D01*
X102509200Y-39100133D01*
X102509200Y-40444600D01*
X102489198Y-40512721D01*
X102435542Y-40559214D01*
X102383200Y-40570600D01*
X98635200Y-40570600D01*
X98567079Y-40550598D01*
X98520586Y-40496942D01*
X98509200Y-40444600D01*
X98509200Y-39226133D01*
X98529202Y-39158012D01*
X98582858Y-39111519D01*
X98635200Y-39100133D01*
X100509200Y-39100133D01*
X100509200Y-37226133D01*
X100529202Y-37158012D01*
X100582858Y-37111519D01*
X100635200Y-37100133D01*
X102509200Y-37100133D01*
X102509200Y-35847600D01*
X102529202Y-35779479D01*
X102582858Y-35732986D01*
X102635200Y-35721600D01*
X106383200Y-35721600D01*
X106451321Y-35741602D01*
G37*
G04 #@! TD.AperFunction*
G04 #@! TA.AperFunction,NonConductor*
G36*
X90451321Y-35741602D02*
G01*
X90497814Y-35795258D01*
X90509200Y-35847600D01*
X90509200Y-36974133D01*
X90489198Y-37042254D01*
X90435542Y-37088747D01*
X90383200Y-37100133D01*
X88509200Y-37100133D01*
X88509200Y-38974133D01*
X88489198Y-39042254D01*
X88435542Y-39088747D01*
X88383200Y-39100133D01*
X86509200Y-39100133D01*
X86509200Y-40444600D01*
X86489198Y-40512721D01*
X86435542Y-40559214D01*
X86383200Y-40570600D01*
X82635200Y-40570600D01*
X82567079Y-40550598D01*
X82520586Y-40496942D01*
X82509200Y-40444600D01*
X82509200Y-39226133D01*
X82529202Y-39158012D01*
X82582858Y-39111519D01*
X82635200Y-39100133D01*
X84509200Y-39100133D01*
X84509200Y-37226133D01*
X84529202Y-37158012D01*
X84582858Y-37111519D01*
X84635200Y-37100133D01*
X86509200Y-37100133D01*
X86509200Y-35847600D01*
X86529202Y-35779479D01*
X86582858Y-35732986D01*
X86635200Y-35721600D01*
X90383200Y-35721600D01*
X90451321Y-35741602D01*
G37*
G04 #@! TD.AperFunction*
G04 #@! TA.AperFunction,NonConductor*
G36*
X74469057Y-35725973D02*
G01*
X74505286Y-35787031D01*
X74509200Y-35818193D01*
X74509200Y-36974133D01*
X74489198Y-37042254D01*
X74435542Y-37088747D01*
X74383200Y-37100133D01*
X72509200Y-37100133D01*
X72509200Y-38974133D01*
X72489198Y-39042254D01*
X72435542Y-39088747D01*
X72383200Y-39100133D01*
X70509200Y-39100133D01*
X70509200Y-40444600D01*
X70489198Y-40512721D01*
X70435542Y-40559214D01*
X70383200Y-40570600D01*
X66635200Y-40570600D01*
X66567079Y-40550598D01*
X66520586Y-40496942D01*
X66509200Y-40444600D01*
X66509200Y-39226133D01*
X66529202Y-39158012D01*
X66582858Y-39111519D01*
X66635200Y-39100133D01*
X68509200Y-39100133D01*
X68509200Y-37226133D01*
X68529202Y-37158012D01*
X68582858Y-37111519D01*
X68635200Y-37100133D01*
X70509200Y-37100133D01*
X70509200Y-35847600D01*
X70529202Y-35779479D01*
X70582858Y-35732986D01*
X70635200Y-35721600D01*
X74241990Y-35721600D01*
X74262908Y-35725761D01*
X74277099Y-35725761D01*
X74277099Y-35725760D01*
X74277100Y-35725761D01*
X74315751Y-35709751D01*
X74315751Y-35709750D01*
X74334980Y-35701785D01*
X74405570Y-35694195D01*
X74469057Y-35725973D01*
G37*
G04 #@! TD.AperFunction*
G04 #@! TA.AperFunction,NonConductor*
G36*
X98168721Y-33120135D02*
G01*
X98215214Y-33173791D01*
X98226600Y-33226133D01*
X98226600Y-35635992D01*
X98222439Y-35656912D01*
X98222439Y-35671099D01*
X98226600Y-35681144D01*
X98238448Y-35709750D01*
X98238449Y-35709751D01*
X98277100Y-35725761D01*
X98277100Y-35725760D01*
X98277102Y-35725761D01*
X98291292Y-35725761D01*
X98312210Y-35721600D01*
X98383200Y-35721600D01*
X98451321Y-35741602D01*
X98497814Y-35795258D01*
X98509200Y-35847600D01*
X98509200Y-36974133D01*
X98489198Y-37042254D01*
X98435542Y-37088747D01*
X98383200Y-37100133D01*
X96509200Y-37100133D01*
X96509200Y-38974133D01*
X96489198Y-39042254D01*
X96435542Y-39088747D01*
X96383200Y-39100133D01*
X94509200Y-39100133D01*
X94509200Y-40974133D01*
X94489198Y-41042254D01*
X94435542Y-41088747D01*
X94383200Y-41100133D01*
X93503600Y-41100133D01*
X93435479Y-41080131D01*
X93388986Y-41026475D01*
X93377600Y-40974133D01*
X93377600Y-40656209D01*
X93381761Y-40635293D01*
X93381761Y-40621101D01*
X93381761Y-40621100D01*
X93365751Y-40582449D01*
X93337145Y-40570600D01*
X93327100Y-40566439D01*
X93312909Y-40566439D01*
X93291991Y-40570600D01*
X90635200Y-40570600D01*
X90567079Y-40550598D01*
X90520586Y-40496942D01*
X90509200Y-40444600D01*
X90509200Y-39226133D01*
X90529202Y-39158012D01*
X90582858Y-39111519D01*
X90635200Y-39100133D01*
X92509200Y-39100133D01*
X92509200Y-37226133D01*
X92529202Y-37158012D01*
X92582858Y-37111519D01*
X92635200Y-37100133D01*
X94509200Y-37100133D01*
X94509200Y-35226133D01*
X94529202Y-35158012D01*
X94582858Y-35111519D01*
X94635200Y-35100133D01*
X96509200Y-35100133D01*
X96509200Y-33226133D01*
X96529202Y-33158012D01*
X96582858Y-33111519D01*
X96635200Y-33100133D01*
X98100600Y-33100133D01*
X98168721Y-33120135D01*
G37*
G04 #@! TD.AperFunction*
G04 #@! TA.AperFunction,NonConductor*
G36*
X44451321Y-17320502D02*
G01*
X44497814Y-17374158D01*
X44509200Y-17426500D01*
X44509200Y-18974133D01*
X44489198Y-19042254D01*
X44435542Y-19088747D01*
X44383200Y-19100133D01*
X42509200Y-19100133D01*
X42509200Y-20974133D01*
X42489198Y-21042254D01*
X42435542Y-21088747D01*
X42383200Y-21100133D01*
X40509200Y-21100133D01*
X40509200Y-22974133D01*
X40489198Y-23042254D01*
X40435542Y-23088747D01*
X40383200Y-23100133D01*
X38509200Y-23100133D01*
X38509200Y-24974133D01*
X38489198Y-25042254D01*
X38435542Y-25088747D01*
X38383200Y-25100133D01*
X36509200Y-25100133D01*
X36509200Y-26974133D01*
X36489198Y-27042254D01*
X36435542Y-27088747D01*
X36383200Y-27100133D01*
X34509200Y-27100133D01*
X34509200Y-28974133D01*
X34489198Y-29042254D01*
X34435542Y-29088747D01*
X34383200Y-29100133D01*
X32509200Y-29100133D01*
X32509200Y-30974133D01*
X32489198Y-31042254D01*
X32435542Y-31088747D01*
X32383200Y-31100133D01*
X30509200Y-31100133D01*
X30509200Y-32974133D01*
X30489198Y-33042254D01*
X30435542Y-33088747D01*
X30383200Y-33100133D01*
X28509200Y-33100133D01*
X28509200Y-34974133D01*
X28489198Y-35042254D01*
X28435542Y-35088747D01*
X28383200Y-35100133D01*
X26509200Y-35100133D01*
X26509200Y-36974133D01*
X26489198Y-37042254D01*
X26435542Y-37088747D01*
X26383200Y-37100133D01*
X24509200Y-37100133D01*
X24509200Y-38974133D01*
X24489198Y-39042254D01*
X24435542Y-39088747D01*
X24383200Y-39100133D01*
X22509200Y-39100133D01*
X22509200Y-40974133D01*
X22489198Y-41042254D01*
X22435542Y-41088747D01*
X22383200Y-41100133D01*
X20509200Y-41100133D01*
X20509200Y-42974133D01*
X20489198Y-43042254D01*
X20435542Y-43088747D01*
X20383200Y-43100133D01*
X19451500Y-43100133D01*
X19383379Y-43080131D01*
X19336886Y-43026475D01*
X19325500Y-42974133D01*
X19325500Y-39226133D01*
X19345502Y-39158012D01*
X19399158Y-39111519D01*
X19451500Y-39100133D01*
X20509200Y-39100133D01*
X20509200Y-37226133D01*
X20529202Y-37158012D01*
X20582858Y-37111519D01*
X20635200Y-37100133D01*
X22509200Y-37100133D01*
X22509200Y-35226133D01*
X22529202Y-35158012D01*
X22582858Y-35111519D01*
X22635200Y-35100133D01*
X24509200Y-35100133D01*
X24509200Y-33226133D01*
X24529202Y-33158012D01*
X24582858Y-33111519D01*
X24635200Y-33100133D01*
X26509200Y-33100133D01*
X26509200Y-31226133D01*
X26529202Y-31158012D01*
X26582858Y-31111519D01*
X26635200Y-31100133D01*
X28509200Y-31100133D01*
X28509200Y-29226133D01*
X28529202Y-29158012D01*
X28582858Y-29111519D01*
X28635200Y-29100133D01*
X30509200Y-29100133D01*
X30509200Y-27226133D01*
X30529202Y-27158012D01*
X30582858Y-27111519D01*
X30635200Y-27100133D01*
X32509200Y-27100133D01*
X32509200Y-25226133D01*
X32529202Y-25158012D01*
X32582858Y-25111519D01*
X32635200Y-25100133D01*
X34509200Y-25100133D01*
X34509200Y-23226133D01*
X34529202Y-23158012D01*
X34582858Y-23111519D01*
X34635200Y-23100133D01*
X36509200Y-23100133D01*
X36509200Y-21226133D01*
X36529202Y-21158012D01*
X36582858Y-21111519D01*
X36635200Y-21100133D01*
X38509200Y-21100133D01*
X38509200Y-19226133D01*
X38529202Y-19158012D01*
X38582858Y-19111519D01*
X38635200Y-19100133D01*
X40509200Y-19100133D01*
X40509200Y-17426500D01*
X40529202Y-17358379D01*
X40582858Y-17311886D01*
X40635200Y-17300500D01*
X44383200Y-17300500D01*
X44451321Y-17320502D01*
G37*
G04 #@! TD.AperFunction*
G04 #@! TA.AperFunction,NonConductor*
G36*
X79118721Y-35120135D02*
G01*
X79165214Y-35173791D01*
X79176600Y-35226133D01*
X79176600Y-35635992D01*
X79172439Y-35656912D01*
X79172439Y-35671099D01*
X79176600Y-35681144D01*
X79188448Y-35709750D01*
X79188449Y-35709751D01*
X79227100Y-35725761D01*
X79227100Y-35725760D01*
X79227102Y-35725761D01*
X79241292Y-35725761D01*
X79262210Y-35721600D01*
X82383200Y-35721600D01*
X82451321Y-35741602D01*
X82497814Y-35795258D01*
X82509200Y-35847600D01*
X82509200Y-36974133D01*
X82489198Y-37042254D01*
X82435542Y-37088747D01*
X82383200Y-37100133D01*
X80509200Y-37100133D01*
X80509200Y-38974133D01*
X80489198Y-39042254D01*
X80435542Y-39088747D01*
X80383200Y-39100133D01*
X78509200Y-39100133D01*
X78509200Y-40974133D01*
X78489198Y-41042254D01*
X78435542Y-41088747D01*
X78383200Y-41100133D01*
X76509200Y-41100133D01*
X76509200Y-42974133D01*
X76489198Y-43042254D01*
X76435542Y-43088747D01*
X76383200Y-43100133D01*
X74481354Y-43100133D01*
X74480383Y-43100663D01*
X74472973Y-43100133D01*
X74457009Y-43100133D01*
X74457009Y-43098991D01*
X74409568Y-43095598D01*
X74352732Y-43053051D01*
X74327921Y-42986531D01*
X74327600Y-42977542D01*
X74327600Y-41226133D01*
X74347602Y-41158012D01*
X74401258Y-41111519D01*
X74453600Y-41100133D01*
X74509200Y-41100133D01*
X74509200Y-39226133D01*
X74529202Y-39158012D01*
X74582858Y-39111519D01*
X74635200Y-39100133D01*
X76509200Y-39100133D01*
X76509200Y-37226133D01*
X76529202Y-37158012D01*
X76582858Y-37111519D01*
X76635200Y-37100133D01*
X78509200Y-37100133D01*
X78509200Y-35226133D01*
X78529202Y-35158012D01*
X78582858Y-35111519D01*
X78635200Y-35100133D01*
X79050600Y-35100133D01*
X79118721Y-35120135D01*
G37*
G04 #@! TD.AperFunction*
G04 #@! TA.AperFunction,NonConductor*
G36*
X115166621Y-39120135D02*
G01*
X115213114Y-39173791D01*
X115224500Y-39226133D01*
X115224500Y-42974133D01*
X115204498Y-43042254D01*
X115150842Y-43088747D01*
X115098500Y-43100133D01*
X114509200Y-43100133D01*
X114509200Y-44974133D01*
X114489198Y-45042254D01*
X114435542Y-45088747D01*
X114383200Y-45100133D01*
X112553600Y-45100133D01*
X112485479Y-45080131D01*
X112438986Y-45026475D01*
X112427600Y-44974133D01*
X112427600Y-43226133D01*
X112447602Y-43158012D01*
X112475467Y-43133866D01*
X112509200Y-43100134D01*
X112509200Y-41226133D01*
X112529202Y-41158012D01*
X112582858Y-41111519D01*
X112635200Y-41100133D01*
X114509200Y-41100133D01*
X114509200Y-39226133D01*
X114529202Y-39158012D01*
X114582858Y-39111519D01*
X114635200Y-39100133D01*
X115098500Y-39100133D01*
X115166621Y-39120135D01*
G37*
G04 #@! TD.AperFunction*
G04 #@! TA.AperFunction,NonConductor*
G36*
X66451321Y-35741602D02*
G01*
X66497814Y-35795258D01*
X66509200Y-35847600D01*
X66509200Y-36974133D01*
X66489198Y-37042254D01*
X66435542Y-37088747D01*
X66383200Y-37100133D01*
X64509200Y-37100133D01*
X64509200Y-38974133D01*
X64489198Y-39042254D01*
X64435542Y-39088747D01*
X64383200Y-39100133D01*
X62509200Y-39100133D01*
X62509200Y-40444600D01*
X62489198Y-40512721D01*
X62435542Y-40559214D01*
X62383200Y-40570600D01*
X60212209Y-40570600D01*
X60191291Y-40566439D01*
X60177100Y-40566439D01*
X60167055Y-40570600D01*
X60138450Y-40582448D01*
X60138449Y-40582448D01*
X60138449Y-40582449D01*
X60122439Y-40621100D01*
X60122439Y-40621101D01*
X60122439Y-40635293D01*
X60126600Y-40656209D01*
X60126600Y-42974133D01*
X60106598Y-43042254D01*
X60052942Y-43088747D01*
X60000600Y-43100133D01*
X58509200Y-43100133D01*
X58509200Y-44974133D01*
X58489198Y-45042254D01*
X58435542Y-45088747D01*
X58383200Y-45100133D01*
X56509200Y-45100133D01*
X56509200Y-46974133D01*
X56489198Y-47042254D01*
X56435542Y-47088747D01*
X56383200Y-47100133D01*
X54509200Y-47100133D01*
X54509200Y-47588400D01*
X54489198Y-47656521D01*
X54435542Y-47703014D01*
X54383200Y-47714400D01*
X50635200Y-47714400D01*
X50567079Y-47694398D01*
X50520586Y-47640742D01*
X50509200Y-47588400D01*
X50509200Y-47226133D01*
X50529202Y-47158012D01*
X50582858Y-47111519D01*
X50635200Y-47100133D01*
X52509200Y-47100133D01*
X52509200Y-45226133D01*
X52529202Y-45158012D01*
X52582858Y-45111519D01*
X52635200Y-45100133D01*
X54509200Y-45100133D01*
X54509200Y-43226133D01*
X54529202Y-43158012D01*
X54582858Y-43111519D01*
X54635200Y-43100133D01*
X56509200Y-43100133D01*
X56509200Y-41226133D01*
X56529202Y-41158012D01*
X56582858Y-41111519D01*
X56635200Y-41100133D01*
X58509200Y-41100133D01*
X58509200Y-39226133D01*
X58529202Y-39158012D01*
X58582858Y-39111519D01*
X58635200Y-39100133D01*
X60509200Y-39100133D01*
X60509200Y-37226133D01*
X60529202Y-37158012D01*
X60582858Y-37111519D01*
X60635200Y-37100133D01*
X62509200Y-37100133D01*
X62509200Y-35847600D01*
X62529202Y-35779479D01*
X62582858Y-35732986D01*
X62635200Y-35721600D01*
X66383200Y-35721600D01*
X66451321Y-35741602D01*
G37*
G04 #@! TD.AperFunction*
G04 #@! TA.AperFunction,NonConductor*
G36*
X60068721Y-31120135D02*
G01*
X60115214Y-31173791D01*
X60126600Y-31226133D01*
X60126600Y-34974133D01*
X60106598Y-35042254D01*
X60052942Y-35088747D01*
X60000600Y-35100133D01*
X58509200Y-35100133D01*
X58509200Y-36974133D01*
X58489198Y-37042254D01*
X58435542Y-37088747D01*
X58383200Y-37100133D01*
X56509200Y-37100133D01*
X56509200Y-38974133D01*
X56489198Y-39042254D01*
X56435542Y-39088747D01*
X56383200Y-39100133D01*
X54509200Y-39100133D01*
X54509200Y-40974133D01*
X54489198Y-41042254D01*
X54435542Y-41088747D01*
X54383200Y-41100133D01*
X52509200Y-41100133D01*
X52509200Y-42974133D01*
X52489198Y-43042254D01*
X52435542Y-43088747D01*
X52383200Y-43100133D01*
X50509200Y-43100133D01*
X50509200Y-44974133D01*
X50489198Y-45042254D01*
X50435542Y-45088747D01*
X50383200Y-45100133D01*
X48509200Y-45100133D01*
X48509200Y-46974133D01*
X48489198Y-47042254D01*
X48435542Y-47088747D01*
X48383200Y-47100133D01*
X46509200Y-47100133D01*
X46509200Y-47588400D01*
X46489198Y-47656521D01*
X46435542Y-47703014D01*
X46383200Y-47714400D01*
X42635200Y-47714400D01*
X42567079Y-47694398D01*
X42520586Y-47640742D01*
X42509200Y-47588400D01*
X42509200Y-47226133D01*
X42529202Y-47158012D01*
X42582858Y-47111519D01*
X42635200Y-47100133D01*
X44509200Y-47100133D01*
X44509200Y-45226133D01*
X44529202Y-45158012D01*
X44582858Y-45111519D01*
X44635200Y-45100133D01*
X46509200Y-45100133D01*
X46509200Y-43226133D01*
X46529202Y-43158012D01*
X46582858Y-43111519D01*
X46635200Y-43100133D01*
X48509200Y-43100133D01*
X48509200Y-41226133D01*
X48529202Y-41158012D01*
X48582858Y-41111519D01*
X48635200Y-41100133D01*
X50509200Y-41100133D01*
X50509200Y-39226133D01*
X50529202Y-39158012D01*
X50582858Y-39111519D01*
X50635200Y-39100133D01*
X52509200Y-39100133D01*
X52509200Y-37226133D01*
X52529202Y-37158012D01*
X52582858Y-37111519D01*
X52635200Y-37100133D01*
X54509200Y-37100133D01*
X54509200Y-35226133D01*
X54529202Y-35158012D01*
X54582858Y-35111519D01*
X54635200Y-35100133D01*
X56509200Y-35100133D01*
X56509200Y-33226133D01*
X56529202Y-33158012D01*
X56582858Y-33111519D01*
X56635200Y-33100133D01*
X58509200Y-33100133D01*
X58509200Y-31226133D01*
X58529202Y-31158012D01*
X58582858Y-31111519D01*
X58635200Y-31100133D01*
X60000600Y-31100133D01*
X60068721Y-31120135D01*
G37*
G04 #@! TD.AperFunction*
G04 #@! TA.AperFunction,NonConductor*
G36*
X60451321Y-17320502D02*
G01*
X60497814Y-17374158D01*
X60509200Y-17426500D01*
X60509200Y-18974133D01*
X60489198Y-19042254D01*
X60435542Y-19088747D01*
X60383200Y-19100133D01*
X58509200Y-19100133D01*
X58509200Y-20974133D01*
X58489198Y-21042254D01*
X58435542Y-21088747D01*
X58383200Y-21100133D01*
X56509200Y-21100133D01*
X56509200Y-22974133D01*
X56489198Y-23042254D01*
X56435542Y-23088747D01*
X56383200Y-23100133D01*
X54509200Y-23100133D01*
X54509200Y-24974133D01*
X54489198Y-25042254D01*
X54435542Y-25088747D01*
X54383200Y-25100133D01*
X52509200Y-25100133D01*
X52509200Y-26974133D01*
X52489198Y-27042254D01*
X52435542Y-27088747D01*
X52383200Y-27100133D01*
X50509200Y-27100133D01*
X50509200Y-28974133D01*
X50489198Y-29042254D01*
X50435542Y-29088747D01*
X50383200Y-29100133D01*
X48509200Y-29100133D01*
X48509200Y-30974133D01*
X48489198Y-31042254D01*
X48435542Y-31088747D01*
X48383200Y-31100133D01*
X46509200Y-31100133D01*
X46509200Y-32974133D01*
X46489198Y-33042254D01*
X46435542Y-33088747D01*
X46383200Y-33100133D01*
X44509200Y-33100133D01*
X44509200Y-34974133D01*
X44489198Y-35042254D01*
X44435542Y-35088747D01*
X44383200Y-35100133D01*
X42509200Y-35100133D01*
X42509200Y-36974133D01*
X42489198Y-37042254D01*
X42435542Y-37088747D01*
X42383200Y-37100133D01*
X40509200Y-37100133D01*
X40509200Y-38974133D01*
X40489198Y-39042254D01*
X40435542Y-39088747D01*
X40383200Y-39100133D01*
X38509200Y-39100133D01*
X38509200Y-40974133D01*
X38489198Y-41042254D01*
X38435542Y-41088747D01*
X38383200Y-41100133D01*
X36509200Y-41100133D01*
X36509200Y-42974133D01*
X36489198Y-43042254D01*
X36435542Y-43088747D01*
X36383200Y-43100133D01*
X34509200Y-43100133D01*
X34509200Y-44974133D01*
X34489198Y-45042254D01*
X34435542Y-45088747D01*
X34383200Y-45100133D01*
X32509200Y-45100133D01*
X32509200Y-46974133D01*
X32489198Y-47042254D01*
X32435542Y-47088747D01*
X32383200Y-47100133D01*
X30509200Y-47100133D01*
X30509200Y-47588400D01*
X30489198Y-47656521D01*
X30435542Y-47703014D01*
X30383200Y-47714400D01*
X26635200Y-47714400D01*
X26567079Y-47694398D01*
X26520586Y-47640742D01*
X26509200Y-47588400D01*
X26509200Y-47226133D01*
X26529202Y-47158012D01*
X26582858Y-47111519D01*
X26635200Y-47100133D01*
X28509200Y-47100133D01*
X28509200Y-45226133D01*
X28529202Y-45158012D01*
X28582858Y-45111519D01*
X28635200Y-45100133D01*
X30509200Y-45100133D01*
X30509200Y-43226133D01*
X30529202Y-43158012D01*
X30582858Y-43111519D01*
X30635200Y-43100133D01*
X32509200Y-43100133D01*
X32509200Y-41226133D01*
X32529202Y-41158012D01*
X32582858Y-41111519D01*
X32635200Y-41100133D01*
X34509200Y-41100133D01*
X34509200Y-39226133D01*
X34529202Y-39158012D01*
X34582858Y-39111519D01*
X34635200Y-39100133D01*
X36509200Y-39100133D01*
X36509200Y-37226133D01*
X36529202Y-37158012D01*
X36582858Y-37111519D01*
X36635200Y-37100133D01*
X38509200Y-37100133D01*
X38509200Y-35226133D01*
X38529202Y-35158012D01*
X38582858Y-35111519D01*
X38635200Y-35100133D01*
X40509200Y-35100133D01*
X40509200Y-33226133D01*
X40529202Y-33158012D01*
X40582858Y-33111519D01*
X40635200Y-33100133D01*
X42509200Y-33100133D01*
X42509200Y-31226133D01*
X42529202Y-31158012D01*
X42582858Y-31111519D01*
X42635200Y-31100133D01*
X44509200Y-31100133D01*
X44509200Y-29226133D01*
X44529202Y-29158012D01*
X44582858Y-29111519D01*
X44635200Y-29100133D01*
X46509200Y-29100133D01*
X46509200Y-27226133D01*
X46529202Y-27158012D01*
X46582858Y-27111519D01*
X46635200Y-27100133D01*
X48509200Y-27100133D01*
X48509200Y-25226133D01*
X48529202Y-25158012D01*
X48582858Y-25111519D01*
X48635200Y-25100133D01*
X50509200Y-25100133D01*
X50509200Y-23226133D01*
X50529202Y-23158012D01*
X50582858Y-23111519D01*
X50635200Y-23100133D01*
X52509200Y-23100133D01*
X52509200Y-21226133D01*
X52529202Y-21158012D01*
X52582858Y-21111519D01*
X52635200Y-21100133D01*
X54509200Y-21100133D01*
X54509200Y-19226133D01*
X54529202Y-19158012D01*
X54582858Y-19111519D01*
X54635200Y-19100133D01*
X56509200Y-19100133D01*
X56509200Y-17426500D01*
X56529202Y-17358379D01*
X56582858Y-17311886D01*
X56635200Y-17300500D01*
X60383200Y-17300500D01*
X60451321Y-17320502D01*
G37*
G04 #@! TD.AperFunction*
G04 #@! TA.AperFunction,NonConductor*
G36*
X98168721Y-41120135D02*
G01*
X98215214Y-41173791D01*
X98226600Y-41226133D01*
X98226600Y-44974133D01*
X98206598Y-45042254D01*
X98152942Y-45088747D01*
X98100600Y-45100133D01*
X96509200Y-45100133D01*
X96509200Y-46974133D01*
X96489198Y-47042254D01*
X96435542Y-47088747D01*
X96383200Y-47100133D01*
X94509200Y-47100133D01*
X94509200Y-48974133D01*
X94489198Y-49042254D01*
X94435542Y-49088747D01*
X94383200Y-49100133D01*
X93503600Y-49100133D01*
X93435479Y-49080131D01*
X93388986Y-49026475D01*
X93377600Y-48974133D01*
X93377600Y-45226133D01*
X93397602Y-45158012D01*
X93451258Y-45111519D01*
X93503600Y-45100133D01*
X94509200Y-45100133D01*
X94509200Y-43226133D01*
X94529202Y-43158012D01*
X94582858Y-43111519D01*
X94635200Y-43100133D01*
X96509200Y-43100133D01*
X96509200Y-41226133D01*
X96529202Y-41158012D01*
X96582858Y-41111519D01*
X96635200Y-41100133D01*
X98100600Y-41100133D01*
X98168721Y-41120135D01*
G37*
G04 #@! TD.AperFunction*
G04 #@! TA.AperFunction,NonConductor*
G36*
X60068721Y-23120135D02*
G01*
X60115214Y-23173791D01*
X60126600Y-23226133D01*
X60126600Y-26974133D01*
X60106598Y-27042254D01*
X60052942Y-27088747D01*
X60000600Y-27100133D01*
X58509200Y-27100133D01*
X58509200Y-28974133D01*
X58489198Y-29042254D01*
X58435542Y-29088747D01*
X58383200Y-29100133D01*
X56509200Y-29100133D01*
X56509200Y-30974133D01*
X56489198Y-31042254D01*
X56435542Y-31088747D01*
X56383200Y-31100133D01*
X54509200Y-31100133D01*
X54509200Y-32974133D01*
X54489198Y-33042254D01*
X54435542Y-33088747D01*
X54383200Y-33100133D01*
X52509200Y-33100133D01*
X52509200Y-34974133D01*
X52489198Y-35042254D01*
X52435542Y-35088747D01*
X52383200Y-35100133D01*
X50509200Y-35100133D01*
X50509200Y-36974133D01*
X50489198Y-37042254D01*
X50435542Y-37088747D01*
X50383200Y-37100133D01*
X48509200Y-37100133D01*
X48509200Y-38974133D01*
X48489198Y-39042254D01*
X48435542Y-39088747D01*
X48383200Y-39100133D01*
X46509200Y-39100133D01*
X46509200Y-40974133D01*
X46489198Y-41042254D01*
X46435542Y-41088747D01*
X46383200Y-41100133D01*
X44509200Y-41100133D01*
X44509200Y-42974133D01*
X44489198Y-43042254D01*
X44435542Y-43088747D01*
X44383200Y-43100133D01*
X42509200Y-43100133D01*
X42509200Y-44974133D01*
X42489198Y-45042254D01*
X42435542Y-45088747D01*
X42383200Y-45100133D01*
X40509200Y-45100133D01*
X40509200Y-46974133D01*
X40489198Y-47042254D01*
X40435542Y-47088747D01*
X40383200Y-47100133D01*
X38509200Y-47100133D01*
X38509200Y-48974133D01*
X38489198Y-49042254D01*
X38435542Y-49088747D01*
X38383200Y-49100133D01*
X36509200Y-49100133D01*
X36509200Y-50974133D01*
X36489198Y-51042254D01*
X36435542Y-51088747D01*
X36383200Y-51100133D01*
X36353600Y-51100133D01*
X36285479Y-51080131D01*
X36238986Y-51026475D01*
X36227600Y-50974133D01*
X36227600Y-47800009D01*
X36231761Y-47779093D01*
X36231761Y-47764901D01*
X36231761Y-47764900D01*
X36215751Y-47726249D01*
X36187145Y-47714400D01*
X36177100Y-47710239D01*
X36162909Y-47710239D01*
X36141991Y-47714400D01*
X34635200Y-47714400D01*
X34567079Y-47694398D01*
X34520586Y-47640742D01*
X34509200Y-47588400D01*
X34509200Y-47226133D01*
X34529202Y-47158012D01*
X34582858Y-47111519D01*
X34635200Y-47100133D01*
X36509200Y-47100133D01*
X36509200Y-45226133D01*
X36529202Y-45158012D01*
X36582858Y-45111519D01*
X36635200Y-45100133D01*
X38509200Y-45100133D01*
X38509200Y-43226133D01*
X38529202Y-43158012D01*
X38582858Y-43111519D01*
X38635200Y-43100133D01*
X40509200Y-43100133D01*
X40509200Y-41226133D01*
X40529202Y-41158012D01*
X40582858Y-41111519D01*
X40635200Y-41100133D01*
X42509200Y-41100133D01*
X42509200Y-39226133D01*
X42529202Y-39158012D01*
X42582858Y-39111519D01*
X42635200Y-39100133D01*
X44509200Y-39100133D01*
X44509200Y-37226133D01*
X44529202Y-37158012D01*
X44582858Y-37111519D01*
X44635200Y-37100133D01*
X46509200Y-37100133D01*
X46509200Y-35226133D01*
X46529202Y-35158012D01*
X46582858Y-35111519D01*
X46635200Y-35100133D01*
X48509200Y-35100133D01*
X48509200Y-33226133D01*
X48529202Y-33158012D01*
X48582858Y-33111519D01*
X48635200Y-33100133D01*
X50509200Y-33100133D01*
X50509200Y-31226133D01*
X50529202Y-31158012D01*
X50582858Y-31111519D01*
X50635200Y-31100133D01*
X52509200Y-31100133D01*
X52509200Y-29226133D01*
X52529202Y-29158012D01*
X52582858Y-29111519D01*
X52635200Y-29100133D01*
X54509200Y-29100133D01*
X54509200Y-27226133D01*
X54529202Y-27158012D01*
X54582858Y-27111519D01*
X54635200Y-27100133D01*
X56509200Y-27100133D01*
X56509200Y-25226133D01*
X56529202Y-25158012D01*
X56582858Y-25111519D01*
X56635200Y-25100133D01*
X58509200Y-25100133D01*
X58509200Y-23226133D01*
X58529202Y-23158012D01*
X58582858Y-23111519D01*
X58635200Y-23100133D01*
X60000600Y-23100133D01*
X60068721Y-23120135D01*
G37*
G04 #@! TD.AperFunction*
G04 #@! TA.AperFunction,NonConductor*
G36*
X52451321Y-17320502D02*
G01*
X52497814Y-17374158D01*
X52509200Y-17426500D01*
X52509200Y-18974133D01*
X52489198Y-19042254D01*
X52435542Y-19088747D01*
X52383200Y-19100133D01*
X50509200Y-19100133D01*
X50509200Y-20974133D01*
X50489198Y-21042254D01*
X50435542Y-21088747D01*
X50383200Y-21100133D01*
X48509200Y-21100133D01*
X48509200Y-22974133D01*
X48489198Y-23042254D01*
X48435542Y-23088747D01*
X48383200Y-23100133D01*
X46509200Y-23100133D01*
X46509200Y-24974133D01*
X46489198Y-25042254D01*
X46435542Y-25088747D01*
X46383200Y-25100133D01*
X44509200Y-25100133D01*
X44509200Y-26974133D01*
X44489198Y-27042254D01*
X44435542Y-27088747D01*
X44383200Y-27100133D01*
X42509200Y-27100133D01*
X42509200Y-28974133D01*
X42489198Y-29042254D01*
X42435542Y-29088747D01*
X42383200Y-29100133D01*
X40509200Y-29100133D01*
X40509200Y-30974133D01*
X40489198Y-31042254D01*
X40435542Y-31088747D01*
X40383200Y-31100133D01*
X38509200Y-31100133D01*
X38509200Y-32974133D01*
X38489198Y-33042254D01*
X38435542Y-33088747D01*
X38383200Y-33100133D01*
X36509200Y-33100133D01*
X36509200Y-34974133D01*
X36489198Y-35042254D01*
X36435542Y-35088747D01*
X36383200Y-35100133D01*
X34509200Y-35100133D01*
X34509200Y-36974133D01*
X34489198Y-37042254D01*
X34435542Y-37088747D01*
X34383200Y-37100133D01*
X32509200Y-37100133D01*
X32509200Y-38974133D01*
X32489198Y-39042254D01*
X32435542Y-39088747D01*
X32383200Y-39100133D01*
X30509200Y-39100133D01*
X30509200Y-40974133D01*
X30489198Y-41042254D01*
X30435542Y-41088747D01*
X30383200Y-41100133D01*
X28509200Y-41100133D01*
X28509200Y-42974133D01*
X28489198Y-43042254D01*
X28435542Y-43088747D01*
X28383200Y-43100133D01*
X26509200Y-43100133D01*
X26509200Y-44974133D01*
X26489198Y-45042254D01*
X26435542Y-45088747D01*
X26383200Y-45100133D01*
X24509200Y-45100133D01*
X24509200Y-46974133D01*
X24489198Y-47042254D01*
X24435542Y-47088747D01*
X24383200Y-47100133D01*
X22509200Y-47100133D01*
X22509200Y-47588400D01*
X22489198Y-47656521D01*
X22435542Y-47703014D01*
X22383200Y-47714400D01*
X22112209Y-47714400D01*
X22091291Y-47710239D01*
X22077100Y-47710239D01*
X22067055Y-47714400D01*
X22038450Y-47726248D01*
X22038449Y-47726248D01*
X22038449Y-47726249D01*
X22022439Y-47764900D01*
X22022439Y-47764901D01*
X22022439Y-47779093D01*
X22026600Y-47800009D01*
X22026600Y-48974133D01*
X22006598Y-49042254D01*
X21952942Y-49088747D01*
X21900600Y-49100133D01*
X20509200Y-49100133D01*
X20509200Y-50974133D01*
X20489198Y-51042254D01*
X20435542Y-51088747D01*
X20383200Y-51100133D01*
X19451500Y-51100133D01*
X19383379Y-51080131D01*
X19336886Y-51026475D01*
X19325500Y-50974133D01*
X19325500Y-47226133D01*
X19345502Y-47158012D01*
X19399158Y-47111519D01*
X19451500Y-47100133D01*
X20509200Y-47100133D01*
X20509200Y-45226133D01*
X20529202Y-45158012D01*
X20582858Y-45111519D01*
X20635200Y-45100133D01*
X22509200Y-45100133D01*
X22509200Y-43226133D01*
X22529202Y-43158012D01*
X22582858Y-43111519D01*
X22635200Y-43100133D01*
X24509200Y-43100133D01*
X24509200Y-41226133D01*
X24529202Y-41158012D01*
X24582858Y-41111519D01*
X24635200Y-41100133D01*
X26509200Y-41100133D01*
X26509200Y-39226133D01*
X26529202Y-39158012D01*
X26582858Y-39111519D01*
X26635200Y-39100133D01*
X28509200Y-39100133D01*
X28509200Y-37226133D01*
X28529202Y-37158012D01*
X28582858Y-37111519D01*
X28635200Y-37100133D01*
X30509200Y-37100133D01*
X30509200Y-35226133D01*
X30529202Y-35158012D01*
X30582858Y-35111519D01*
X30635200Y-35100133D01*
X32509200Y-35100133D01*
X32509200Y-33226133D01*
X32529202Y-33158012D01*
X32582858Y-33111519D01*
X32635200Y-33100133D01*
X34509200Y-33100133D01*
X34509200Y-31226133D01*
X34529202Y-31158012D01*
X34582858Y-31111519D01*
X34635200Y-31100133D01*
X36509200Y-31100133D01*
X36509200Y-29226133D01*
X36529202Y-29158012D01*
X36582858Y-29111519D01*
X36635200Y-29100133D01*
X38509200Y-29100133D01*
X38509200Y-27226133D01*
X38529202Y-27158012D01*
X38582858Y-27111519D01*
X38635200Y-27100133D01*
X40509200Y-27100133D01*
X40509200Y-25226133D01*
X40529202Y-25158012D01*
X40582858Y-25111519D01*
X40635200Y-25100133D01*
X42509200Y-25100133D01*
X42509200Y-23226133D01*
X42529202Y-23158012D01*
X42582858Y-23111519D01*
X42635200Y-23100133D01*
X44509200Y-23100133D01*
X44509200Y-21226133D01*
X44529202Y-21158012D01*
X44582858Y-21111519D01*
X44635200Y-21100133D01*
X46509200Y-21100133D01*
X46509200Y-19226133D01*
X46529202Y-19158012D01*
X46582858Y-19111519D01*
X46635200Y-19100133D01*
X48509200Y-19100133D01*
X48509200Y-17426500D01*
X48529202Y-17358379D01*
X48582858Y-17311886D01*
X48635200Y-17300500D01*
X52383200Y-17300500D01*
X52451321Y-17320502D01*
G37*
G04 #@! TD.AperFunction*
G04 #@! TA.AperFunction,NonConductor*
G36*
X79118721Y-43120135D02*
G01*
X79165214Y-43173791D01*
X79176600Y-43226133D01*
X79176600Y-46974133D01*
X79156598Y-47042254D01*
X79102942Y-47088747D01*
X79050600Y-47100133D01*
X78509200Y-47100133D01*
X78509200Y-48974133D01*
X78489198Y-49042254D01*
X78435542Y-49088747D01*
X78383200Y-49100133D01*
X76509200Y-49100133D01*
X76509200Y-50974133D01*
X76489198Y-51042254D01*
X76435542Y-51088747D01*
X76383200Y-51100133D01*
X74481354Y-51100133D01*
X74480383Y-51100663D01*
X74472973Y-51100133D01*
X74457009Y-51100133D01*
X74457009Y-51098991D01*
X74409568Y-51095598D01*
X74352732Y-51053051D01*
X74327921Y-50986531D01*
X74327600Y-50977542D01*
X74327600Y-49226133D01*
X74347602Y-49158012D01*
X74401258Y-49111519D01*
X74453600Y-49100133D01*
X74509200Y-49100133D01*
X74509200Y-47226133D01*
X74529202Y-47158012D01*
X74582858Y-47111519D01*
X74635200Y-47100133D01*
X76509200Y-47100133D01*
X76509200Y-45226133D01*
X76529202Y-45158012D01*
X76582858Y-45111519D01*
X76635200Y-45100133D01*
X78509200Y-45100133D01*
X78509200Y-43226133D01*
X78529202Y-43158012D01*
X78582858Y-43111519D01*
X78635200Y-43100133D01*
X79050600Y-43100133D01*
X79118721Y-43120135D01*
G37*
G04 #@! TD.AperFunction*
G04 #@! TA.AperFunction,NonConductor*
G36*
X115166621Y-47120135D02*
G01*
X115213114Y-47173791D01*
X115224500Y-47226133D01*
X115224500Y-50974133D01*
X115204498Y-51042254D01*
X115150842Y-51088747D01*
X115098500Y-51100133D01*
X114509200Y-51100133D01*
X114509200Y-52974133D01*
X114489198Y-53042254D01*
X114435542Y-53088747D01*
X114383200Y-53100133D01*
X112553600Y-53100133D01*
X112485479Y-53080131D01*
X112438986Y-53026475D01*
X112427600Y-52974133D01*
X112427600Y-51226133D01*
X112447602Y-51158012D01*
X112475467Y-51133866D01*
X112509200Y-51100134D01*
X112509200Y-49226133D01*
X112529202Y-49158012D01*
X112582858Y-49111519D01*
X112635200Y-49100133D01*
X114509200Y-49100133D01*
X114509200Y-47226133D01*
X114529202Y-47158012D01*
X114582858Y-47111519D01*
X114635200Y-47100133D01*
X115098500Y-47100133D01*
X115166621Y-47120135D01*
G37*
G04 #@! TD.AperFunction*
G04 #@! TA.AperFunction,NonConductor*
G36*
X60068721Y-47120135D02*
G01*
X60115214Y-47173791D01*
X60126600Y-47226133D01*
X60126600Y-50974133D01*
X60106598Y-51042254D01*
X60052942Y-51088747D01*
X60000600Y-51100133D01*
X58509200Y-51100133D01*
X58509200Y-52974133D01*
X58489198Y-53042254D01*
X58435542Y-53088747D01*
X58383200Y-53100133D01*
X56509200Y-53100133D01*
X56509200Y-54974133D01*
X56489198Y-55042254D01*
X56435542Y-55088747D01*
X56383200Y-55100133D01*
X55403600Y-55100133D01*
X55335479Y-55080131D01*
X55288986Y-55026475D01*
X55277600Y-54974133D01*
X55277600Y-51226133D01*
X55297602Y-51158012D01*
X55351258Y-51111519D01*
X55403600Y-51100133D01*
X56509200Y-51100133D01*
X56509200Y-49226133D01*
X56529202Y-49158012D01*
X56582858Y-49111519D01*
X56635200Y-49100133D01*
X58509200Y-49100133D01*
X58509200Y-47226133D01*
X58529202Y-47158012D01*
X58582858Y-47111519D01*
X58635200Y-47100133D01*
X60000600Y-47100133D01*
X60068721Y-47120135D01*
G37*
G04 #@! TD.AperFunction*
G04 #@! TA.AperFunction,NonConductor*
G36*
X41018721Y-49120135D02*
G01*
X41065214Y-49173791D01*
X41076600Y-49226133D01*
X41076600Y-52974133D01*
X41056598Y-53042254D01*
X41002942Y-53088747D01*
X40950600Y-53100133D01*
X40509200Y-53100133D01*
X40509200Y-54974133D01*
X40489198Y-55042254D01*
X40435542Y-55088747D01*
X40383200Y-55100133D01*
X38509200Y-55100133D01*
X38509200Y-56974133D01*
X38489198Y-57042254D01*
X38435542Y-57088747D01*
X38383200Y-57100133D01*
X36509200Y-57100133D01*
X36509200Y-58974133D01*
X36489198Y-59042254D01*
X36435542Y-59088747D01*
X36383200Y-59100133D01*
X36353600Y-59100133D01*
X36285479Y-59080131D01*
X36238986Y-59026475D01*
X36227600Y-58974133D01*
X36227600Y-55226133D01*
X36247602Y-55158012D01*
X36301258Y-55111519D01*
X36353600Y-55100133D01*
X36509200Y-55100133D01*
X36509200Y-53226133D01*
X36529202Y-53158012D01*
X36582858Y-53111519D01*
X36635200Y-53100133D01*
X38509200Y-53100133D01*
X38509200Y-51226133D01*
X38529202Y-51158012D01*
X38582858Y-51111519D01*
X38635200Y-51100133D01*
X40509200Y-51100133D01*
X40509200Y-49226133D01*
X40529202Y-49158012D01*
X40582858Y-49111519D01*
X40635200Y-49100133D01*
X40950600Y-49100133D01*
X41018721Y-49120135D01*
G37*
G04 #@! TD.AperFunction*
G04 #@! TA.AperFunction,NonConductor*
G36*
X21968721Y-53120135D02*
G01*
X22015214Y-53173791D01*
X22026600Y-53226133D01*
X22026600Y-56974133D01*
X22006598Y-57042254D01*
X21952942Y-57088747D01*
X21900600Y-57100133D01*
X20509200Y-57100133D01*
X20509200Y-58974133D01*
X20489198Y-59042254D01*
X20435542Y-59088747D01*
X20383200Y-59100133D01*
X19451500Y-59100133D01*
X19383379Y-59080131D01*
X19336886Y-59026475D01*
X19325500Y-58974133D01*
X19325500Y-55226133D01*
X19345502Y-55158012D01*
X19399158Y-55111519D01*
X19451500Y-55100133D01*
X20509200Y-55100133D01*
X20509200Y-53226133D01*
X20529202Y-53158012D01*
X20582858Y-53111519D01*
X20635200Y-53100133D01*
X21900600Y-53100133D01*
X21968721Y-53120135D01*
G37*
G04 #@! TD.AperFunction*
G04 #@! TA.AperFunction,NonConductor*
G36*
X112362908Y-54775761D02*
G01*
X112383200Y-54775761D01*
X112451321Y-54795763D01*
X112497814Y-54849419D01*
X112509200Y-54901761D01*
X112509200Y-54974133D01*
X112489198Y-55042254D01*
X112435542Y-55088747D01*
X112383200Y-55100133D01*
X110509200Y-55100133D01*
X110509200Y-56974133D01*
X110489198Y-57042254D01*
X110435542Y-57088747D01*
X110383200Y-57100133D01*
X108509200Y-57100133D01*
X108509200Y-58974133D01*
X108489198Y-59042254D01*
X108435542Y-59088747D01*
X108383200Y-59100133D01*
X106509200Y-59100133D01*
X106509200Y-59494600D01*
X106489198Y-59562721D01*
X106435542Y-59609214D01*
X106383200Y-59620600D01*
X102635200Y-59620600D01*
X102567079Y-59600598D01*
X102520586Y-59546942D01*
X102509200Y-59494600D01*
X102509200Y-59226133D01*
X102529202Y-59158012D01*
X102582858Y-59111519D01*
X102635200Y-59100133D01*
X104509200Y-59100133D01*
X104509200Y-57226133D01*
X104529202Y-57158012D01*
X104582858Y-57111519D01*
X104635200Y-57100133D01*
X106509200Y-57100133D01*
X106509200Y-55226133D01*
X106529202Y-55158012D01*
X106582858Y-55111519D01*
X106635200Y-55100133D01*
X108509200Y-55100133D01*
X108509200Y-54897600D01*
X108529202Y-54829479D01*
X108582858Y-54782986D01*
X108635200Y-54771600D01*
X112341990Y-54771600D01*
X112362908Y-54775761D01*
G37*
G04 #@! TD.AperFunction*
G04 #@! TA.AperFunction,NonConductor*
G36*
X98168721Y-49120135D02*
G01*
X98215214Y-49173791D01*
X98226600Y-49226133D01*
X98226600Y-52974133D01*
X98206598Y-53042254D01*
X98152942Y-53088747D01*
X98100600Y-53100133D01*
X96509200Y-53100133D01*
X96509200Y-54974133D01*
X96489198Y-55042254D01*
X96435542Y-55088747D01*
X96383200Y-55100133D01*
X94509200Y-55100133D01*
X94509200Y-56974133D01*
X94489198Y-57042254D01*
X94435542Y-57088747D01*
X94383200Y-57100133D01*
X92509200Y-57100133D01*
X92509200Y-58974133D01*
X92489198Y-59042254D01*
X92435542Y-59088747D01*
X92383200Y-59100133D01*
X90509200Y-59100133D01*
X90509200Y-59494600D01*
X90489198Y-59562721D01*
X90435542Y-59609214D01*
X90383200Y-59620600D01*
X86635200Y-59620600D01*
X86567079Y-59600598D01*
X86520586Y-59546942D01*
X86509200Y-59494600D01*
X86509200Y-59226133D01*
X86529202Y-59158012D01*
X86582858Y-59111519D01*
X86635200Y-59100133D01*
X88509200Y-59100133D01*
X88509200Y-57226133D01*
X88529202Y-57158012D01*
X88582858Y-57111519D01*
X88635200Y-57100133D01*
X90509200Y-57100133D01*
X90509200Y-55226133D01*
X90529202Y-55158012D01*
X90582858Y-55111519D01*
X90635200Y-55100133D01*
X92509200Y-55100133D01*
X92509200Y-54897600D01*
X92529202Y-54829479D01*
X92582858Y-54782986D01*
X92635200Y-54771600D01*
X93291990Y-54771600D01*
X93312908Y-54775761D01*
X93327098Y-54775761D01*
X93327099Y-54775760D01*
X93327100Y-54775761D01*
X93365751Y-54759751D01*
X93377600Y-54731145D01*
X93381761Y-54721100D01*
X93381761Y-54721099D01*
X93381761Y-54706912D01*
X93377600Y-54685992D01*
X93377600Y-53226133D01*
X93397602Y-53158012D01*
X93451258Y-53111519D01*
X93503600Y-53100133D01*
X94509200Y-53100133D01*
X94509200Y-51226133D01*
X94529202Y-51158012D01*
X94582858Y-51111519D01*
X94635200Y-51100133D01*
X96509200Y-51100133D01*
X96509200Y-49226133D01*
X96529202Y-49158012D01*
X96582858Y-49111519D01*
X96635200Y-49100133D01*
X98100600Y-49100133D01*
X98168721Y-49120135D01*
G37*
G04 #@! TD.AperFunction*
G04 #@! TA.AperFunction,NonConductor*
G36*
X72451321Y-54791602D02*
G01*
X72497814Y-54845258D01*
X72509200Y-54897600D01*
X72509200Y-54974133D01*
X72489198Y-55042254D01*
X72435542Y-55088747D01*
X72383200Y-55100133D01*
X70509200Y-55100133D01*
X70509200Y-56974133D01*
X70489198Y-57042254D01*
X70435542Y-57088747D01*
X70383200Y-57100133D01*
X68509200Y-57100133D01*
X68509200Y-58974133D01*
X68489198Y-59042254D01*
X68435542Y-59088747D01*
X68383200Y-59100133D01*
X66509200Y-59100133D01*
X66509200Y-59494600D01*
X66489198Y-59562721D01*
X66435542Y-59609214D01*
X66383200Y-59620600D01*
X62635200Y-59620600D01*
X62567079Y-59600598D01*
X62520586Y-59546942D01*
X62509200Y-59494600D01*
X62509200Y-59226133D01*
X62529202Y-59158012D01*
X62582858Y-59111519D01*
X62635200Y-59100133D01*
X64509200Y-59100133D01*
X64509200Y-57226133D01*
X64529202Y-57158012D01*
X64582858Y-57111519D01*
X64635200Y-57100133D01*
X66509200Y-57100133D01*
X66509200Y-55226133D01*
X66529202Y-55158012D01*
X66582858Y-55111519D01*
X66635200Y-55100133D01*
X68509200Y-55100133D01*
X68509200Y-54897600D01*
X68529202Y-54829479D01*
X68582858Y-54782986D01*
X68635200Y-54771600D01*
X72383200Y-54771600D01*
X72451321Y-54791602D01*
G37*
G04 #@! TD.AperFunction*
G04 #@! TA.AperFunction,NonConductor*
G36*
X79118721Y-51120135D02*
G01*
X79165214Y-51173791D01*
X79176600Y-51226133D01*
X79176600Y-54685992D01*
X79172439Y-54706912D01*
X79172439Y-54721099D01*
X79176600Y-54731144D01*
X79188448Y-54759750D01*
X79188449Y-54759751D01*
X79227100Y-54775761D01*
X79227100Y-54775760D01*
X79227102Y-54775761D01*
X79241292Y-54775761D01*
X79262210Y-54771600D01*
X80383200Y-54771600D01*
X80451321Y-54791602D01*
X80497814Y-54845258D01*
X80509200Y-54897600D01*
X80509200Y-54974133D01*
X80489198Y-55042254D01*
X80435542Y-55088747D01*
X80383200Y-55100133D01*
X78509200Y-55100133D01*
X78509200Y-56974133D01*
X78489198Y-57042254D01*
X78435542Y-57088747D01*
X78383200Y-57100133D01*
X76509200Y-57100133D01*
X76509200Y-58974133D01*
X76489198Y-59042254D01*
X76435542Y-59088747D01*
X76383200Y-59100133D01*
X74509200Y-59100133D01*
X74509200Y-59524005D01*
X74489198Y-59592126D01*
X74435542Y-59638619D01*
X74365268Y-59648723D01*
X74334985Y-59640415D01*
X74304949Y-59627974D01*
X74287145Y-59620600D01*
X74277100Y-59616439D01*
X74277099Y-59616439D01*
X74262909Y-59616439D01*
X74241991Y-59620600D01*
X70635200Y-59620600D01*
X70567079Y-59600598D01*
X70520586Y-59546942D01*
X70509200Y-59494600D01*
X70509200Y-59226133D01*
X70529202Y-59158012D01*
X70582858Y-59111519D01*
X70635200Y-59100133D01*
X72509200Y-59100133D01*
X72509200Y-57226133D01*
X72529202Y-57158012D01*
X72582858Y-57111519D01*
X72635200Y-57100133D01*
X74509200Y-57100133D01*
X74509200Y-55226133D01*
X74529202Y-55158012D01*
X74582858Y-55111519D01*
X74635200Y-55100133D01*
X76509200Y-55100133D01*
X76509200Y-53226133D01*
X76529202Y-53158012D01*
X76582858Y-53111519D01*
X76635200Y-53100133D01*
X78509200Y-53100133D01*
X78509200Y-51226133D01*
X78529202Y-51158012D01*
X78582858Y-51111519D01*
X78635200Y-51100133D01*
X79050600Y-51100133D01*
X79118721Y-51120135D01*
G37*
G04 #@! TD.AperFunction*
G04 #@! TA.AperFunction,NonConductor*
G36*
X115166621Y-55120135D02*
G01*
X115213114Y-55173791D01*
X115224500Y-55226133D01*
X115224500Y-58974133D01*
X115204498Y-59042254D01*
X115150842Y-59088747D01*
X115098500Y-59100133D01*
X114509200Y-59100133D01*
X114509200Y-60974133D01*
X114489198Y-61042254D01*
X114435542Y-61088747D01*
X114383200Y-61100133D01*
X112553600Y-61100133D01*
X112485479Y-61080131D01*
X112438986Y-61026475D01*
X112427600Y-60974133D01*
X112427600Y-59706209D01*
X112431761Y-59685293D01*
X112431761Y-59671101D01*
X112431761Y-59671100D01*
X112415751Y-59632449D01*
X112387145Y-59620600D01*
X112377100Y-59616439D01*
X112362909Y-59616439D01*
X112341991Y-59620600D01*
X110635200Y-59620600D01*
X110567079Y-59600598D01*
X110520586Y-59546942D01*
X110509200Y-59494600D01*
X110509200Y-59226133D01*
X110529202Y-59158012D01*
X110582858Y-59111519D01*
X110635200Y-59100133D01*
X112509200Y-59100133D01*
X112509200Y-57226133D01*
X112529202Y-57158012D01*
X112582858Y-57111519D01*
X112635200Y-57100133D01*
X114509200Y-57100133D01*
X114509200Y-55226133D01*
X114529202Y-55158012D01*
X114582858Y-55111519D01*
X114635200Y-55100133D01*
X115098500Y-55100133D01*
X115166621Y-55120135D01*
G37*
G04 #@! TD.AperFunction*
G04 #@! TA.AperFunction,NonConductor*
G36*
X104451321Y-54791602D02*
G01*
X104497814Y-54845258D01*
X104509200Y-54897600D01*
X104509200Y-54974133D01*
X104489198Y-55042254D01*
X104435542Y-55088747D01*
X104383200Y-55100133D01*
X102509200Y-55100133D01*
X102509200Y-56974133D01*
X102489198Y-57042254D01*
X102435542Y-57088747D01*
X102383200Y-57100133D01*
X100509200Y-57100133D01*
X100509200Y-58974133D01*
X100489198Y-59042254D01*
X100435542Y-59088747D01*
X100383200Y-59100133D01*
X98509200Y-59100133D01*
X98509200Y-59494600D01*
X98489198Y-59562721D01*
X98435542Y-59609214D01*
X98383200Y-59620600D01*
X98312209Y-59620600D01*
X98291291Y-59616439D01*
X98277100Y-59616439D01*
X98267055Y-59620600D01*
X98238450Y-59632448D01*
X98238449Y-59632448D01*
X98238449Y-59632449D01*
X98222439Y-59671100D01*
X98222439Y-59671101D01*
X98222439Y-59685293D01*
X98226600Y-59706209D01*
X98226600Y-60974133D01*
X98206598Y-61042254D01*
X98152942Y-61088747D01*
X98100600Y-61100133D01*
X96509200Y-61100133D01*
X96509200Y-62974133D01*
X96489198Y-63042254D01*
X96435542Y-63088747D01*
X96383200Y-63100133D01*
X94509200Y-63100133D01*
X94509200Y-64974133D01*
X94489198Y-65042254D01*
X94435542Y-65088747D01*
X94383200Y-65100133D01*
X93503600Y-65100133D01*
X93435479Y-65080131D01*
X93388986Y-65026475D01*
X93377600Y-64974133D01*
X93377600Y-61226133D01*
X93397602Y-61158012D01*
X93451258Y-61111519D01*
X93503600Y-61100133D01*
X94509200Y-61100133D01*
X94509200Y-59226133D01*
X94529202Y-59158012D01*
X94582858Y-59111519D01*
X94635200Y-59100133D01*
X96509200Y-59100133D01*
X96509200Y-57226133D01*
X96529202Y-57158012D01*
X96582858Y-57111519D01*
X96635200Y-57100133D01*
X98509200Y-57100133D01*
X98509200Y-55226133D01*
X98529202Y-55158012D01*
X98582858Y-55111519D01*
X98635200Y-55100133D01*
X100509200Y-55100133D01*
X100509200Y-54897600D01*
X100529202Y-54829479D01*
X100582858Y-54782986D01*
X100635200Y-54771600D01*
X104383200Y-54771600D01*
X104451321Y-54791602D01*
G37*
G04 #@! TD.AperFunction*
G04 #@! TA.AperFunction,NonConductor*
G36*
X64451321Y-54791602D02*
G01*
X64497814Y-54845258D01*
X64509200Y-54897600D01*
X64509200Y-54974133D01*
X64489198Y-55042254D01*
X64435542Y-55088747D01*
X64383200Y-55100133D01*
X62509200Y-55100133D01*
X62509200Y-56974133D01*
X62489198Y-57042254D01*
X62435542Y-57088747D01*
X62383200Y-57100133D01*
X60509200Y-57100133D01*
X60509200Y-58974133D01*
X60489198Y-59042254D01*
X60435542Y-59088747D01*
X60383200Y-59100133D01*
X58509200Y-59100133D01*
X58509200Y-60974133D01*
X58489198Y-61042254D01*
X58435542Y-61088747D01*
X58383200Y-61100133D01*
X56509200Y-61100133D01*
X56509200Y-62974133D01*
X56489198Y-63042254D01*
X56435542Y-63088747D01*
X56383200Y-63100133D01*
X54509200Y-63100133D01*
X54509200Y-64974133D01*
X54489198Y-65042254D01*
X54435542Y-65088747D01*
X54383200Y-65100133D01*
X52509200Y-65100133D01*
X52509200Y-66638400D01*
X52489198Y-66706521D01*
X52435542Y-66753014D01*
X52383200Y-66764400D01*
X48635200Y-66764400D01*
X48567079Y-66744398D01*
X48520586Y-66690742D01*
X48509200Y-66638400D01*
X48509200Y-65226133D01*
X48529202Y-65158012D01*
X48582858Y-65111519D01*
X48635200Y-65100133D01*
X50509200Y-65100133D01*
X50509200Y-63226133D01*
X50529202Y-63158012D01*
X50582858Y-63111519D01*
X50635200Y-63100133D01*
X52509200Y-63100133D01*
X52509200Y-62041400D01*
X52529202Y-61973279D01*
X52582858Y-61926786D01*
X52635200Y-61915400D01*
X55191990Y-61915400D01*
X55212908Y-61919561D01*
X55227098Y-61919561D01*
X55227099Y-61919560D01*
X55227100Y-61919561D01*
X55265751Y-61903551D01*
X55277600Y-61874945D01*
X55281761Y-61864900D01*
X55281761Y-61864899D01*
X55281761Y-61850712D01*
X55277600Y-61829792D01*
X55277600Y-59226133D01*
X55297602Y-59158012D01*
X55351258Y-59111519D01*
X55403600Y-59100133D01*
X56509200Y-59100133D01*
X56509200Y-57226133D01*
X56529202Y-57158012D01*
X56582858Y-57111519D01*
X56635200Y-57100133D01*
X58509200Y-57100133D01*
X58509200Y-55226133D01*
X58529202Y-55158012D01*
X58582858Y-55111519D01*
X58635200Y-55100133D01*
X60509200Y-55100133D01*
X60509200Y-54897600D01*
X60529202Y-54829479D01*
X60582858Y-54782986D01*
X60635200Y-54771600D01*
X64383200Y-54771600D01*
X64451321Y-54791602D01*
G37*
G04 #@! TD.AperFunction*
G04 #@! TA.AperFunction,NonConductor*
G36*
X32451321Y-61935402D02*
G01*
X32497814Y-61989058D01*
X32509200Y-62041400D01*
X32509200Y-62974133D01*
X32489198Y-63042254D01*
X32435542Y-63088747D01*
X32383200Y-63100133D01*
X30509200Y-63100133D01*
X30509200Y-64974133D01*
X30489198Y-65042254D01*
X30435542Y-65088747D01*
X30383200Y-65100133D01*
X28509200Y-65100133D01*
X28509200Y-66638400D01*
X28489198Y-66706521D01*
X28435542Y-66753014D01*
X28383200Y-66764400D01*
X24635200Y-66764400D01*
X24567079Y-66744398D01*
X24520586Y-66690742D01*
X24509200Y-66638400D01*
X24509200Y-65226133D01*
X24529202Y-65158012D01*
X24582858Y-65111519D01*
X24635200Y-65100133D01*
X26509200Y-65100133D01*
X26509200Y-63226133D01*
X26529202Y-63158012D01*
X26582858Y-63111519D01*
X26635200Y-63100133D01*
X28509200Y-63100133D01*
X28509200Y-62041400D01*
X28529202Y-61973279D01*
X28582858Y-61926786D01*
X28635200Y-61915400D01*
X32383200Y-61915400D01*
X32451321Y-61935402D01*
G37*
G04 #@! TD.AperFunction*
G04 #@! TA.AperFunction,NonConductor*
G36*
X41018721Y-57120135D02*
G01*
X41065214Y-57173791D01*
X41076600Y-57226133D01*
X41076600Y-60974133D01*
X41056598Y-61042254D01*
X41002942Y-61088747D01*
X40950600Y-61100133D01*
X40509200Y-61100133D01*
X40509200Y-62974133D01*
X40489198Y-63042254D01*
X40435542Y-63088747D01*
X40383200Y-63100133D01*
X38509200Y-63100133D01*
X38509200Y-64974133D01*
X38489198Y-65042254D01*
X38435542Y-65088747D01*
X38383200Y-65100133D01*
X36509200Y-65100133D01*
X36509200Y-66974133D01*
X36489198Y-67042254D01*
X36435542Y-67088747D01*
X36383200Y-67100133D01*
X36353600Y-67100133D01*
X36285479Y-67080131D01*
X36238986Y-67026475D01*
X36227600Y-66974133D01*
X36227600Y-66850009D01*
X36231761Y-66829093D01*
X36231761Y-66814901D01*
X36231761Y-66814900D01*
X36215751Y-66776249D01*
X36187145Y-66764400D01*
X36177100Y-66760239D01*
X36162909Y-66760239D01*
X36141991Y-66764400D01*
X32635200Y-66764400D01*
X32567079Y-66744398D01*
X32520586Y-66690742D01*
X32509200Y-66638400D01*
X32509200Y-65226133D01*
X32529202Y-65158012D01*
X32582858Y-65111519D01*
X32635200Y-65100133D01*
X34509200Y-65100133D01*
X34509200Y-63226133D01*
X34529202Y-63158012D01*
X34582858Y-63111519D01*
X34635200Y-63100133D01*
X36509200Y-63100133D01*
X36509200Y-61226133D01*
X36529202Y-61158012D01*
X36582858Y-61111519D01*
X36635200Y-61100133D01*
X38509200Y-61100133D01*
X38509200Y-59226133D01*
X38529202Y-59158012D01*
X38582858Y-59111519D01*
X38635200Y-59100133D01*
X40509200Y-59100133D01*
X40509200Y-57226133D01*
X40529202Y-57158012D01*
X40582858Y-57111519D01*
X40635200Y-57100133D01*
X40950600Y-57100133D01*
X41018721Y-57120135D01*
G37*
G04 #@! TD.AperFunction*
G04 #@! TA.AperFunction,NonConductor*
G36*
X21968721Y-61120135D02*
G01*
X22015214Y-61173791D01*
X22026600Y-61226133D01*
X22026600Y-61829792D01*
X22022439Y-61850712D01*
X22022439Y-61864899D01*
X22026600Y-61874944D01*
X22038448Y-61903550D01*
X22038449Y-61903551D01*
X22077100Y-61919561D01*
X22077100Y-61919560D01*
X22077102Y-61919561D01*
X22091292Y-61919561D01*
X22112210Y-61915400D01*
X24383200Y-61915400D01*
X24451321Y-61935402D01*
X24497814Y-61989058D01*
X24509200Y-62041400D01*
X24509200Y-62974133D01*
X24489198Y-63042254D01*
X24435542Y-63088747D01*
X24383200Y-63100133D01*
X22509200Y-63100133D01*
X22509200Y-64974133D01*
X22489198Y-65042254D01*
X22435542Y-65088747D01*
X22383200Y-65100133D01*
X20509200Y-65100133D01*
X20509200Y-66974133D01*
X20489198Y-67042254D01*
X20435542Y-67088747D01*
X20383200Y-67100133D01*
X19451500Y-67100133D01*
X19383379Y-67080131D01*
X19336886Y-67026475D01*
X19325500Y-66974133D01*
X19325500Y-63226133D01*
X19345502Y-63158012D01*
X19399158Y-63111519D01*
X19451500Y-63100133D01*
X20509200Y-63100133D01*
X20509200Y-61226133D01*
X20529202Y-61158012D01*
X20582858Y-61111519D01*
X20635200Y-61100133D01*
X21900600Y-61100133D01*
X21968721Y-61120135D01*
G37*
G04 #@! TD.AperFunction*
G04 #@! TA.AperFunction,NonConductor*
G36*
X88451321Y-54791602D02*
G01*
X88497814Y-54845258D01*
X88509200Y-54897600D01*
X88509200Y-54974133D01*
X88489198Y-55042254D01*
X88435542Y-55088747D01*
X88383200Y-55100133D01*
X86509200Y-55100133D01*
X86509200Y-56974133D01*
X86489198Y-57042254D01*
X86435542Y-57088747D01*
X86383200Y-57100133D01*
X84509200Y-57100133D01*
X84509200Y-58974133D01*
X84489198Y-59042254D01*
X84435542Y-59088747D01*
X84383200Y-59100133D01*
X82509200Y-59100133D01*
X82509200Y-59494600D01*
X82489198Y-59562721D01*
X82435542Y-59609214D01*
X82383200Y-59620600D01*
X79262209Y-59620600D01*
X79241291Y-59616439D01*
X79227100Y-59616439D01*
X79217055Y-59620600D01*
X79188450Y-59632448D01*
X79188449Y-59632448D01*
X79188449Y-59632449D01*
X79172439Y-59671100D01*
X79172439Y-59671101D01*
X79172439Y-59685293D01*
X79176600Y-59706209D01*
X79176600Y-62974133D01*
X79156598Y-63042254D01*
X79102942Y-63088747D01*
X79050600Y-63100133D01*
X78509200Y-63100133D01*
X78509200Y-64974133D01*
X78489198Y-65042254D01*
X78435542Y-65088747D01*
X78383200Y-65100133D01*
X76509200Y-65100133D01*
X76509200Y-66974133D01*
X76489198Y-67042254D01*
X76435542Y-67088747D01*
X76383200Y-67100133D01*
X74481354Y-67100133D01*
X74480383Y-67100663D01*
X74472973Y-67100133D01*
X74457009Y-67100133D01*
X74457009Y-67098991D01*
X74409568Y-67095598D01*
X74352732Y-67053051D01*
X74327921Y-66986531D01*
X74327600Y-66977542D01*
X74327600Y-65226133D01*
X74347602Y-65158012D01*
X74401258Y-65111519D01*
X74453600Y-65100133D01*
X74509200Y-65100133D01*
X74509200Y-63226133D01*
X74529202Y-63158012D01*
X74582858Y-63111519D01*
X74635200Y-63100133D01*
X76509200Y-63100133D01*
X76509200Y-61226133D01*
X76529202Y-61158012D01*
X76582858Y-61111519D01*
X76635200Y-61100133D01*
X78509200Y-61100133D01*
X78509200Y-59226133D01*
X78529202Y-59158012D01*
X78582858Y-59111519D01*
X78635200Y-59100133D01*
X80509200Y-59100133D01*
X80509200Y-57226133D01*
X80529202Y-57158012D01*
X80582858Y-57111519D01*
X80635200Y-57100133D01*
X82509200Y-57100133D01*
X82509200Y-55226133D01*
X82529202Y-55158012D01*
X82582858Y-55111519D01*
X82635200Y-55100133D01*
X84509200Y-55100133D01*
X84509200Y-54897600D01*
X84529202Y-54829479D01*
X84582858Y-54782986D01*
X84635200Y-54771600D01*
X88383200Y-54771600D01*
X88451321Y-54791602D01*
G37*
G04 #@! TD.AperFunction*
G04 #@! TA.AperFunction,NonConductor*
G36*
X115166621Y-63120135D02*
G01*
X115213114Y-63173791D01*
X115224500Y-63226133D01*
X115224500Y-66974133D01*
X115204498Y-67042254D01*
X115150842Y-67088747D01*
X115098500Y-67100133D01*
X114509200Y-67100133D01*
X114509200Y-68974133D01*
X114489198Y-69042254D01*
X114435542Y-69088747D01*
X114383200Y-69100133D01*
X112553600Y-69100133D01*
X112485479Y-69080131D01*
X112438986Y-69026475D01*
X112427600Y-68974133D01*
X112427600Y-67226133D01*
X112447602Y-67158012D01*
X112475467Y-67133866D01*
X112509200Y-67100134D01*
X112509200Y-65226133D01*
X112529202Y-65158012D01*
X112582858Y-65111519D01*
X112635200Y-65100133D01*
X114509200Y-65100133D01*
X114509200Y-63226133D01*
X114529202Y-63158012D01*
X114582858Y-63111519D01*
X114635200Y-63100133D01*
X115098500Y-63100133D01*
X115166621Y-63120135D01*
G37*
G04 #@! TD.AperFunction*
G04 #@! TA.AperFunction,NonConductor*
G36*
X60068721Y-63120135D02*
G01*
X60115214Y-63173791D01*
X60126600Y-63226133D01*
X60126600Y-66974133D01*
X60106598Y-67042254D01*
X60052942Y-67088747D01*
X60000600Y-67100133D01*
X58509200Y-67100133D01*
X58509200Y-68974133D01*
X58489198Y-69042254D01*
X58435542Y-69088747D01*
X58383200Y-69100133D01*
X56509200Y-69100133D01*
X56509200Y-70974133D01*
X56489198Y-71042254D01*
X56435542Y-71088747D01*
X56383200Y-71100133D01*
X55403600Y-71100133D01*
X55335479Y-71080131D01*
X55288986Y-71026475D01*
X55277600Y-70974133D01*
X55277600Y-67226133D01*
X55297602Y-67158012D01*
X55351258Y-67111519D01*
X55403600Y-67100133D01*
X56509200Y-67100133D01*
X56509200Y-65226133D01*
X56529202Y-65158012D01*
X56582858Y-65111519D01*
X56635200Y-65100133D01*
X58509200Y-65100133D01*
X58509200Y-63226133D01*
X58529202Y-63158012D01*
X58582858Y-63111519D01*
X58635200Y-63100133D01*
X60000600Y-63100133D01*
X60068721Y-63120135D01*
G37*
G04 #@! TD.AperFunction*
G04 #@! TA.AperFunction,NonConductor*
G36*
X98168721Y-65120135D02*
G01*
X98215214Y-65173791D01*
X98226600Y-65226133D01*
X98226600Y-68974133D01*
X98206598Y-69042254D01*
X98152942Y-69088747D01*
X98100600Y-69100133D01*
X96509200Y-69100133D01*
X96509200Y-70974133D01*
X96489198Y-71042254D01*
X96435542Y-71088747D01*
X96383200Y-71100133D01*
X94509200Y-71100133D01*
X94509200Y-72974133D01*
X94489198Y-73042254D01*
X94435542Y-73088747D01*
X94383200Y-73100133D01*
X93503600Y-73100133D01*
X93435479Y-73080131D01*
X93388986Y-73026475D01*
X93377600Y-72974133D01*
X93377600Y-69226133D01*
X93397602Y-69158012D01*
X93451258Y-69111519D01*
X93503600Y-69100133D01*
X94509200Y-69100133D01*
X94509200Y-67226133D01*
X94529202Y-67158012D01*
X94582858Y-67111519D01*
X94635200Y-67100133D01*
X96509200Y-67100133D01*
X96509200Y-65226133D01*
X96529202Y-65158012D01*
X96582858Y-65111519D01*
X96635200Y-65100133D01*
X98100600Y-65100133D01*
X98168721Y-65120135D01*
G37*
G04 #@! TD.AperFunction*
G04 #@! TA.AperFunction,NonConductor*
G36*
X48451321Y-61935402D02*
G01*
X48497814Y-61989058D01*
X48509200Y-62041400D01*
X48509200Y-62974133D01*
X48489198Y-63042254D01*
X48435542Y-63088747D01*
X48383200Y-63100133D01*
X46509200Y-63100133D01*
X46509200Y-64974133D01*
X46489198Y-65042254D01*
X46435542Y-65088747D01*
X46383200Y-65100133D01*
X44509200Y-65100133D01*
X44509200Y-66638400D01*
X44489198Y-66706521D01*
X44435542Y-66753014D01*
X44383200Y-66764400D01*
X41162209Y-66764400D01*
X41141291Y-66760239D01*
X41127100Y-66760239D01*
X41117055Y-66764400D01*
X41088450Y-66776248D01*
X41088449Y-66776248D01*
X41088449Y-66776249D01*
X41072439Y-66814900D01*
X41072439Y-66814901D01*
X41072439Y-66829093D01*
X41076600Y-66850009D01*
X41076600Y-68974133D01*
X41056598Y-69042254D01*
X41002942Y-69088747D01*
X40950600Y-69100133D01*
X40509200Y-69100133D01*
X40509200Y-70974133D01*
X40489198Y-71042254D01*
X40435542Y-71088747D01*
X40383200Y-71100133D01*
X38509200Y-71100133D01*
X38509200Y-72974133D01*
X38489198Y-73042254D01*
X38435542Y-73088747D01*
X38383200Y-73100133D01*
X36509200Y-73100133D01*
X36509200Y-74974133D01*
X36489198Y-75042254D01*
X36435542Y-75088747D01*
X36383200Y-75100133D01*
X36353600Y-75100133D01*
X36285479Y-75080131D01*
X36238986Y-75026475D01*
X36227600Y-74974133D01*
X36227600Y-71226133D01*
X36247602Y-71158012D01*
X36301258Y-71111519D01*
X36353600Y-71100133D01*
X36509200Y-71100133D01*
X36509200Y-69226133D01*
X36529202Y-69158012D01*
X36582858Y-69111519D01*
X36635200Y-69100133D01*
X38509200Y-69100133D01*
X38509200Y-67226133D01*
X38529202Y-67158012D01*
X38582858Y-67111519D01*
X38635200Y-67100133D01*
X40509200Y-67100133D01*
X40509200Y-65226133D01*
X40529202Y-65158012D01*
X40582858Y-65111519D01*
X40635200Y-65100133D01*
X42509200Y-65100133D01*
X42509200Y-63226133D01*
X42529202Y-63158012D01*
X42582858Y-63111519D01*
X42635200Y-63100133D01*
X44509200Y-63100133D01*
X44509200Y-62041400D01*
X44529202Y-61973279D01*
X44582858Y-61926786D01*
X44635200Y-61915400D01*
X48383200Y-61915400D01*
X48451321Y-61935402D01*
G37*
G04 #@! TD.AperFunction*
G04 #@! TA.AperFunction,NonConductor*
G36*
X21968721Y-69120135D02*
G01*
X22015214Y-69173791D01*
X22026600Y-69226133D01*
X22026600Y-72974133D01*
X22006598Y-73042254D01*
X21952942Y-73088747D01*
X21900600Y-73100133D01*
X20509200Y-73100133D01*
X20509200Y-74974133D01*
X20489198Y-75042254D01*
X20435542Y-75088747D01*
X20383200Y-75100133D01*
X19451500Y-75100133D01*
X19383379Y-75080131D01*
X19336886Y-75026475D01*
X19325500Y-74974133D01*
X19325500Y-71226133D01*
X19345502Y-71158012D01*
X19399158Y-71111519D01*
X19451500Y-71100133D01*
X20509200Y-71100133D01*
X20509200Y-69226133D01*
X20529202Y-69158012D01*
X20582858Y-69111519D01*
X20635200Y-69100133D01*
X21900600Y-69100133D01*
X21968721Y-69120135D01*
G37*
G04 #@! TD.AperFunction*
G04 #@! TA.AperFunction,NonConductor*
G36*
X115166621Y-71120135D02*
G01*
X115213114Y-71173791D01*
X115224500Y-71226133D01*
X115224500Y-74974133D01*
X115204498Y-75042254D01*
X115150842Y-75088747D01*
X115098500Y-75100133D01*
X114509200Y-75100133D01*
X114509200Y-76974133D01*
X114489198Y-77042254D01*
X114435542Y-77088747D01*
X114383200Y-77100133D01*
X112509200Y-77100133D01*
X112509200Y-78540439D01*
X112489198Y-78608560D01*
X112435542Y-78655053D01*
X112383200Y-78666439D01*
X112362909Y-78666439D01*
X112341991Y-78670600D01*
X108635200Y-78670600D01*
X108567079Y-78650598D01*
X108520586Y-78596942D01*
X108509200Y-78544600D01*
X108509200Y-77226133D01*
X108529202Y-77158012D01*
X108582858Y-77111519D01*
X108635200Y-77100133D01*
X110509200Y-77100133D01*
X110509200Y-75226133D01*
X110529202Y-75158012D01*
X110582858Y-75111519D01*
X110635200Y-75100133D01*
X112509200Y-75100133D01*
X112509200Y-73226133D01*
X112529202Y-73158012D01*
X112582858Y-73111519D01*
X112635200Y-73100133D01*
X114509200Y-73100133D01*
X114509200Y-71226133D01*
X114529202Y-71158012D01*
X114582858Y-71111519D01*
X114635200Y-71100133D01*
X115098500Y-71100133D01*
X115166621Y-71120135D01*
G37*
G04 #@! TD.AperFunction*
G04 #@! TA.AperFunction,NonConductor*
G36*
X108451321Y-73841602D02*
G01*
X108497814Y-73895258D01*
X108509200Y-73947600D01*
X108509200Y-74974133D01*
X108489198Y-75042254D01*
X108435542Y-75088747D01*
X108383200Y-75100133D01*
X106509200Y-75100133D01*
X106509200Y-76974133D01*
X106489198Y-77042254D01*
X106435542Y-77088747D01*
X106383200Y-77100133D01*
X104509200Y-77100133D01*
X104509200Y-78544600D01*
X104489198Y-78612721D01*
X104435542Y-78659214D01*
X104383200Y-78670600D01*
X100635200Y-78670600D01*
X100567079Y-78650598D01*
X100520586Y-78596942D01*
X100509200Y-78544600D01*
X100509200Y-77226133D01*
X100529202Y-77158012D01*
X100582858Y-77111519D01*
X100635200Y-77100133D01*
X102509200Y-77100133D01*
X102509200Y-75226133D01*
X102529202Y-75158012D01*
X102582858Y-75111519D01*
X102635200Y-75100133D01*
X104509200Y-75100133D01*
X104509200Y-73947600D01*
X104529202Y-73879479D01*
X104582858Y-73832986D01*
X104635200Y-73821600D01*
X108383200Y-73821600D01*
X108451321Y-73841602D01*
G37*
G04 #@! TD.AperFunction*
G04 #@! TA.AperFunction,NonConductor*
G36*
X92451321Y-73841602D02*
G01*
X92497814Y-73895258D01*
X92509200Y-73947600D01*
X92509200Y-74974133D01*
X92489198Y-75042254D01*
X92435542Y-75088747D01*
X92383200Y-75100133D01*
X90509200Y-75100133D01*
X90509200Y-76974133D01*
X90489198Y-77042254D01*
X90435542Y-77088747D01*
X90383200Y-77100133D01*
X88509200Y-77100133D01*
X88509200Y-78544600D01*
X88489198Y-78612721D01*
X88435542Y-78659214D01*
X88383200Y-78670600D01*
X84635200Y-78670600D01*
X84567079Y-78650598D01*
X84520586Y-78596942D01*
X84509200Y-78544600D01*
X84509200Y-77226133D01*
X84529202Y-77158012D01*
X84582858Y-77111519D01*
X84635200Y-77100133D01*
X86509200Y-77100133D01*
X86509200Y-75226133D01*
X86529202Y-75158012D01*
X86582858Y-75111519D01*
X86635200Y-75100133D01*
X88509200Y-75100133D01*
X88509200Y-73947600D01*
X88529202Y-73879479D01*
X88582858Y-73832986D01*
X88635200Y-73821600D01*
X92383200Y-73821600D01*
X92451321Y-73841602D01*
G37*
G04 #@! TD.AperFunction*
G04 #@! TA.AperFunction,NonConductor*
G36*
X79118721Y-67120135D02*
G01*
X79165214Y-67173791D01*
X79176600Y-67226133D01*
X79176600Y-70974133D01*
X79156598Y-71042254D01*
X79102942Y-71088747D01*
X79050600Y-71100133D01*
X78509200Y-71100133D01*
X78509200Y-72974133D01*
X78489198Y-73042254D01*
X78435542Y-73088747D01*
X78383200Y-73100133D01*
X76509200Y-73100133D01*
X76509200Y-74974133D01*
X76489198Y-75042254D01*
X76435542Y-75088747D01*
X76383200Y-75100133D01*
X74509200Y-75100133D01*
X74509200Y-76974133D01*
X74489198Y-77042254D01*
X74435542Y-77088747D01*
X74383200Y-77100133D01*
X72509200Y-77100133D01*
X72509200Y-78544600D01*
X72489198Y-78612721D01*
X72435542Y-78659214D01*
X72383200Y-78670600D01*
X68635200Y-78670600D01*
X68567079Y-78650598D01*
X68520586Y-78596942D01*
X68509200Y-78544600D01*
X68509200Y-77226133D01*
X68529202Y-77158012D01*
X68582858Y-77111519D01*
X68635200Y-77100133D01*
X70509200Y-77100133D01*
X70509200Y-75226133D01*
X70529202Y-75158012D01*
X70582858Y-75111519D01*
X70635200Y-75100133D01*
X72509200Y-75100133D01*
X72509200Y-73947600D01*
X72529202Y-73879479D01*
X72582858Y-73832986D01*
X72635200Y-73821600D01*
X74241990Y-73821600D01*
X74262908Y-73825761D01*
X74277098Y-73825761D01*
X74277099Y-73825760D01*
X74277100Y-73825761D01*
X74315751Y-73809751D01*
X74327600Y-73781145D01*
X74331761Y-73771100D01*
X74331761Y-73771099D01*
X74331761Y-73756912D01*
X74327600Y-73735992D01*
X74327600Y-73226133D01*
X74347602Y-73158012D01*
X74401258Y-73111519D01*
X74453600Y-73100133D01*
X74509200Y-73100133D01*
X74509200Y-71226133D01*
X74529202Y-71158012D01*
X74582858Y-71111519D01*
X74635200Y-71100133D01*
X76509200Y-71100133D01*
X76509200Y-69226133D01*
X76529202Y-69158012D01*
X76582858Y-69111519D01*
X76635200Y-69100133D01*
X78509200Y-69100133D01*
X78509200Y-67226133D01*
X78529202Y-67158012D01*
X78582858Y-67111519D01*
X78635200Y-67100133D01*
X79050600Y-67100133D01*
X79118721Y-67120135D01*
G37*
G04 #@! TD.AperFunction*
G04 #@! TA.AperFunction,NonConductor*
G36*
X68451321Y-73841602D02*
G01*
X68497814Y-73895258D01*
X68509200Y-73947600D01*
X68509200Y-74974133D01*
X68489198Y-75042254D01*
X68435542Y-75088747D01*
X68383200Y-75100133D01*
X66509200Y-75100133D01*
X66509200Y-76974133D01*
X66489198Y-77042254D01*
X66435542Y-77088747D01*
X66383200Y-77100133D01*
X64509200Y-77100133D01*
X64509200Y-78544600D01*
X64489198Y-78612721D01*
X64435542Y-78659214D01*
X64383200Y-78670600D01*
X60635200Y-78670600D01*
X60567079Y-78650598D01*
X60520586Y-78596942D01*
X60509200Y-78544600D01*
X60509200Y-77226133D01*
X60529202Y-77158012D01*
X60582858Y-77111519D01*
X60635200Y-77100133D01*
X62509200Y-77100133D01*
X62509200Y-75226133D01*
X62529202Y-75158012D01*
X62582858Y-75111519D01*
X62635200Y-75100133D01*
X64509200Y-75100133D01*
X64509200Y-73947600D01*
X64529202Y-73879479D01*
X64582858Y-73832986D01*
X64635200Y-73821600D01*
X68383200Y-73821600D01*
X68451321Y-73841602D01*
G37*
G04 #@! TD.AperFunction*
G04 #@! TA.AperFunction,NonConductor*
G36*
X60068721Y-71120135D02*
G01*
X60115214Y-71173791D01*
X60126600Y-71226133D01*
X60126600Y-73735992D01*
X60122439Y-73756912D01*
X60122439Y-73771099D01*
X60126600Y-73781144D01*
X60138448Y-73809750D01*
X60138449Y-73809751D01*
X60177100Y-73825761D01*
X60177100Y-73825760D01*
X60177102Y-73825761D01*
X60191292Y-73825761D01*
X60212210Y-73821600D01*
X60383200Y-73821600D01*
X60451321Y-73841602D01*
X60497814Y-73895258D01*
X60509200Y-73947600D01*
X60509200Y-74974133D01*
X60489198Y-75042254D01*
X60435542Y-75088747D01*
X60383200Y-75100133D01*
X58509200Y-75100133D01*
X58509200Y-76974133D01*
X58489198Y-77042254D01*
X58435542Y-77088747D01*
X58383200Y-77100133D01*
X56509200Y-77100133D01*
X56509200Y-78974133D01*
X56489198Y-79042254D01*
X56435542Y-79088747D01*
X56383200Y-79100133D01*
X55403600Y-79100133D01*
X55335479Y-79080131D01*
X55288986Y-79026475D01*
X55277600Y-78974133D01*
X55277600Y-75226133D01*
X55297602Y-75158012D01*
X55351258Y-75111519D01*
X55403600Y-75100133D01*
X56509200Y-75100133D01*
X56509200Y-73226133D01*
X56529202Y-73158012D01*
X56582858Y-73111519D01*
X56635200Y-73100133D01*
X58509200Y-73100133D01*
X58509200Y-71226133D01*
X58529202Y-71158012D01*
X58582858Y-71111519D01*
X58635200Y-71100133D01*
X60000600Y-71100133D01*
X60068721Y-71120135D01*
G37*
G04 #@! TD.AperFunction*
G04 #@! TA.AperFunction,NonConductor*
G36*
X98168721Y-73120135D02*
G01*
X98215214Y-73173791D01*
X98226600Y-73226133D01*
X98226600Y-73735992D01*
X98222439Y-73756912D01*
X98222439Y-73771099D01*
X98226600Y-73781144D01*
X98238448Y-73809750D01*
X98238449Y-73809751D01*
X98277100Y-73825761D01*
X98277100Y-73825760D01*
X98277102Y-73825761D01*
X98291292Y-73825761D01*
X98312210Y-73821600D01*
X100383200Y-73821600D01*
X100451321Y-73841602D01*
X100497814Y-73895258D01*
X100509200Y-73947600D01*
X100509200Y-74974133D01*
X100489198Y-75042254D01*
X100435542Y-75088747D01*
X100383200Y-75100133D01*
X98509200Y-75100133D01*
X98509200Y-76974133D01*
X98489198Y-77042254D01*
X98435542Y-77088747D01*
X98383200Y-77100133D01*
X96509200Y-77100133D01*
X96509200Y-78974133D01*
X96489198Y-79042254D01*
X96435542Y-79088747D01*
X96383200Y-79100133D01*
X94509200Y-79100133D01*
X94509200Y-80974133D01*
X94489198Y-81042254D01*
X94435542Y-81088747D01*
X94383200Y-81100133D01*
X93503600Y-81100133D01*
X93435479Y-81080131D01*
X93388986Y-81026475D01*
X93377600Y-80974133D01*
X93377600Y-78756209D01*
X93381761Y-78735293D01*
X93381761Y-78721101D01*
X93381761Y-78721100D01*
X93365751Y-78682449D01*
X93337145Y-78670600D01*
X93327100Y-78666439D01*
X93312909Y-78666439D01*
X93291991Y-78670600D01*
X92635200Y-78670600D01*
X92567079Y-78650598D01*
X92520586Y-78596942D01*
X92509200Y-78544600D01*
X92509200Y-77226133D01*
X92529202Y-77158012D01*
X92582858Y-77111519D01*
X92635200Y-77100133D01*
X94509200Y-77100133D01*
X94509200Y-75226133D01*
X94529202Y-75158012D01*
X94582858Y-75111519D01*
X94635200Y-75100133D01*
X96509200Y-75100133D01*
X96509200Y-73226133D01*
X96529202Y-73158012D01*
X96582858Y-73111519D01*
X96635200Y-73100133D01*
X98100600Y-73100133D01*
X98168721Y-73120135D01*
G37*
G04 #@! TD.AperFunction*
G04 #@! TA.AperFunction,NonConductor*
G36*
X21968721Y-77120135D02*
G01*
X22015214Y-77173791D01*
X22026600Y-77226133D01*
X22026600Y-80879792D01*
X22022439Y-80900712D01*
X22022439Y-80914899D01*
X22022439Y-80914900D01*
X22026600Y-80924945D01*
X22027018Y-80925953D01*
X22034584Y-80996545D01*
X22002783Y-81060022D01*
X21941714Y-81096229D01*
X21910593Y-81100133D01*
X20509200Y-81100133D01*
X20509200Y-82974133D01*
X20489198Y-83042254D01*
X20435542Y-83088747D01*
X20383200Y-83100133D01*
X19451500Y-83100133D01*
X19383379Y-83080131D01*
X19336886Y-83026475D01*
X19325500Y-82974133D01*
X19325500Y-79226133D01*
X19345502Y-79158012D01*
X19399158Y-79111519D01*
X19451500Y-79100133D01*
X20509200Y-79100133D01*
X20509200Y-77226133D01*
X20529202Y-77158012D01*
X20582858Y-77111519D01*
X20635200Y-77100133D01*
X21900600Y-77100133D01*
X21968721Y-77120135D01*
G37*
G04 #@! TD.AperFunction*
G04 #@! TA.AperFunction,NonConductor*
G36*
X84451321Y-73841602D02*
G01*
X84497814Y-73895258D01*
X84509200Y-73947600D01*
X84509200Y-74974133D01*
X84489198Y-75042254D01*
X84435542Y-75088747D01*
X84383200Y-75100133D01*
X82509200Y-75100133D01*
X82509200Y-76974133D01*
X82489198Y-77042254D01*
X82435542Y-77088747D01*
X82383200Y-77100133D01*
X80509200Y-77100133D01*
X80509200Y-78544600D01*
X80489198Y-78612721D01*
X80435542Y-78659214D01*
X80383200Y-78670600D01*
X79262209Y-78670600D01*
X79241291Y-78666439D01*
X79227100Y-78666439D01*
X79217055Y-78670600D01*
X79188450Y-78682448D01*
X79188449Y-78682448D01*
X79188449Y-78682449D01*
X79172439Y-78721100D01*
X79172439Y-78721101D01*
X79172439Y-78735293D01*
X79176600Y-78756209D01*
X79176600Y-78974133D01*
X79156598Y-79042254D01*
X79102942Y-79088747D01*
X79050600Y-79100133D01*
X78509200Y-79100133D01*
X78509200Y-80974133D01*
X78489198Y-81042254D01*
X78435542Y-81088747D01*
X78383200Y-81100133D01*
X76509200Y-81100133D01*
X76509200Y-82974133D01*
X76489198Y-83042254D01*
X76435542Y-83088747D01*
X76383200Y-83100133D01*
X74481354Y-83100133D01*
X74480383Y-83100663D01*
X74472973Y-83100133D01*
X74457009Y-83100133D01*
X74457009Y-83098991D01*
X74409568Y-83095598D01*
X74352732Y-83053051D01*
X74327921Y-82986531D01*
X74327600Y-82977542D01*
X74327600Y-81226133D01*
X74347602Y-81158012D01*
X74401258Y-81111519D01*
X74453600Y-81100133D01*
X74509200Y-81100133D01*
X74509200Y-79226133D01*
X74529202Y-79158012D01*
X74582858Y-79111519D01*
X74635200Y-79100133D01*
X76509200Y-79100133D01*
X76509200Y-77226133D01*
X76529202Y-77158012D01*
X76582858Y-77111519D01*
X76635200Y-77100133D01*
X78509200Y-77100133D01*
X78509200Y-75226133D01*
X78529202Y-75158012D01*
X78582858Y-75111519D01*
X78635200Y-75100133D01*
X80509200Y-75100133D01*
X80509200Y-73947600D01*
X80529202Y-73879479D01*
X80582858Y-73832986D01*
X80635200Y-73821600D01*
X84383200Y-73821600D01*
X84451321Y-73841602D01*
G37*
G04 #@! TD.AperFunction*
G04 #@! TA.AperFunction,NonConductor*
G36*
X115166621Y-79120135D02*
G01*
X115213114Y-79173791D01*
X115224500Y-79226133D01*
X115224500Y-82974133D01*
X115204498Y-83042254D01*
X115150842Y-83088747D01*
X115098500Y-83100133D01*
X114509200Y-83100133D01*
X114509200Y-84974133D01*
X114489198Y-85042254D01*
X114435542Y-85088747D01*
X114383200Y-85100133D01*
X112553600Y-85100133D01*
X112485479Y-85080131D01*
X112438986Y-85026475D01*
X112427600Y-84974133D01*
X112427600Y-83226133D01*
X112447602Y-83158012D01*
X112475467Y-83133866D01*
X112509200Y-83100134D01*
X112509200Y-81226133D01*
X112529202Y-81158012D01*
X112582858Y-81111519D01*
X112635200Y-81100133D01*
X114509200Y-81100133D01*
X114509200Y-79226133D01*
X114529202Y-79158012D01*
X114582858Y-79111519D01*
X114635200Y-79100133D01*
X115098500Y-79100133D01*
X115166621Y-79120135D01*
G37*
G04 #@! TD.AperFunction*
G04 #@! TA.AperFunction,NonConductor*
G36*
X98168721Y-81120135D02*
G01*
X98215214Y-81173791D01*
X98226600Y-81226133D01*
X98226600Y-84974133D01*
X98206598Y-85042254D01*
X98152942Y-85088747D01*
X98100600Y-85100133D01*
X96509200Y-85100133D01*
X96509200Y-86974133D01*
X96489198Y-87042254D01*
X96435542Y-87088747D01*
X96383200Y-87100133D01*
X94509200Y-87100133D01*
X94509200Y-88974133D01*
X94489198Y-89042254D01*
X94435542Y-89088747D01*
X94383200Y-89100133D01*
X93503600Y-89100133D01*
X93435479Y-89080131D01*
X93388986Y-89026475D01*
X93377600Y-88974133D01*
X93377600Y-85226133D01*
X93397602Y-85158012D01*
X93451258Y-85111519D01*
X93503600Y-85100133D01*
X94509200Y-85100133D01*
X94509200Y-83226133D01*
X94529202Y-83158012D01*
X94582858Y-83111519D01*
X94635200Y-83100133D01*
X96509200Y-83100133D01*
X96509200Y-81226133D01*
X96529202Y-81158012D01*
X96582858Y-81111519D01*
X96635200Y-81100133D01*
X98100600Y-81100133D01*
X98168721Y-81120135D01*
G37*
G04 #@! TD.AperFunction*
G04 #@! TA.AperFunction,NonConductor*
G36*
X28451321Y-80985402D02*
G01*
X28497814Y-81039058D01*
X28509200Y-81091400D01*
X28509200Y-82974133D01*
X28489198Y-83042254D01*
X28435542Y-83088747D01*
X28383200Y-83100133D01*
X26509200Y-83100133D01*
X26509200Y-84974133D01*
X26489198Y-85042254D01*
X26435542Y-85088747D01*
X26383200Y-85100133D01*
X24509200Y-85100133D01*
X24509200Y-86974133D01*
X24489198Y-87042254D01*
X24435542Y-87088747D01*
X24383200Y-87100133D01*
X22509200Y-87100133D01*
X22509200Y-88974133D01*
X22489198Y-89042254D01*
X22435542Y-89088747D01*
X22383200Y-89100133D01*
X20509200Y-89100133D01*
X20509200Y-90974133D01*
X20489198Y-91042254D01*
X20435542Y-91088747D01*
X20383200Y-91100133D01*
X19451500Y-91100133D01*
X19383379Y-91080131D01*
X19336886Y-91026475D01*
X19325500Y-90974133D01*
X19325500Y-87226133D01*
X19345502Y-87158012D01*
X19399158Y-87111519D01*
X19451500Y-87100133D01*
X20509200Y-87100133D01*
X20509200Y-85226133D01*
X20529202Y-85158012D01*
X20582858Y-85111519D01*
X20635200Y-85100133D01*
X22509200Y-85100133D01*
X22509200Y-83226133D01*
X22529202Y-83158012D01*
X22582858Y-83111519D01*
X22635200Y-83100133D01*
X24509200Y-83100133D01*
X24509200Y-81226133D01*
X24529202Y-81158012D01*
X24582858Y-81111519D01*
X24635200Y-81100133D01*
X26509200Y-81100133D01*
X26509200Y-81091400D01*
X26529202Y-81023279D01*
X26582858Y-80976786D01*
X26635200Y-80965400D01*
X28383200Y-80965400D01*
X28451321Y-80985402D01*
G37*
G04 #@! TD.AperFunction*
G04 #@! TA.AperFunction,NonConductor*
G36*
X79118721Y-83120135D02*
G01*
X79165214Y-83173791D01*
X79176600Y-83226133D01*
X79176600Y-86974133D01*
X79156598Y-87042254D01*
X79102942Y-87088747D01*
X79050600Y-87100133D01*
X78509200Y-87100133D01*
X78509200Y-88974133D01*
X78489198Y-89042254D01*
X78435542Y-89088747D01*
X78383200Y-89100133D01*
X76509200Y-89100133D01*
X76509200Y-90974133D01*
X76489198Y-91042254D01*
X76435542Y-91088747D01*
X76383200Y-91100133D01*
X74481354Y-91100133D01*
X74480383Y-91100663D01*
X74472973Y-91100133D01*
X74457009Y-91100133D01*
X74457009Y-91098991D01*
X74409568Y-91095598D01*
X74352732Y-91053051D01*
X74327921Y-90986531D01*
X74327600Y-90977542D01*
X74327600Y-89226133D01*
X74347602Y-89158012D01*
X74401258Y-89111519D01*
X74453600Y-89100133D01*
X74509200Y-89100133D01*
X74509200Y-87226133D01*
X74529202Y-87158012D01*
X74582858Y-87111519D01*
X74635200Y-87100133D01*
X76509200Y-87100133D01*
X76509200Y-85226133D01*
X76529202Y-85158012D01*
X76582858Y-85111519D01*
X76635200Y-85100133D01*
X78509200Y-85100133D01*
X78509200Y-83226133D01*
X78529202Y-83158012D01*
X78582858Y-83111519D01*
X78635200Y-83100133D01*
X79050600Y-83100133D01*
X79118721Y-83120135D01*
G37*
G04 #@! TD.AperFunction*
G04 #@! TA.AperFunction,NonConductor*
G36*
X52451321Y-80985402D02*
G01*
X52497814Y-81039058D01*
X52509200Y-81091400D01*
X52509200Y-82974133D01*
X52489198Y-83042254D01*
X52435542Y-83088747D01*
X52383200Y-83100133D01*
X50509200Y-83100133D01*
X50509200Y-84974133D01*
X50489198Y-85042254D01*
X50435542Y-85088747D01*
X50383200Y-85100133D01*
X48509200Y-85100133D01*
X48509200Y-86974133D01*
X48489198Y-87042254D01*
X48435542Y-87088747D01*
X48383200Y-87100133D01*
X46509200Y-87100133D01*
X46509200Y-88974133D01*
X46489198Y-89042254D01*
X46435542Y-89088747D01*
X46383200Y-89100133D01*
X44509200Y-89100133D01*
X44509200Y-90974133D01*
X44489198Y-91042254D01*
X44435542Y-91088747D01*
X44383200Y-91100133D01*
X42509200Y-91100133D01*
X42509200Y-92832100D01*
X42489198Y-92900221D01*
X42435542Y-92946714D01*
X42383200Y-92958100D01*
X38635200Y-92958100D01*
X38567079Y-92938098D01*
X38520586Y-92884442D01*
X38509200Y-92832100D01*
X38509200Y-91226133D01*
X38529202Y-91158012D01*
X38582858Y-91111519D01*
X38635200Y-91100133D01*
X40509200Y-91100133D01*
X40509200Y-89226133D01*
X40529202Y-89158012D01*
X40582858Y-89111519D01*
X40635200Y-89100133D01*
X42509200Y-89100133D01*
X42509200Y-87226133D01*
X42529202Y-87158012D01*
X42582858Y-87111519D01*
X42635200Y-87100133D01*
X44509200Y-87100133D01*
X44509200Y-85226133D01*
X44529202Y-85158012D01*
X44582858Y-85111519D01*
X44635200Y-85100133D01*
X46509200Y-85100133D01*
X46509200Y-83226133D01*
X46529202Y-83158012D01*
X46582858Y-83111519D01*
X46635200Y-83100133D01*
X48509200Y-83100133D01*
X48509200Y-81226133D01*
X48529202Y-81158012D01*
X48582858Y-81111519D01*
X48635200Y-81100133D01*
X50509200Y-81100133D01*
X50509200Y-81091400D01*
X50529202Y-81023279D01*
X50582858Y-80976786D01*
X50635200Y-80965400D01*
X52383200Y-80965400D01*
X52451321Y-80985402D01*
G37*
G04 #@! TD.AperFunction*
G04 #@! TA.AperFunction,NonConductor*
G36*
X60068721Y-79120135D02*
G01*
X60115214Y-79173791D01*
X60126600Y-79226133D01*
X60126600Y-82974133D01*
X60106598Y-83042254D01*
X60052942Y-83088747D01*
X60000600Y-83100133D01*
X58509200Y-83100133D01*
X58509200Y-84974133D01*
X58489198Y-85042254D01*
X58435542Y-85088747D01*
X58383200Y-85100133D01*
X56509200Y-85100133D01*
X56509200Y-86974133D01*
X56489198Y-87042254D01*
X56435542Y-87088747D01*
X56383200Y-87100133D01*
X54509200Y-87100133D01*
X54509200Y-88974133D01*
X54489198Y-89042254D01*
X54435542Y-89088747D01*
X54383200Y-89100133D01*
X52509200Y-89100133D01*
X52509200Y-90974133D01*
X52489198Y-91042254D01*
X52435542Y-91088747D01*
X52383200Y-91100133D01*
X50509200Y-91100133D01*
X50509200Y-92974133D01*
X50489198Y-93042254D01*
X50435542Y-93088747D01*
X50383200Y-93100133D01*
X48509200Y-93100133D01*
X48509200Y-94974133D01*
X48489198Y-95042254D01*
X48435542Y-95088747D01*
X48383200Y-95100133D01*
X46509200Y-95100133D01*
X46509200Y-96974133D01*
X46489198Y-97042254D01*
X46435542Y-97088747D01*
X46383200Y-97100133D01*
X45878600Y-97100133D01*
X45810479Y-97080131D01*
X45763986Y-97026475D01*
X45752600Y-96974133D01*
X45752600Y-93226133D01*
X45772602Y-93158012D01*
X45826258Y-93111519D01*
X45878600Y-93100133D01*
X46509200Y-93100133D01*
X46509200Y-91226133D01*
X46529202Y-91158012D01*
X46582858Y-91111519D01*
X46635200Y-91100133D01*
X48509200Y-91100133D01*
X48509200Y-89226133D01*
X48529202Y-89158012D01*
X48582858Y-89111519D01*
X48635200Y-89100133D01*
X50509200Y-89100133D01*
X50509200Y-87226133D01*
X50529202Y-87158012D01*
X50582858Y-87111519D01*
X50635200Y-87100133D01*
X52509200Y-87100133D01*
X52509200Y-85226133D01*
X52529202Y-85158012D01*
X52582858Y-85111519D01*
X52635200Y-85100133D01*
X54509200Y-85100133D01*
X54509200Y-83226133D01*
X54529202Y-83158012D01*
X54582858Y-83111519D01*
X54635200Y-83100133D01*
X56509200Y-83100133D01*
X56509200Y-81226133D01*
X56529202Y-81158012D01*
X56582858Y-81111519D01*
X56635200Y-81100133D01*
X58509200Y-81100133D01*
X58509200Y-79226133D01*
X58529202Y-79158012D01*
X58582858Y-79111519D01*
X58635200Y-79100133D01*
X60000600Y-79100133D01*
X60068721Y-79120135D01*
G37*
G04 #@! TD.AperFunction*
G04 #@! TA.AperFunction,NonConductor*
G36*
X115166621Y-87120135D02*
G01*
X115213114Y-87173791D01*
X115224500Y-87226133D01*
X115224500Y-90974133D01*
X115204498Y-91042254D01*
X115150842Y-91088747D01*
X115098500Y-91100133D01*
X114509200Y-91100133D01*
X114509200Y-92974133D01*
X114489198Y-93042254D01*
X114435542Y-93088747D01*
X114383200Y-93100133D01*
X112509200Y-93100133D01*
X112509200Y-94974133D01*
X112489198Y-95042254D01*
X112435542Y-95088747D01*
X112383200Y-95100133D01*
X110509200Y-95100133D01*
X110509200Y-96974133D01*
X110489198Y-97042254D01*
X110435542Y-97088747D01*
X110383200Y-97100133D01*
X108509200Y-97100133D01*
X108509200Y-97594600D01*
X108489198Y-97662721D01*
X108435542Y-97709214D01*
X108383200Y-97720600D01*
X104635200Y-97720600D01*
X104567079Y-97700598D01*
X104520586Y-97646942D01*
X104509200Y-97594600D01*
X104509200Y-97226133D01*
X104529202Y-97158012D01*
X104582858Y-97111519D01*
X104635200Y-97100133D01*
X106509200Y-97100133D01*
X106509200Y-95226133D01*
X106529202Y-95158012D01*
X106582858Y-95111519D01*
X106635200Y-95100133D01*
X108509200Y-95100133D01*
X108509200Y-93226133D01*
X108529202Y-93158012D01*
X108582858Y-93111519D01*
X108635200Y-93100133D01*
X110509200Y-93100133D01*
X110509200Y-92997600D01*
X110529202Y-92929479D01*
X110582858Y-92882986D01*
X110635200Y-92871600D01*
X112341990Y-92871600D01*
X112362908Y-92875761D01*
X112377099Y-92875761D01*
X112377099Y-92875760D01*
X112377100Y-92875761D01*
X112400409Y-92866105D01*
X112410480Y-92865022D01*
X112415750Y-92859752D01*
X112415750Y-92859751D01*
X112415751Y-92859751D01*
X112427600Y-92831145D01*
X112431761Y-92821100D01*
X112431761Y-92821099D01*
X112431761Y-92806912D01*
X112427600Y-92785992D01*
X112427600Y-91226133D01*
X112447602Y-91158012D01*
X112475467Y-91133866D01*
X112509200Y-91100134D01*
X112509200Y-89226133D01*
X112529202Y-89158012D01*
X112582858Y-89111519D01*
X112635200Y-89100133D01*
X114509200Y-89100133D01*
X114509200Y-87226133D01*
X114529202Y-87158012D01*
X114582858Y-87111519D01*
X114635200Y-87100133D01*
X115098500Y-87100133D01*
X115166621Y-87120135D01*
G37*
G04 #@! TD.AperFunction*
G04 #@! TA.AperFunction,NonConductor*
G36*
X98168721Y-89120135D02*
G01*
X98215214Y-89173791D01*
X98226600Y-89226133D01*
X98226600Y-92785992D01*
X98222439Y-92806912D01*
X98222439Y-92821099D01*
X98226600Y-92831144D01*
X98238449Y-92859752D01*
X98248313Y-92869616D01*
X98288838Y-92902273D01*
X98311258Y-92969637D01*
X98293699Y-93038428D01*
X98241737Y-93086806D01*
X98185338Y-93100133D01*
X96509200Y-93100133D01*
X96509200Y-94974133D01*
X96489198Y-95042254D01*
X96435542Y-95088747D01*
X96383200Y-95100133D01*
X94509200Y-95100133D01*
X94509200Y-96974133D01*
X94489198Y-97042254D01*
X94435542Y-97088747D01*
X94383200Y-97100133D01*
X92509200Y-97100133D01*
X92509200Y-97594600D01*
X92489198Y-97662721D01*
X92435542Y-97709214D01*
X92383200Y-97720600D01*
X88635200Y-97720600D01*
X88567079Y-97700598D01*
X88520586Y-97646942D01*
X88509200Y-97594600D01*
X88509200Y-97226133D01*
X88529202Y-97158012D01*
X88582858Y-97111519D01*
X88635200Y-97100133D01*
X90509200Y-97100133D01*
X90509200Y-95226133D01*
X90529202Y-95158012D01*
X90582858Y-95111519D01*
X90635200Y-95100133D01*
X92509200Y-95100133D01*
X92509200Y-93226133D01*
X92529202Y-93158012D01*
X92582858Y-93111519D01*
X92635200Y-93100133D01*
X94509200Y-93100133D01*
X94509200Y-91226133D01*
X94529202Y-91158012D01*
X94582858Y-91111519D01*
X94635200Y-91100133D01*
X96509200Y-91100133D01*
X96509200Y-89226133D01*
X96529202Y-89158012D01*
X96582858Y-89111519D01*
X96635200Y-89100133D01*
X98100600Y-89100133D01*
X98168721Y-89120135D01*
G37*
G04 #@! TD.AperFunction*
G04 #@! TA.AperFunction,NonConductor*
G36*
X88501663Y-92891602D02*
G01*
X88548156Y-92945258D01*
X88558260Y-93015532D01*
X88528766Y-93080112D01*
X88522637Y-93086695D01*
X88509200Y-93100132D01*
X88509200Y-94974133D01*
X88489198Y-95042254D01*
X88435542Y-95088747D01*
X88383200Y-95100133D01*
X86509200Y-95100133D01*
X86509200Y-96974133D01*
X86489198Y-97042254D01*
X86435542Y-97088747D01*
X86383200Y-97100133D01*
X84509200Y-97100133D01*
X84509200Y-97594600D01*
X84489198Y-97662721D01*
X84435542Y-97709214D01*
X84383200Y-97720600D01*
X80635200Y-97720600D01*
X80567079Y-97700598D01*
X80520586Y-97646942D01*
X80509200Y-97594600D01*
X80509200Y-97226133D01*
X80529202Y-97158012D01*
X80582858Y-97111519D01*
X80635200Y-97100133D01*
X82509200Y-97100133D01*
X82509200Y-95226133D01*
X82529202Y-95158012D01*
X82582858Y-95111519D01*
X82635200Y-95100133D01*
X84509200Y-95100133D01*
X84509200Y-93226133D01*
X84529202Y-93158012D01*
X84582858Y-93111519D01*
X84635200Y-93100133D01*
X86509200Y-93100133D01*
X86509200Y-92997600D01*
X86529202Y-92929479D01*
X86582858Y-92882986D01*
X86635200Y-92871600D01*
X88433542Y-92871600D01*
X88501663Y-92891602D01*
G37*
G04 #@! TD.AperFunction*
G04 #@! TA.AperFunction,NonConductor*
G36*
X72501663Y-92891602D02*
G01*
X72548156Y-92945258D01*
X72558260Y-93015532D01*
X72528766Y-93080112D01*
X72522637Y-93086695D01*
X72509200Y-93100132D01*
X72509200Y-94974133D01*
X72489198Y-95042254D01*
X72435542Y-95088747D01*
X72383200Y-95100133D01*
X70509200Y-95100133D01*
X70509200Y-96974133D01*
X70489198Y-97042254D01*
X70435542Y-97088747D01*
X70383200Y-97100133D01*
X68509200Y-97100133D01*
X68509200Y-97594600D01*
X68489198Y-97662721D01*
X68435542Y-97709214D01*
X68383200Y-97720600D01*
X64635200Y-97720600D01*
X64567079Y-97700598D01*
X64520586Y-97646942D01*
X64509200Y-97594600D01*
X64509200Y-97226133D01*
X64529202Y-97158012D01*
X64582858Y-97111519D01*
X64635200Y-97100133D01*
X66509200Y-97100133D01*
X66509200Y-95226133D01*
X66529202Y-95158012D01*
X66582858Y-95111519D01*
X66635200Y-95100133D01*
X68509200Y-95100133D01*
X68509200Y-93226133D01*
X68529202Y-93158012D01*
X68582858Y-93111519D01*
X68635200Y-93100133D01*
X70509200Y-93100133D01*
X70509200Y-92997600D01*
X70529202Y-92929479D01*
X70582858Y-92882986D01*
X70635200Y-92871600D01*
X72433542Y-92871600D01*
X72501663Y-92891602D01*
G37*
G04 #@! TD.AperFunction*
G04 #@! TA.AperFunction,NonConductor*
G36*
X41018721Y-73120135D02*
G01*
X41065214Y-73173791D01*
X41076600Y-73226133D01*
X41076600Y-76974133D01*
X41056598Y-77042254D01*
X41002942Y-77088747D01*
X40950600Y-77100133D01*
X40509200Y-77100133D01*
X40509200Y-78974133D01*
X40489198Y-79042254D01*
X40435542Y-79088747D01*
X40383200Y-79100133D01*
X38509200Y-79100133D01*
X38509200Y-80974133D01*
X38489198Y-81042254D01*
X38435542Y-81088747D01*
X38383200Y-81100133D01*
X36509200Y-81100133D01*
X36509200Y-82974133D01*
X36489198Y-83042254D01*
X36435542Y-83088747D01*
X36383200Y-83100133D01*
X34509200Y-83100133D01*
X34509200Y-84974133D01*
X34489198Y-85042254D01*
X34435542Y-85088747D01*
X34383200Y-85100133D01*
X32509200Y-85100133D01*
X32509200Y-86974133D01*
X32489198Y-87042254D01*
X32435542Y-87088747D01*
X32383200Y-87100133D01*
X30509200Y-87100133D01*
X30509200Y-88974133D01*
X30489198Y-89042254D01*
X30435542Y-89088747D01*
X30383200Y-89100133D01*
X28509200Y-89100133D01*
X28509200Y-90974133D01*
X28489198Y-91042254D01*
X28435542Y-91088747D01*
X28383200Y-91100133D01*
X26509200Y-91100133D01*
X26509200Y-92974133D01*
X26489198Y-93042254D01*
X26435542Y-93088747D01*
X26383200Y-93100133D01*
X24509200Y-93100133D01*
X24509200Y-94974133D01*
X24489198Y-95042254D01*
X24435542Y-95088747D01*
X24383200Y-95100133D01*
X22509200Y-95100133D01*
X22509200Y-96974133D01*
X22489198Y-97042254D01*
X22435542Y-97088747D01*
X22383200Y-97100133D01*
X20509200Y-97100133D01*
X20509200Y-98974133D01*
X20489198Y-99042254D01*
X20435542Y-99088747D01*
X20383200Y-99100133D01*
X19451500Y-99100133D01*
X19383379Y-99080131D01*
X19336886Y-99026475D01*
X19325500Y-98974133D01*
X19325500Y-95226133D01*
X19345502Y-95158012D01*
X19399158Y-95111519D01*
X19451500Y-95100133D01*
X20509200Y-95100133D01*
X20509200Y-93226133D01*
X20529202Y-93158012D01*
X20582858Y-93111519D01*
X20635200Y-93100133D01*
X22509200Y-93100133D01*
X22509200Y-91226133D01*
X22529202Y-91158012D01*
X22582858Y-91111519D01*
X22635200Y-91100133D01*
X24509200Y-91100133D01*
X24509200Y-89226133D01*
X24529202Y-89158012D01*
X24582858Y-89111519D01*
X24635200Y-89100133D01*
X26509200Y-89100133D01*
X26509200Y-87226133D01*
X26529202Y-87158012D01*
X26582858Y-87111519D01*
X26635200Y-87100133D01*
X28509200Y-87100133D01*
X28509200Y-85226133D01*
X28529202Y-85158012D01*
X28582858Y-85111519D01*
X28635200Y-85100133D01*
X30509200Y-85100133D01*
X30509200Y-83226133D01*
X30529202Y-83158012D01*
X30582858Y-83111519D01*
X30635200Y-83100133D01*
X32509200Y-83100133D01*
X32509200Y-81226133D01*
X32529202Y-81158012D01*
X32582858Y-81111519D01*
X32635200Y-81100133D01*
X34509200Y-81100133D01*
X34509200Y-81091400D01*
X34529202Y-81023279D01*
X34582858Y-80976786D01*
X34635200Y-80965400D01*
X36141990Y-80965400D01*
X36162908Y-80969561D01*
X36177098Y-80969561D01*
X36177099Y-80969560D01*
X36177100Y-80969561D01*
X36215751Y-80953551D01*
X36227600Y-80924945D01*
X36231761Y-80914900D01*
X36231761Y-80914899D01*
X36231761Y-80900712D01*
X36227600Y-80879792D01*
X36227600Y-79226133D01*
X36247602Y-79158012D01*
X36301258Y-79111519D01*
X36353600Y-79100133D01*
X36509200Y-79100133D01*
X36509200Y-77226133D01*
X36529202Y-77158012D01*
X36582858Y-77111519D01*
X36635200Y-77100133D01*
X38509200Y-77100133D01*
X38509200Y-75226133D01*
X38529202Y-75158012D01*
X38582858Y-75111519D01*
X38635200Y-75100133D01*
X40509200Y-75100133D01*
X40509200Y-73226133D01*
X40529202Y-73158012D01*
X40582858Y-73111519D01*
X40635200Y-73100133D01*
X40950600Y-73100133D01*
X41018721Y-73120135D01*
G37*
G04 #@! TD.AperFunction*
G04 #@! TA.AperFunction,NonConductor*
G36*
X79118721Y-91120135D02*
G01*
X79165214Y-91173791D01*
X79176600Y-91226133D01*
X79176600Y-92785992D01*
X79172439Y-92806912D01*
X79172439Y-92821099D01*
X79176600Y-92831144D01*
X79188448Y-92859750D01*
X79188449Y-92859751D01*
X79227100Y-92875761D01*
X79227100Y-92875760D01*
X79227102Y-92875761D01*
X79241292Y-92875761D01*
X79262210Y-92871600D01*
X80433542Y-92871600D01*
X80501663Y-92891602D01*
X80548156Y-92945258D01*
X80558260Y-93015532D01*
X80528766Y-93080112D01*
X80522637Y-93086695D01*
X80509200Y-93100132D01*
X80509200Y-94974133D01*
X80489198Y-95042254D01*
X80435542Y-95088747D01*
X80383200Y-95100133D01*
X78509200Y-95100133D01*
X78509200Y-96974133D01*
X78489198Y-97042254D01*
X78435542Y-97088747D01*
X78383200Y-97100133D01*
X76509200Y-97100133D01*
X76509200Y-98974133D01*
X76489198Y-99042254D01*
X76435542Y-99088747D01*
X76383200Y-99100133D01*
X74481354Y-99100133D01*
X74480383Y-99100663D01*
X74472973Y-99100133D01*
X74457009Y-99100133D01*
X74457009Y-99098991D01*
X74409568Y-99095598D01*
X74352732Y-99053051D01*
X74327921Y-98986531D01*
X74327600Y-98977542D01*
X74327600Y-97806209D01*
X74331761Y-97785293D01*
X74331761Y-97771101D01*
X74331761Y-97771100D01*
X74315751Y-97732449D01*
X74287145Y-97720600D01*
X74277100Y-97716439D01*
X74262909Y-97716439D01*
X74241991Y-97720600D01*
X72635200Y-97720600D01*
X72567079Y-97700598D01*
X72520586Y-97646942D01*
X72509200Y-97594600D01*
X72509200Y-97226133D01*
X72529202Y-97158012D01*
X72582858Y-97111519D01*
X72635200Y-97100133D01*
X74509200Y-97100133D01*
X74509200Y-95226133D01*
X74529202Y-95158012D01*
X74582858Y-95111519D01*
X74635200Y-95100133D01*
X76509200Y-95100133D01*
X76509200Y-93226133D01*
X76529202Y-93158012D01*
X76582858Y-93111519D01*
X76635200Y-93100133D01*
X78509200Y-93100133D01*
X78509200Y-91226133D01*
X78529202Y-91158012D01*
X78582858Y-91111519D01*
X78635200Y-91100133D01*
X79050600Y-91100133D01*
X79118721Y-91120135D01*
G37*
G04 #@! TD.AperFunction*
G04 #@! TA.AperFunction,NonConductor*
G36*
X115166621Y-95120135D02*
G01*
X115213114Y-95173791D01*
X115224500Y-95226133D01*
X115224500Y-98974133D01*
X115204498Y-99042254D01*
X115150842Y-99088747D01*
X115098500Y-99100133D01*
X114509200Y-99100133D01*
X114509200Y-100974133D01*
X114489198Y-101042254D01*
X114435542Y-101088747D01*
X114383200Y-101100133D01*
X112553600Y-101100133D01*
X112485479Y-101080131D01*
X112438986Y-101026475D01*
X112427600Y-100974133D01*
X112427600Y-99226133D01*
X112447602Y-99158012D01*
X112475467Y-99133866D01*
X112509200Y-99100134D01*
X112509200Y-97226133D01*
X112529202Y-97158012D01*
X112582858Y-97111519D01*
X112635200Y-97100133D01*
X114509200Y-97100133D01*
X114509200Y-95226133D01*
X114529202Y-95158012D01*
X114582858Y-95111519D01*
X114635200Y-95100133D01*
X115098500Y-95100133D01*
X115166621Y-95120135D01*
G37*
G04 #@! TD.AperFunction*
G04 #@! TA.AperFunction,NonConductor*
G36*
X104501663Y-92891602D02*
G01*
X104548156Y-92945258D01*
X104558260Y-93015532D01*
X104528766Y-93080112D01*
X104522637Y-93086695D01*
X104509200Y-93100132D01*
X104509200Y-94974133D01*
X104489198Y-95042254D01*
X104435542Y-95088747D01*
X104383200Y-95100133D01*
X102509200Y-95100133D01*
X102509200Y-96974133D01*
X102489198Y-97042254D01*
X102435542Y-97088747D01*
X102383200Y-97100133D01*
X100509200Y-97100133D01*
X100509200Y-97594600D01*
X100489198Y-97662721D01*
X100435542Y-97709214D01*
X100383200Y-97720600D01*
X98312209Y-97720600D01*
X98291291Y-97716439D01*
X98277100Y-97716439D01*
X98267055Y-97720600D01*
X98238450Y-97732448D01*
X98238449Y-97732448D01*
X98238449Y-97732449D01*
X98222439Y-97771100D01*
X98222439Y-97771101D01*
X98222439Y-97785293D01*
X98226600Y-97806209D01*
X98226600Y-100974133D01*
X98206598Y-101042254D01*
X98152942Y-101088747D01*
X98100600Y-101100133D01*
X96509200Y-101100133D01*
X96509200Y-102974133D01*
X96489198Y-103042254D01*
X96435542Y-103088747D01*
X96383200Y-103100133D01*
X94509200Y-103100133D01*
X94509200Y-104974133D01*
X94489198Y-105042254D01*
X94435542Y-105088747D01*
X94383200Y-105100133D01*
X93503600Y-105100133D01*
X93435479Y-105080131D01*
X93388986Y-105026475D01*
X93377600Y-104974133D01*
X93377600Y-101226133D01*
X93397602Y-101158012D01*
X93451258Y-101111519D01*
X93503600Y-101100133D01*
X94509200Y-101100133D01*
X94509200Y-99226133D01*
X94529202Y-99158012D01*
X94582858Y-99111519D01*
X94635200Y-99100133D01*
X96509200Y-99100133D01*
X96509200Y-97226133D01*
X96529202Y-97158012D01*
X96582858Y-97111519D01*
X96635200Y-97100133D01*
X98509200Y-97100133D01*
X98509200Y-95226133D01*
X98529202Y-95158012D01*
X98582858Y-95111519D01*
X98635200Y-95100133D01*
X100509200Y-95100133D01*
X100509200Y-93226133D01*
X100529202Y-93158012D01*
X100582858Y-93111519D01*
X100635200Y-93100133D01*
X102509200Y-93100133D01*
X102509200Y-92997600D01*
X102529202Y-92929479D01*
X102582858Y-92882986D01*
X102635200Y-92871600D01*
X104433542Y-92871600D01*
X104501663Y-92891602D01*
G37*
G04 #@! TD.AperFunction*
G04 #@! TA.AperFunction,NonConductor*
G36*
X60068721Y-87120135D02*
G01*
X60115214Y-87173791D01*
X60126600Y-87226133D01*
X60126600Y-90974133D01*
X60106598Y-91042254D01*
X60052942Y-91088747D01*
X60000600Y-91100133D01*
X58509200Y-91100133D01*
X58509200Y-92974133D01*
X58489198Y-93042254D01*
X58435542Y-93088747D01*
X58383200Y-93100133D01*
X56509200Y-93100133D01*
X56509200Y-94974133D01*
X56489198Y-95042254D01*
X56435542Y-95088747D01*
X56383200Y-95100133D01*
X54509200Y-95100133D01*
X54509200Y-96974133D01*
X54489198Y-97042254D01*
X54435542Y-97088747D01*
X54383200Y-97100133D01*
X52509200Y-97100133D01*
X52509200Y-98974133D01*
X52489198Y-99042254D01*
X52435542Y-99088747D01*
X52383200Y-99100133D01*
X50509200Y-99100133D01*
X50509200Y-100974133D01*
X50489198Y-101042254D01*
X50435542Y-101088747D01*
X50383200Y-101100133D01*
X48509200Y-101100133D01*
X48509200Y-102974133D01*
X48489198Y-103042254D01*
X48435542Y-103088747D01*
X48383200Y-103100133D01*
X46509200Y-103100133D01*
X46509200Y-104974133D01*
X46489198Y-105042254D01*
X46435542Y-105088747D01*
X46383200Y-105100133D01*
X45878600Y-105100133D01*
X45810479Y-105080131D01*
X45763986Y-105026475D01*
X45752600Y-104974133D01*
X45752600Y-101226133D01*
X45772602Y-101158012D01*
X45826258Y-101111519D01*
X45878600Y-101100133D01*
X46509200Y-101100133D01*
X46509200Y-99226133D01*
X46529202Y-99158012D01*
X46582858Y-99111519D01*
X46635200Y-99100133D01*
X48509200Y-99100133D01*
X48509200Y-97226133D01*
X48529202Y-97158012D01*
X48582858Y-97111519D01*
X48635200Y-97100133D01*
X50509200Y-97100133D01*
X50509200Y-95226133D01*
X50529202Y-95158012D01*
X50582858Y-95111519D01*
X50635200Y-95100133D01*
X52509200Y-95100133D01*
X52509200Y-93226133D01*
X52529202Y-93158012D01*
X52582858Y-93111519D01*
X52635200Y-93100133D01*
X54509200Y-93100133D01*
X54509200Y-91226133D01*
X54529202Y-91158012D01*
X54582858Y-91111519D01*
X54635200Y-91100133D01*
X56509200Y-91100133D01*
X56509200Y-89226133D01*
X56529202Y-89158012D01*
X56582858Y-89111519D01*
X56635200Y-89100133D01*
X58509200Y-89100133D01*
X58509200Y-87226133D01*
X58529202Y-87158012D01*
X58582858Y-87111519D01*
X58635200Y-87100133D01*
X60000600Y-87100133D01*
X60068721Y-87120135D01*
G37*
G04 #@! TD.AperFunction*
G04 #@! TA.AperFunction,NonConductor*
G36*
X44451321Y-80985402D02*
G01*
X44497814Y-81039058D01*
X44509200Y-81091400D01*
X44509200Y-82974133D01*
X44489198Y-83042254D01*
X44435542Y-83088747D01*
X44383200Y-83100133D01*
X42509200Y-83100133D01*
X42509200Y-84974133D01*
X42489198Y-85042254D01*
X42435542Y-85088747D01*
X42383200Y-85100133D01*
X40509200Y-85100133D01*
X40509200Y-86974133D01*
X40489198Y-87042254D01*
X40435542Y-87088747D01*
X40383200Y-87100133D01*
X38509200Y-87100133D01*
X38509200Y-88974133D01*
X38489198Y-89042254D01*
X38435542Y-89088747D01*
X38383200Y-89100133D01*
X36509200Y-89100133D01*
X36509200Y-90974133D01*
X36489198Y-91042254D01*
X36435542Y-91088747D01*
X36383200Y-91100133D01*
X34509200Y-91100133D01*
X34509200Y-92832100D01*
X34489198Y-92900221D01*
X34435542Y-92946714D01*
X34383200Y-92958100D01*
X31637209Y-92958100D01*
X31616291Y-92953939D01*
X31602100Y-92953939D01*
X31592055Y-92958100D01*
X31563450Y-92969948D01*
X31563449Y-92969948D01*
X31563449Y-92969949D01*
X31547439Y-93008600D01*
X31547439Y-93008601D01*
X31547439Y-93022793D01*
X31551600Y-93043709D01*
X31551600Y-94974133D01*
X31531598Y-95042254D01*
X31477942Y-95088747D01*
X31425600Y-95100133D01*
X30509200Y-95100133D01*
X30509200Y-96974133D01*
X30489198Y-97042254D01*
X30435542Y-97088747D01*
X30383200Y-97100133D01*
X28509200Y-97100133D01*
X28509200Y-98974133D01*
X28489198Y-99042254D01*
X28435542Y-99088747D01*
X28383200Y-99100133D01*
X26509200Y-99100133D01*
X26509200Y-100974133D01*
X26489198Y-101042254D01*
X26435542Y-101088747D01*
X26383200Y-101100133D01*
X24509200Y-101100133D01*
X24509200Y-102974133D01*
X24489198Y-103042254D01*
X24435542Y-103088747D01*
X24383200Y-103100133D01*
X22509200Y-103100133D01*
X22509200Y-104974133D01*
X22489198Y-105042254D01*
X22435542Y-105088747D01*
X22383200Y-105100133D01*
X20509200Y-105100133D01*
X20509200Y-106974133D01*
X20489198Y-107042254D01*
X20435542Y-107088747D01*
X20383200Y-107100133D01*
X19451500Y-107100133D01*
X19383379Y-107080131D01*
X19336886Y-107026475D01*
X19325500Y-106974133D01*
X19325500Y-103226133D01*
X19345502Y-103158012D01*
X19399158Y-103111519D01*
X19451500Y-103100133D01*
X20509200Y-103100133D01*
X20509200Y-101226133D01*
X20529202Y-101158012D01*
X20582858Y-101111519D01*
X20635200Y-101100133D01*
X22509200Y-101100133D01*
X22509200Y-99226133D01*
X22529202Y-99158012D01*
X22582858Y-99111519D01*
X22635200Y-99100133D01*
X24509200Y-99100133D01*
X24509200Y-97226133D01*
X24529202Y-97158012D01*
X24582858Y-97111519D01*
X24635200Y-97100133D01*
X26509200Y-97100133D01*
X26509200Y-95226133D01*
X26529202Y-95158012D01*
X26582858Y-95111519D01*
X26635200Y-95100133D01*
X28509200Y-95100133D01*
X28509200Y-93226133D01*
X28529202Y-93158012D01*
X28582858Y-93111519D01*
X28635200Y-93100133D01*
X30509200Y-93100133D01*
X30509200Y-91226133D01*
X30529202Y-91158012D01*
X30582858Y-91111519D01*
X30635200Y-91100133D01*
X32509200Y-91100133D01*
X32509200Y-89226133D01*
X32529202Y-89158012D01*
X32582858Y-89111519D01*
X32635200Y-89100133D01*
X34509200Y-89100133D01*
X34509200Y-87226133D01*
X34529202Y-87158012D01*
X34582858Y-87111519D01*
X34635200Y-87100133D01*
X36509200Y-87100133D01*
X36509200Y-85226133D01*
X36529202Y-85158012D01*
X36582858Y-85111519D01*
X36635200Y-85100133D01*
X38509200Y-85100133D01*
X38509200Y-83226133D01*
X38529202Y-83158012D01*
X38582858Y-83111519D01*
X38635200Y-83100133D01*
X40509200Y-83100133D01*
X40509200Y-81226133D01*
X40529202Y-81158012D01*
X40582858Y-81111519D01*
X40635200Y-81100133D01*
X42509200Y-81100133D01*
X42509200Y-81091400D01*
X42529202Y-81023279D01*
X42582858Y-80976786D01*
X42635200Y-80965400D01*
X44383200Y-80965400D01*
X44451321Y-80985402D01*
G37*
G04 #@! TD.AperFunction*
G04 #@! TA.AperFunction,NonConductor*
G36*
X79118721Y-99120135D02*
G01*
X79165214Y-99173791D01*
X79176600Y-99226133D01*
X79176600Y-102974133D01*
X79156598Y-103042254D01*
X79102942Y-103088747D01*
X79050600Y-103100133D01*
X78509200Y-103100133D01*
X78509200Y-104974133D01*
X78489198Y-105042254D01*
X78435542Y-105088747D01*
X78383200Y-105100133D01*
X76509200Y-105100133D01*
X76509200Y-106974133D01*
X76489198Y-107042254D01*
X76435542Y-107088747D01*
X76383200Y-107100133D01*
X74481354Y-107100133D01*
X74480383Y-107100663D01*
X74472973Y-107100133D01*
X74457009Y-107100133D01*
X74457009Y-107098991D01*
X74409568Y-107095598D01*
X74352732Y-107053051D01*
X74327921Y-106986531D01*
X74327600Y-106977542D01*
X74327600Y-105226133D01*
X74347602Y-105158012D01*
X74401258Y-105111519D01*
X74453600Y-105100133D01*
X74509200Y-105100133D01*
X74509200Y-103226133D01*
X74529202Y-103158012D01*
X74582858Y-103111519D01*
X74635200Y-103100133D01*
X76509200Y-103100133D01*
X76509200Y-101226133D01*
X76529202Y-101158012D01*
X76582858Y-101111519D01*
X76635200Y-101100133D01*
X78509200Y-101100133D01*
X78509200Y-99226133D01*
X78529202Y-99158012D01*
X78582858Y-99111519D01*
X78635200Y-99100133D01*
X79050600Y-99100133D01*
X79118721Y-99120135D01*
G37*
G04 #@! TD.AperFunction*
G04 #@! TA.AperFunction,NonConductor*
G36*
X115166621Y-103120135D02*
G01*
X115213114Y-103173791D01*
X115224500Y-103226133D01*
X115224500Y-106974133D01*
X115204498Y-107042254D01*
X115150842Y-107088747D01*
X115098500Y-107100133D01*
X114509200Y-107100133D01*
X114509200Y-108974133D01*
X114489198Y-109042254D01*
X114435542Y-109088747D01*
X114383200Y-109100133D01*
X112553600Y-109100133D01*
X112485479Y-109080131D01*
X112438986Y-109026475D01*
X112427600Y-108974133D01*
X112427600Y-107226133D01*
X112447602Y-107158012D01*
X112475467Y-107133866D01*
X112509200Y-107100134D01*
X112509200Y-105226133D01*
X112529202Y-105158012D01*
X112582858Y-105111519D01*
X112635200Y-105100133D01*
X114509200Y-105100133D01*
X114509200Y-103226133D01*
X114529202Y-103158012D01*
X114582858Y-103111519D01*
X114635200Y-103100133D01*
X115098500Y-103100133D01*
X115166621Y-103120135D01*
G37*
G04 #@! TD.AperFunction*
G04 #@! TA.AperFunction,NonConductor*
G36*
X31493721Y-99120135D02*
G01*
X31540214Y-99173791D01*
X31551600Y-99226133D01*
X31551600Y-102974133D01*
X31531598Y-103042254D01*
X31477942Y-103088747D01*
X31425600Y-103100133D01*
X30509200Y-103100133D01*
X30509200Y-104974133D01*
X30489198Y-105042254D01*
X30435542Y-105088747D01*
X30383200Y-105100133D01*
X28509200Y-105100133D01*
X28509200Y-106974133D01*
X28489198Y-107042254D01*
X28435542Y-107088747D01*
X28383200Y-107100133D01*
X26509200Y-107100133D01*
X26509200Y-108974133D01*
X26489198Y-109042254D01*
X26435542Y-109088747D01*
X26383200Y-109100133D01*
X24509200Y-109100133D01*
X24509200Y-110974133D01*
X24489198Y-111042254D01*
X24435542Y-111088747D01*
X24383200Y-111100133D01*
X22509200Y-111100133D01*
X22509200Y-112974133D01*
X22489198Y-113042254D01*
X22435542Y-113088747D01*
X22383200Y-113100133D01*
X20509200Y-113100133D01*
X20509200Y-114974133D01*
X20489198Y-115042254D01*
X20435542Y-115088747D01*
X20383200Y-115100133D01*
X20214066Y-115100133D01*
X20145945Y-115080131D01*
X20120115Y-115058093D01*
X19971349Y-114891624D01*
X19966940Y-114886096D01*
X19779634Y-114622112D01*
X19775872Y-114616126D01*
X19619305Y-114332838D01*
X19616237Y-114326468D01*
X19492371Y-114027430D01*
X19490036Y-114020756D01*
X19400430Y-113709726D01*
X19398858Y-113702844D01*
X19344639Y-113383728D01*
X19343847Y-113376702D01*
X19335391Y-113226133D01*
X19328955Y-113111519D01*
X19325599Y-113051760D01*
X19325500Y-113048227D01*
X19325500Y-111226133D01*
X19345502Y-111158012D01*
X19399158Y-111111519D01*
X19451500Y-111100133D01*
X20509200Y-111100133D01*
X20509200Y-109226133D01*
X20529202Y-109158012D01*
X20582858Y-109111519D01*
X20635200Y-109100133D01*
X22509200Y-109100133D01*
X22509200Y-107226133D01*
X22529202Y-107158012D01*
X22582858Y-107111519D01*
X22635200Y-107100133D01*
X24509200Y-107100133D01*
X24509200Y-105226133D01*
X24529202Y-105158012D01*
X24582858Y-105111519D01*
X24635200Y-105100133D01*
X26509200Y-105100133D01*
X26509200Y-103226133D01*
X26529202Y-103158012D01*
X26582858Y-103111519D01*
X26635200Y-103100133D01*
X28509200Y-103100133D01*
X28509200Y-101226133D01*
X28529202Y-101158012D01*
X28582858Y-101111519D01*
X28635200Y-101100133D01*
X30509200Y-101100133D01*
X30509200Y-99226133D01*
X30529202Y-99158012D01*
X30582858Y-99111519D01*
X30635200Y-99100133D01*
X31425600Y-99100133D01*
X31493721Y-99120135D01*
G37*
G04 #@! TD.AperFunction*
G04 #@! TA.AperFunction,NonConductor*
G36*
X115166621Y-111120135D02*
G01*
X115213114Y-111173791D01*
X115224500Y-111226133D01*
X115224500Y-113048227D01*
X115224401Y-113051761D01*
X115206152Y-113376703D01*
X115205360Y-113383728D01*
X115151143Y-113702833D01*
X115149569Y-113709726D01*
X115059963Y-114020756D01*
X115057628Y-114027430D01*
X114933762Y-114326468D01*
X114930694Y-114332838D01*
X114774127Y-114616126D01*
X114770365Y-114622112D01*
X114583059Y-114886096D01*
X114578650Y-114891624D01*
X114362969Y-115132970D01*
X114357970Y-115137969D01*
X114116624Y-115353650D01*
X114111096Y-115358059D01*
X113847112Y-115545365D01*
X113841126Y-115549127D01*
X113557838Y-115705694D01*
X113551468Y-115708762D01*
X113252430Y-115832628D01*
X113245756Y-115834963D01*
X112934726Y-115924569D01*
X112927833Y-115926143D01*
X112608728Y-115980360D01*
X112601703Y-115981152D01*
X112276762Y-115999401D01*
X112273228Y-115999500D01*
X110635200Y-115999500D01*
X110567079Y-115979498D01*
X110520586Y-115925842D01*
X110509200Y-115873500D01*
X110509200Y-115226133D01*
X110529202Y-115158012D01*
X110582858Y-115111519D01*
X110635200Y-115100133D01*
X112509200Y-115100133D01*
X112509200Y-113226133D01*
X112529202Y-113158012D01*
X112582858Y-113111519D01*
X112635200Y-113100133D01*
X114509200Y-113100133D01*
X114509200Y-111226133D01*
X114529202Y-111158012D01*
X114582858Y-111111519D01*
X114635200Y-111100133D01*
X115098500Y-111100133D01*
X115166621Y-111120135D01*
G37*
G04 #@! TD.AperFunction*
G04 #@! TA.AperFunction,NonConductor*
G36*
X110451321Y-111941602D02*
G01*
X110497814Y-111995258D01*
X110509200Y-112047600D01*
X110509200Y-112974133D01*
X110489198Y-113042254D01*
X110435542Y-113088747D01*
X110383200Y-113100133D01*
X108509200Y-113100133D01*
X108509200Y-114974133D01*
X108489198Y-115042254D01*
X108435542Y-115088747D01*
X108383200Y-115100133D01*
X106509200Y-115100133D01*
X106509200Y-115873500D01*
X106489198Y-115941621D01*
X106435542Y-115988114D01*
X106383200Y-115999500D01*
X102635200Y-115999500D01*
X102567079Y-115979498D01*
X102520586Y-115925842D01*
X102509200Y-115873500D01*
X102509200Y-115226133D01*
X102529202Y-115158012D01*
X102582858Y-115111519D01*
X102635200Y-115100133D01*
X104509200Y-115100133D01*
X104509200Y-113226133D01*
X104529202Y-113158012D01*
X104582858Y-113111519D01*
X104635200Y-113100133D01*
X106509200Y-113100133D01*
X106509200Y-112047600D01*
X106529202Y-111979479D01*
X106582858Y-111932986D01*
X106635200Y-111921600D01*
X110383200Y-111921600D01*
X110451321Y-111941602D01*
G37*
G04 #@! TD.AperFunction*
G04 #@! TA.AperFunction,NonConductor*
G36*
X102451321Y-111941602D02*
G01*
X102497814Y-111995258D01*
X102509200Y-112047600D01*
X102509200Y-112974133D01*
X102489198Y-113042254D01*
X102435542Y-113088747D01*
X102383200Y-113100133D01*
X100509200Y-113100133D01*
X100509200Y-114974133D01*
X100489198Y-115042254D01*
X100435542Y-115088747D01*
X100383200Y-115100133D01*
X98509200Y-115100133D01*
X98509200Y-115873500D01*
X98489198Y-115941621D01*
X98435542Y-115988114D01*
X98383200Y-115999500D01*
X94635200Y-115999500D01*
X94567079Y-115979498D01*
X94520586Y-115925842D01*
X94509200Y-115873500D01*
X94509200Y-115226133D01*
X94529202Y-115158012D01*
X94582858Y-115111519D01*
X94635200Y-115100133D01*
X96509200Y-115100133D01*
X96509200Y-113226133D01*
X96529202Y-113158012D01*
X96582858Y-113111519D01*
X96635200Y-113100133D01*
X98509200Y-113100133D01*
X98509200Y-112047600D01*
X98529202Y-111979479D01*
X98582858Y-111932986D01*
X98635200Y-111921600D01*
X102383200Y-111921600D01*
X102451321Y-111941602D01*
G37*
G04 #@! TD.AperFunction*
G04 #@! TA.AperFunction,NonConductor*
G36*
X98168721Y-105120135D02*
G01*
X98215214Y-105173791D01*
X98226600Y-105226133D01*
X98226600Y-108974133D01*
X98206598Y-109042254D01*
X98152942Y-109088747D01*
X98100600Y-109100133D01*
X96509200Y-109100133D01*
X96509200Y-110974133D01*
X96489198Y-111042254D01*
X96435542Y-111088747D01*
X96383200Y-111100133D01*
X94509200Y-111100133D01*
X94509200Y-112974133D01*
X94489198Y-113042254D01*
X94435542Y-113088747D01*
X94383200Y-113100133D01*
X92509200Y-113100133D01*
X92509200Y-114974133D01*
X92489198Y-115042254D01*
X92435542Y-115088747D01*
X92383200Y-115100133D01*
X90509200Y-115100133D01*
X90509200Y-115873500D01*
X90489198Y-115941621D01*
X90435542Y-115988114D01*
X90383200Y-115999500D01*
X86635200Y-115999500D01*
X86567079Y-115979498D01*
X86520586Y-115925842D01*
X86509200Y-115873500D01*
X86509200Y-115226133D01*
X86529202Y-115158012D01*
X86582858Y-115111519D01*
X86635200Y-115100133D01*
X88509200Y-115100133D01*
X88509200Y-113226133D01*
X88529202Y-113158012D01*
X88582858Y-113111519D01*
X88635200Y-113100133D01*
X90509200Y-113100133D01*
X90509200Y-112047600D01*
X90529202Y-111979479D01*
X90582858Y-111932986D01*
X90635200Y-111921600D01*
X93291990Y-111921600D01*
X93312908Y-111925761D01*
X93327098Y-111925761D01*
X93327099Y-111925760D01*
X93327100Y-111925761D01*
X93365751Y-111909751D01*
X93377600Y-111881145D01*
X93381761Y-111871100D01*
X93381761Y-111871099D01*
X93381761Y-111856912D01*
X93377600Y-111835992D01*
X93377600Y-109226133D01*
X93397602Y-109158012D01*
X93451258Y-109111519D01*
X93503600Y-109100133D01*
X94509200Y-109100133D01*
X94509200Y-107226133D01*
X94529202Y-107158012D01*
X94582858Y-107111519D01*
X94635200Y-107100133D01*
X96509200Y-107100133D01*
X96509200Y-105226133D01*
X96529202Y-105158012D01*
X96582858Y-105111519D01*
X96635200Y-105100133D01*
X98100600Y-105100133D01*
X98168721Y-105120135D01*
G37*
G04 #@! TD.AperFunction*
G04 #@! TA.AperFunction,NonConductor*
G36*
X86451321Y-111941602D02*
G01*
X86497814Y-111995258D01*
X86509200Y-112047600D01*
X86509200Y-112974133D01*
X86489198Y-113042254D01*
X86435542Y-113088747D01*
X86383200Y-113100133D01*
X84509200Y-113100133D01*
X84509200Y-114974133D01*
X84489198Y-115042254D01*
X84435542Y-115088747D01*
X84383200Y-115100133D01*
X82509200Y-115100133D01*
X82509200Y-115873500D01*
X82489198Y-115941621D01*
X82435542Y-115988114D01*
X82383200Y-115999500D01*
X78635200Y-115999500D01*
X78567079Y-115979498D01*
X78520586Y-115925842D01*
X78509200Y-115873500D01*
X78509200Y-115226133D01*
X78529202Y-115158012D01*
X78582858Y-115111519D01*
X78635200Y-115100133D01*
X80509200Y-115100133D01*
X80509200Y-113226133D01*
X80529202Y-113158012D01*
X80582858Y-113111519D01*
X80635200Y-113100133D01*
X82509200Y-113100133D01*
X82509200Y-112047600D01*
X82529202Y-111979479D01*
X82582858Y-111932986D01*
X82635200Y-111921600D01*
X86383200Y-111921600D01*
X86451321Y-111941602D01*
G37*
G04 #@! TD.AperFunction*
G04 #@! TA.AperFunction,NonConductor*
G36*
X79118721Y-107120135D02*
G01*
X79165214Y-107173791D01*
X79176600Y-107226133D01*
X79176600Y-110974133D01*
X79156598Y-111042254D01*
X79102942Y-111088747D01*
X79050600Y-111100133D01*
X78509200Y-111100133D01*
X78509200Y-112974133D01*
X78489198Y-113042254D01*
X78435542Y-113088747D01*
X78383200Y-113100133D01*
X76509200Y-113100133D01*
X76509200Y-114974133D01*
X76489198Y-115042254D01*
X76435542Y-115088747D01*
X76383200Y-115100133D01*
X74509200Y-115100133D01*
X74509200Y-115873500D01*
X74489198Y-115941621D01*
X74435542Y-115988114D01*
X74383200Y-115999500D01*
X70635200Y-115999500D01*
X70567079Y-115979498D01*
X70520586Y-115925842D01*
X70509200Y-115873500D01*
X70509200Y-115226133D01*
X70529202Y-115158012D01*
X70582858Y-115111519D01*
X70635200Y-115100133D01*
X72509200Y-115100133D01*
X72509200Y-113226133D01*
X72529202Y-113158012D01*
X72582858Y-113111519D01*
X72635200Y-113100133D01*
X74509200Y-113100133D01*
X74509200Y-111226133D01*
X74529202Y-111158012D01*
X74582858Y-111111519D01*
X74635200Y-111100133D01*
X76509200Y-111100133D01*
X76509200Y-109226133D01*
X76529202Y-109158012D01*
X76582858Y-109111519D01*
X76635200Y-109100133D01*
X78509200Y-109100133D01*
X78509200Y-107226133D01*
X78529202Y-107158012D01*
X78582858Y-107111519D01*
X78635200Y-107100133D01*
X79050600Y-107100133D01*
X79118721Y-107120135D01*
G37*
G04 #@! TD.AperFunction*
G04 #@! TA.AperFunction,NonConductor*
G36*
X70451321Y-111941602D02*
G01*
X70497814Y-111995258D01*
X70509200Y-112047600D01*
X70509200Y-112974133D01*
X70489198Y-113042254D01*
X70435542Y-113088747D01*
X70383200Y-113100133D01*
X68509200Y-113100133D01*
X68509200Y-114974133D01*
X68489198Y-115042254D01*
X68435542Y-115088747D01*
X68383200Y-115100133D01*
X66509200Y-115100133D01*
X66509200Y-115873500D01*
X66489198Y-115941621D01*
X66435542Y-115988114D01*
X66383200Y-115999500D01*
X62635200Y-115999500D01*
X62567079Y-115979498D01*
X62520586Y-115925842D01*
X62509200Y-115873500D01*
X62509200Y-115226133D01*
X62529202Y-115158012D01*
X62582858Y-115111519D01*
X62635200Y-115100133D01*
X64509200Y-115100133D01*
X64509200Y-113226133D01*
X64529202Y-113158012D01*
X64582858Y-113111519D01*
X64635200Y-113100133D01*
X66509200Y-113100133D01*
X66509200Y-112047600D01*
X66529202Y-111979479D01*
X66582858Y-111932986D01*
X66635200Y-111921600D01*
X70383200Y-111921600D01*
X70451321Y-111941602D01*
G37*
G04 #@! TD.AperFunction*
G04 #@! TA.AperFunction,NonConductor*
G36*
X60068721Y-111120135D02*
G01*
X60115214Y-111173791D01*
X60126600Y-111226133D01*
X60126600Y-111835992D01*
X60122439Y-111856912D01*
X60122439Y-111871099D01*
X60126600Y-111881144D01*
X60138448Y-111909750D01*
X60138449Y-111909751D01*
X60177100Y-111925761D01*
X60177100Y-111925760D01*
X60177102Y-111925761D01*
X60191292Y-111925761D01*
X60212210Y-111921600D01*
X62383200Y-111921600D01*
X62451321Y-111941602D01*
X62497814Y-111995258D01*
X62509200Y-112047600D01*
X62509200Y-112974133D01*
X62489198Y-113042254D01*
X62435542Y-113088747D01*
X62383200Y-113100133D01*
X60509200Y-113100133D01*
X60509200Y-114974133D01*
X60489198Y-115042254D01*
X60435542Y-115088747D01*
X60383200Y-115100133D01*
X58509200Y-115100133D01*
X58509200Y-115873500D01*
X58489198Y-115941621D01*
X58435542Y-115988114D01*
X58383200Y-115999500D01*
X54635200Y-115999500D01*
X54567079Y-115979498D01*
X54520586Y-115925842D01*
X54509200Y-115873500D01*
X54509200Y-115226133D01*
X54529202Y-115158012D01*
X54582858Y-115111519D01*
X54635200Y-115100133D01*
X56509200Y-115100133D01*
X56509200Y-113226133D01*
X56529202Y-113158012D01*
X56582858Y-113111519D01*
X56635200Y-113100133D01*
X58509200Y-113100133D01*
X58509200Y-111226133D01*
X58529202Y-111158012D01*
X58582858Y-111111519D01*
X58635200Y-111100133D01*
X60000600Y-111100133D01*
X60068721Y-111120135D01*
G37*
G04 #@! TD.AperFunction*
G04 #@! TA.AperFunction,NonConductor*
G36*
X60068721Y-103120135D02*
G01*
X60115214Y-103173791D01*
X60126600Y-103226133D01*
X60126600Y-106974133D01*
X60106598Y-107042254D01*
X60052942Y-107088747D01*
X60000600Y-107100133D01*
X58509200Y-107100133D01*
X58509200Y-108974133D01*
X58489198Y-109042254D01*
X58435542Y-109088747D01*
X58383200Y-109100133D01*
X56509200Y-109100133D01*
X56509200Y-110974133D01*
X56489198Y-111042254D01*
X56435542Y-111088747D01*
X56383200Y-111100133D01*
X54509200Y-111100133D01*
X54509200Y-112974133D01*
X54489198Y-113042254D01*
X54435542Y-113088747D01*
X54383200Y-113100133D01*
X52509200Y-113100133D01*
X52509200Y-114974133D01*
X52489198Y-115042254D01*
X52435542Y-115088747D01*
X52383200Y-115100133D01*
X50509200Y-115100133D01*
X50509200Y-115873500D01*
X50489198Y-115941621D01*
X50435542Y-115988114D01*
X50383200Y-115999500D01*
X46635200Y-115999500D01*
X46567079Y-115979498D01*
X46520586Y-115925842D01*
X46509200Y-115873500D01*
X46509200Y-115226133D01*
X46529202Y-115158012D01*
X46582858Y-115111519D01*
X46635200Y-115100133D01*
X48509200Y-115100133D01*
X48509200Y-113226133D01*
X48529202Y-113158012D01*
X48582858Y-113111519D01*
X48635200Y-113100133D01*
X50509200Y-113100133D01*
X50509200Y-111226133D01*
X50529202Y-111158012D01*
X50582858Y-111111519D01*
X50635200Y-111100133D01*
X52509200Y-111100133D01*
X52509200Y-109226133D01*
X52529202Y-109158012D01*
X52582858Y-109111519D01*
X52635200Y-109100133D01*
X54509200Y-109100133D01*
X54509200Y-107226133D01*
X54529202Y-107158012D01*
X54582858Y-107111519D01*
X54635200Y-107100133D01*
X56509200Y-107100133D01*
X56509200Y-105226133D01*
X56529202Y-105158012D01*
X56582858Y-105111519D01*
X56635200Y-105100133D01*
X58509200Y-105100133D01*
X58509200Y-103226133D01*
X58529202Y-103158012D01*
X58582858Y-103111519D01*
X58635200Y-103100133D01*
X60000600Y-103100133D01*
X60068721Y-103120135D01*
G37*
G04 #@! TD.AperFunction*
G04 #@! TA.AperFunction,NonConductor*
G36*
X64501663Y-92891602D02*
G01*
X64548156Y-92945258D01*
X64558260Y-93015532D01*
X64528766Y-93080112D01*
X64522637Y-93086695D01*
X64509200Y-93100132D01*
X64509200Y-94974133D01*
X64489198Y-95042254D01*
X64435542Y-95088747D01*
X64383200Y-95100133D01*
X62509200Y-95100133D01*
X62509200Y-96974133D01*
X62489198Y-97042254D01*
X62435542Y-97088747D01*
X62383200Y-97100133D01*
X60509200Y-97100133D01*
X60509200Y-97594600D01*
X60489198Y-97662721D01*
X60435542Y-97709214D01*
X60383200Y-97720600D01*
X60212209Y-97720600D01*
X60191291Y-97716439D01*
X60177100Y-97716439D01*
X60167055Y-97720600D01*
X60138450Y-97732448D01*
X60138449Y-97732448D01*
X60138449Y-97732449D01*
X60122439Y-97771100D01*
X60122439Y-97771101D01*
X60122439Y-97785293D01*
X60126600Y-97806209D01*
X60126600Y-98974133D01*
X60106598Y-99042254D01*
X60052942Y-99088747D01*
X60000600Y-99100133D01*
X58509200Y-99100133D01*
X58509200Y-100974133D01*
X58489198Y-101042254D01*
X58435542Y-101088747D01*
X58383200Y-101100133D01*
X56509200Y-101100133D01*
X56509200Y-102974133D01*
X56489198Y-103042254D01*
X56435542Y-103088747D01*
X56383200Y-103100133D01*
X54509200Y-103100133D01*
X54509200Y-104974133D01*
X54489198Y-105042254D01*
X54435542Y-105088747D01*
X54383200Y-105100133D01*
X52509200Y-105100133D01*
X52509200Y-106974133D01*
X52489198Y-107042254D01*
X52435542Y-107088747D01*
X52383200Y-107100133D01*
X50509200Y-107100133D01*
X50509200Y-108974133D01*
X50489198Y-109042254D01*
X50435542Y-109088747D01*
X50383200Y-109100133D01*
X48509200Y-109100133D01*
X48509200Y-110974133D01*
X48489198Y-111042254D01*
X48435542Y-111088747D01*
X48383200Y-111100133D01*
X46509200Y-111100133D01*
X46509200Y-112974133D01*
X46489198Y-113042254D01*
X46435542Y-113088747D01*
X46383200Y-113100133D01*
X44509200Y-113100133D01*
X44509200Y-114974133D01*
X44489198Y-115042254D01*
X44435542Y-115088747D01*
X44383200Y-115100133D01*
X42509200Y-115100133D01*
X42509200Y-115873500D01*
X42489198Y-115941621D01*
X42435542Y-115988114D01*
X42383200Y-115999500D01*
X38635200Y-115999500D01*
X38567079Y-115979498D01*
X38520586Y-115925842D01*
X38509200Y-115873500D01*
X38509200Y-115226133D01*
X38529202Y-115158012D01*
X38582858Y-115111519D01*
X38635200Y-115100133D01*
X40509200Y-115100133D01*
X40509200Y-113226133D01*
X40529202Y-113158012D01*
X40582858Y-113111519D01*
X40635200Y-113100133D01*
X42509200Y-113100133D01*
X42509200Y-111226133D01*
X42529202Y-111158012D01*
X42582858Y-111111519D01*
X42635200Y-111100133D01*
X44509200Y-111100133D01*
X44509200Y-109226133D01*
X44529202Y-109158012D01*
X44582858Y-109111519D01*
X44635200Y-109100133D01*
X46509200Y-109100133D01*
X46509200Y-107226133D01*
X46529202Y-107158012D01*
X46582858Y-107111519D01*
X46635200Y-107100133D01*
X48509200Y-107100133D01*
X48509200Y-105226133D01*
X48529202Y-105158012D01*
X48582858Y-105111519D01*
X48635200Y-105100133D01*
X50509200Y-105100133D01*
X50509200Y-103226133D01*
X50529202Y-103158012D01*
X50582858Y-103111519D01*
X50635200Y-103100133D01*
X52509200Y-103100133D01*
X52509200Y-101226133D01*
X52529202Y-101158012D01*
X52582858Y-101111519D01*
X52635200Y-101100133D01*
X54509200Y-101100133D01*
X54509200Y-99226133D01*
X54529202Y-99158012D01*
X54582858Y-99111519D01*
X54635200Y-99100133D01*
X56509200Y-99100133D01*
X56509200Y-97226133D01*
X56529202Y-97158012D01*
X56582858Y-97111519D01*
X56635200Y-97100133D01*
X58509200Y-97100133D01*
X58509200Y-95226133D01*
X58529202Y-95158012D01*
X58582858Y-95111519D01*
X58635200Y-95100133D01*
X60509200Y-95100133D01*
X60509200Y-93226133D01*
X60529202Y-93158012D01*
X60582858Y-93111519D01*
X60635200Y-93100133D01*
X62509200Y-93100133D01*
X62509200Y-92997600D01*
X62529202Y-92929479D01*
X62582858Y-92882986D01*
X62635200Y-92871600D01*
X64433542Y-92871600D01*
X64501663Y-92891602D01*
G37*
G04 #@! TD.AperFunction*
G04 #@! TA.AperFunction,NonConductor*
G36*
X42451321Y-107179102D02*
G01*
X42497814Y-107232758D01*
X42509200Y-107285100D01*
X42509200Y-108974133D01*
X42489198Y-109042254D01*
X42435542Y-109088747D01*
X42383200Y-109100133D01*
X40509200Y-109100133D01*
X40509200Y-110974133D01*
X40489198Y-111042254D01*
X40435542Y-111088747D01*
X40383200Y-111100133D01*
X38509200Y-111100133D01*
X38509200Y-112974133D01*
X38489198Y-113042254D01*
X38435542Y-113088747D01*
X38383200Y-113100133D01*
X36509200Y-113100133D01*
X36509200Y-114974133D01*
X36489198Y-115042254D01*
X36435542Y-115088747D01*
X36383200Y-115100133D01*
X34509200Y-115100133D01*
X34509200Y-115873500D01*
X34489198Y-115941621D01*
X34435542Y-115988114D01*
X34383200Y-115999500D01*
X30635200Y-115999500D01*
X30567079Y-115979498D01*
X30520586Y-115925842D01*
X30509200Y-115873500D01*
X30509200Y-115226133D01*
X30529202Y-115158012D01*
X30582858Y-115111519D01*
X30635200Y-115100133D01*
X32509200Y-115100133D01*
X32509200Y-113226133D01*
X32529202Y-113158012D01*
X32582858Y-113111519D01*
X32635200Y-113100133D01*
X34509200Y-113100133D01*
X34509200Y-111226133D01*
X34529202Y-111158012D01*
X34582858Y-111111519D01*
X34635200Y-111100133D01*
X36509200Y-111100133D01*
X36509200Y-109226133D01*
X36529202Y-109158012D01*
X36582858Y-109111519D01*
X36635200Y-109100133D01*
X38509200Y-109100133D01*
X38509200Y-107285100D01*
X38529202Y-107216979D01*
X38582858Y-107170486D01*
X38635200Y-107159100D01*
X42383200Y-107159100D01*
X42451321Y-107179102D01*
G37*
G04 #@! TD.AperFunction*
G04 #@! TA.AperFunction,NonConductor*
G36*
X31532261Y-107120135D02*
G01*
X31553235Y-107137038D01*
X31563446Y-107147249D01*
X31563448Y-107147250D01*
X31563449Y-107147251D01*
X31602100Y-107163261D01*
X31602100Y-107163260D01*
X31602102Y-107163261D01*
X31616292Y-107163261D01*
X31637210Y-107159100D01*
X34383200Y-107159100D01*
X34451321Y-107179102D01*
X34497814Y-107232758D01*
X34509200Y-107285100D01*
X34509200Y-108974133D01*
X34489198Y-109042254D01*
X34435542Y-109088747D01*
X34383200Y-109100133D01*
X32509200Y-109100133D01*
X32509200Y-110974133D01*
X32489198Y-111042254D01*
X32435542Y-111088747D01*
X32383200Y-111100133D01*
X30509200Y-111100133D01*
X30509200Y-112974133D01*
X30489198Y-113042254D01*
X30435542Y-113088747D01*
X30383200Y-113100133D01*
X28509200Y-113100133D01*
X28509200Y-114974133D01*
X28489198Y-115042254D01*
X28435542Y-115088747D01*
X28383200Y-115100133D01*
X26509200Y-115100133D01*
X26509200Y-115873500D01*
X26489198Y-115941621D01*
X26435542Y-115988114D01*
X26383200Y-115999500D01*
X22635200Y-115999500D01*
X22567079Y-115979498D01*
X22520586Y-115925842D01*
X22509200Y-115873500D01*
X22509200Y-115226133D01*
X22529202Y-115158012D01*
X22582858Y-115111519D01*
X22635200Y-115100133D01*
X24509200Y-115100133D01*
X24509200Y-113226133D01*
X24529202Y-113158012D01*
X24582858Y-113111519D01*
X24635200Y-113100133D01*
X26509200Y-113100133D01*
X26509200Y-111226133D01*
X26529202Y-111158012D01*
X26582858Y-111111519D01*
X26635200Y-111100133D01*
X28509200Y-111100133D01*
X28509200Y-109226133D01*
X28529202Y-109158012D01*
X28582858Y-109111519D01*
X28635200Y-109100133D01*
X30509200Y-109100133D01*
X30509200Y-107226133D01*
X30529202Y-107158012D01*
X30582858Y-107111519D01*
X30635200Y-107100133D01*
X31464140Y-107100133D01*
X31532261Y-107120135D01*
G37*
G04 #@! TD.AperFunction*
M02*
