G04 #@! TF.GenerationSoftware,KiCad,Pcbnew,7.0.9*
G04 #@! TF.CreationDate,2024-01-25T20:04:26+09:00*
G04 #@! TF.ProjectId,withTK,77697468-544b-42e6-9b69-6361645f7063,rev?*
G04 #@! TF.SameCoordinates,Original*
G04 #@! TF.FileFunction,Legend,Bot*
G04 #@! TF.FilePolarity,Positive*
%FSLAX46Y46*%
G04 Gerber Fmt 4.6, Leading zero omitted, Abs format (unit mm)*
G04 Created by KiCad (PCBNEW 7.0.9) date 2024-01-25 20:04:26*
%MOMM*%
%LPD*%
G01*
G04 APERTURE LIST*
%ADD10C,0.150000*%
G04 APERTURE END LIST*
D10*
X42499906Y-113993319D02*
X42499906Y-114707604D01*
X42499906Y-114707604D02*
X42547525Y-114850461D01*
X42547525Y-114850461D02*
X42642763Y-114945700D01*
X42642763Y-114945700D02*
X42785620Y-114993319D01*
X42785620Y-114993319D02*
X42880858Y-114993319D01*
X41547525Y-114993319D02*
X42023715Y-114993319D01*
X42023715Y-114993319D02*
X42023715Y-113993319D01*
X40642763Y-114898080D02*
X40690382Y-114945700D01*
X40690382Y-114945700D02*
X40833239Y-114993319D01*
X40833239Y-114993319D02*
X40928477Y-114993319D01*
X40928477Y-114993319D02*
X41071334Y-114945700D01*
X41071334Y-114945700D02*
X41166572Y-114850461D01*
X41166572Y-114850461D02*
X41214191Y-114755223D01*
X41214191Y-114755223D02*
X41261810Y-114564747D01*
X41261810Y-114564747D02*
X41261810Y-114421890D01*
X41261810Y-114421890D02*
X41214191Y-114231414D01*
X41214191Y-114231414D02*
X41166572Y-114136176D01*
X41166572Y-114136176D02*
X41071334Y-114040938D01*
X41071334Y-114040938D02*
X40928477Y-113993319D01*
X40928477Y-113993319D02*
X40833239Y-113993319D01*
X40833239Y-113993319D02*
X40690382Y-114040938D01*
X40690382Y-114040938D02*
X40642763Y-114088557D01*
X39928477Y-113993319D02*
X39928477Y-114707604D01*
X39928477Y-114707604D02*
X39976096Y-114850461D01*
X39976096Y-114850461D02*
X40071334Y-114945700D01*
X40071334Y-114945700D02*
X40214191Y-114993319D01*
X40214191Y-114993319D02*
X40309429Y-114993319D01*
X38976096Y-114993319D02*
X39452286Y-114993319D01*
X39452286Y-114993319D02*
X39452286Y-113993319D01*
X38071334Y-114898080D02*
X38118953Y-114945700D01*
X38118953Y-114945700D02*
X38261810Y-114993319D01*
X38261810Y-114993319D02*
X38357048Y-114993319D01*
X38357048Y-114993319D02*
X38499905Y-114945700D01*
X38499905Y-114945700D02*
X38595143Y-114850461D01*
X38595143Y-114850461D02*
X38642762Y-114755223D01*
X38642762Y-114755223D02*
X38690381Y-114564747D01*
X38690381Y-114564747D02*
X38690381Y-114421890D01*
X38690381Y-114421890D02*
X38642762Y-114231414D01*
X38642762Y-114231414D02*
X38595143Y-114136176D01*
X38595143Y-114136176D02*
X38499905Y-114040938D01*
X38499905Y-114040938D02*
X38357048Y-113993319D01*
X38357048Y-113993319D02*
X38261810Y-113993319D01*
X38261810Y-113993319D02*
X38118953Y-114040938D01*
X38118953Y-114040938D02*
X38071334Y-114088557D01*
X37357048Y-113993319D02*
X37357048Y-114707604D01*
X37357048Y-114707604D02*
X37404667Y-114850461D01*
X37404667Y-114850461D02*
X37499905Y-114945700D01*
X37499905Y-114945700D02*
X37642762Y-114993319D01*
X37642762Y-114993319D02*
X37738000Y-114993319D01*
X36404667Y-114993319D02*
X36880857Y-114993319D01*
X36880857Y-114993319D02*
X36880857Y-113993319D01*
X35499905Y-114898080D02*
X35547524Y-114945700D01*
X35547524Y-114945700D02*
X35690381Y-114993319D01*
X35690381Y-114993319D02*
X35785619Y-114993319D01*
X35785619Y-114993319D02*
X35928476Y-114945700D01*
X35928476Y-114945700D02*
X36023714Y-114850461D01*
X36023714Y-114850461D02*
X36071333Y-114755223D01*
X36071333Y-114755223D02*
X36118952Y-114564747D01*
X36118952Y-114564747D02*
X36118952Y-114421890D01*
X36118952Y-114421890D02*
X36071333Y-114231414D01*
X36071333Y-114231414D02*
X36023714Y-114136176D01*
X36023714Y-114136176D02*
X35928476Y-114040938D01*
X35928476Y-114040938D02*
X35785619Y-113993319D01*
X35785619Y-113993319D02*
X35690381Y-113993319D01*
X35690381Y-113993319D02*
X35547524Y-114040938D01*
X35547524Y-114040938D02*
X35499905Y-114088557D01*
X34785619Y-113993319D02*
X34785619Y-114707604D01*
X34785619Y-114707604D02*
X34833238Y-114850461D01*
X34833238Y-114850461D02*
X34928476Y-114945700D01*
X34928476Y-114945700D02*
X35071333Y-114993319D01*
X35071333Y-114993319D02*
X35166571Y-114993319D01*
X33833238Y-114993319D02*
X34309428Y-114993319D01*
X34309428Y-114993319D02*
X34309428Y-113993319D01*
X32928476Y-114898080D02*
X32976095Y-114945700D01*
X32976095Y-114945700D02*
X33118952Y-114993319D01*
X33118952Y-114993319D02*
X33214190Y-114993319D01*
X33214190Y-114993319D02*
X33357047Y-114945700D01*
X33357047Y-114945700D02*
X33452285Y-114850461D01*
X33452285Y-114850461D02*
X33499904Y-114755223D01*
X33499904Y-114755223D02*
X33547523Y-114564747D01*
X33547523Y-114564747D02*
X33547523Y-114421890D01*
X33547523Y-114421890D02*
X33499904Y-114231414D01*
X33499904Y-114231414D02*
X33452285Y-114136176D01*
X33452285Y-114136176D02*
X33357047Y-114040938D01*
X33357047Y-114040938D02*
X33214190Y-113993319D01*
X33214190Y-113993319D02*
X33118952Y-113993319D01*
X33118952Y-113993319D02*
X32976095Y-114040938D01*
X32976095Y-114040938D02*
X32928476Y-114088557D01*
M02*
