G04 #@! TF.GenerationSoftware,KiCad,Pcbnew,7.0.9*
G04 #@! TF.CreationDate,2024-01-25T20:04:26+09:00*
G04 #@! TF.ProjectId,withTK,77697468-544b-42e6-9b69-6361645f7063,rev?*
G04 #@! TF.SameCoordinates,Original*
G04 #@! TF.FileFunction,Profile,NP*
%FSLAX46Y46*%
G04 Gerber Fmt 4.6, Leading zero omitted, Abs format (unit mm)*
G04 Created by KiCad (PCBNEW 7.0.9) date 2024-01-25 20:04:26*
%MOMM*%
%LPD*%
G01*
G04 APERTURE LIST*
G04 #@! TA.AperFunction,Profile*
%ADD10C,0.100000*%
G04 #@! TD*
G04 #@! TA.AperFunction,Profile*
%ADD11C,0.150000*%
G04 #@! TD*
G04 APERTURE END LIST*
D10*
X19275000Y-113050000D02*
G75*
G03*
X22275000Y-116050000I3000000J0D01*
G01*
X22275000Y-17250000D02*
G75*
G03*
X19275000Y-20250000I0J-3000000D01*
G01*
X112275000Y-116050000D02*
G75*
G03*
X115275000Y-113050000I0J3000000D01*
G01*
X115275000Y-20250000D02*
G75*
G03*
X112275000Y-17250000I-3000000J0D01*
G01*
X22275000Y-116050000D02*
X112275000Y-116050000D01*
X19275000Y-20250000D02*
X19275000Y-113050000D01*
X115275000Y-20250000D02*
X115275000Y-113050000D01*
X22275000Y-17250000D02*
X112275000Y-17250000D01*
D11*
X60177100Y-21571100D02*
X74277100Y-21571100D01*
X60177100Y-35671100D02*
X60177100Y-21571100D01*
X74277100Y-21571100D02*
X74277100Y-35671100D01*
X74277100Y-35671100D02*
X60177100Y-35671100D01*
X79227100Y-21571100D02*
X93327100Y-21571100D01*
X79227100Y-35671100D02*
X79227100Y-21571100D01*
X93327100Y-21571100D02*
X93327100Y-35671100D01*
X93327100Y-35671100D02*
X79227100Y-35671100D01*
X98277100Y-21571100D02*
X112377100Y-21571100D01*
X98277100Y-35671100D02*
X98277100Y-21571100D01*
X112377100Y-21571100D02*
X112377100Y-35671100D01*
X112377100Y-35671100D02*
X98277100Y-35671100D01*
X98277100Y-78721100D02*
X112377100Y-78721100D01*
X98277100Y-92821100D02*
X98277100Y-78721100D01*
X112377100Y-78721100D02*
X112377100Y-92821100D01*
X112377100Y-92821100D02*
X98277100Y-92821100D01*
X79227100Y-59671100D02*
X93327100Y-59671100D01*
X79227100Y-73771100D02*
X79227100Y-59671100D01*
X93327100Y-59671100D02*
X93327100Y-73771100D01*
X93327100Y-73771100D02*
X79227100Y-73771100D01*
X98277100Y-40621100D02*
X112377100Y-40621100D01*
X98277100Y-54721100D02*
X98277100Y-40621100D01*
X112377100Y-40621100D02*
X112377100Y-54721100D01*
X112377100Y-54721100D02*
X98277100Y-54721100D01*
X79227100Y-78721100D02*
X93327100Y-78721100D01*
X79227100Y-92821100D02*
X79227100Y-78721100D01*
X93327100Y-78721100D02*
X93327100Y-92821100D01*
X93327100Y-92821100D02*
X79227100Y-92821100D01*
X60177100Y-78721100D02*
X74277100Y-78721100D01*
X60177100Y-92821100D02*
X60177100Y-78721100D01*
X74277100Y-78721100D02*
X74277100Y-92821100D01*
X74277100Y-92821100D02*
X60177100Y-92821100D01*
X79227100Y-40621100D02*
X93327100Y-40621100D01*
X79227100Y-54721100D02*
X79227100Y-40621100D01*
X93327100Y-40621100D02*
X93327100Y-54721100D01*
X93327100Y-54721100D02*
X79227100Y-54721100D01*
X22077100Y-47764900D02*
X36177100Y-47764900D01*
X22077100Y-61864900D02*
X22077100Y-47764900D01*
X36177100Y-47764900D02*
X36177100Y-61864900D01*
X36177100Y-61864900D02*
X22077100Y-61864900D01*
X79227100Y-97771100D02*
X93327100Y-97771100D01*
X79227100Y-111871100D02*
X79227100Y-97771100D01*
X93327100Y-97771100D02*
X93327100Y-111871100D01*
X93327100Y-111871100D02*
X79227100Y-111871100D01*
X41127100Y-66814900D02*
X55227100Y-66814900D01*
X41127100Y-80914900D02*
X41127100Y-66814900D01*
X55227100Y-66814900D02*
X55227100Y-80914900D01*
X55227100Y-80914900D02*
X41127100Y-80914900D01*
X41127100Y-47764900D02*
X55227100Y-47764900D01*
X41127100Y-61864900D02*
X41127100Y-47764900D01*
X55227100Y-47764900D02*
X55227100Y-61864900D01*
X55227100Y-61864900D02*
X41127100Y-61864900D01*
X31602100Y-93008600D02*
X45702100Y-93008600D01*
X31602100Y-107108600D02*
X31602100Y-93008600D01*
X45702100Y-93008600D02*
X45702100Y-107108600D01*
X45702100Y-107108600D02*
X31602100Y-107108600D01*
X98277100Y-59671100D02*
X112377100Y-59671100D01*
X98277100Y-73771100D02*
X98277100Y-59671100D01*
X112377100Y-59671100D02*
X112377100Y-73771100D01*
X112377100Y-73771100D02*
X98277100Y-73771100D01*
X60177100Y-97771100D02*
X74277100Y-97771100D01*
X60177100Y-111871100D02*
X60177100Y-97771100D01*
X74277100Y-97771100D02*
X74277100Y-111871100D01*
X74277100Y-111871100D02*
X60177100Y-111871100D01*
X60177100Y-59671100D02*
X74277100Y-59671100D01*
X60177100Y-73771100D02*
X60177100Y-59671100D01*
X74277100Y-59671100D02*
X74277100Y-73771100D01*
X74277100Y-73771100D02*
X60177100Y-73771100D01*
X22077100Y-66814900D02*
X36177100Y-66814900D01*
X22077100Y-80914900D02*
X22077100Y-66814900D01*
X36177100Y-66814900D02*
X36177100Y-80914900D01*
X36177100Y-80914900D02*
X22077100Y-80914900D01*
X98277100Y-97771100D02*
X112377100Y-97771100D01*
X98277100Y-111871100D02*
X98277100Y-97771100D01*
X112377100Y-97771100D02*
X112377100Y-111871100D01*
X112377100Y-111871100D02*
X98277100Y-111871100D01*
X60177100Y-40621100D02*
X74277100Y-40621100D01*
X60177100Y-54721100D02*
X60177100Y-40621100D01*
X74277100Y-40621100D02*
X74277100Y-54721100D01*
X74277100Y-54721100D02*
X60177100Y-54721100D01*
M02*
